<svg width="20" height="19" viewBox="0 0 20 19" fill="none" xmlns="http://www.w3.org/2000/svg">
<path d="M19.4839 7.52508C19.4443 7.40362 19.3393 7.31505 19.2128 7.2966L13.1433 6.41453L10.429 0.914757C10.3726 0.80001 10.2558 0.727539 10.1283 0.727539C10.0009 0.727539 9.88376 0.80001 9.82773 0.914757L7.11307 6.41486L1.0436 7.29693C0.917108 7.31538 0.812427 7.40363 0.772501 7.52542C0.733246 7.64654 0.765791 7.78007 0.857386 7.86899L5.24962 12.1502L4.21254 18.1955C4.19107 18.3213 4.24274 18.4485 4.34574 18.5236C4.44941 18.5994 4.58664 18.6092 4.69904 18.5491L10.1283 15.6952L15.557 18.5491C15.606 18.5749 15.66 18.5877 15.7133 18.5877C15.7828 18.5877 15.8519 18.5662 15.9106 18.5236C16.014 18.4485 16.0656 18.3213 16.0438 18.1955L15.0071 12.1505L19.3993 7.86899C19.4906 7.7794 19.5234 7.6462 19.4839 7.52508Z" fill="#FED130"/>
</svg>
