<svg width="19" height="19" viewBox="0 0 19 19" fill="none" xmlns="http://www.w3.org/2000/svg">
<path d="M8.85765 7.7594L9.52709 1.73447L6.84934 6.75524L0.489685 7.7594L4.84103 12.1107L4.17159 18.1357L9.52709 15.1232V14.4538L8.85765 12.7802L8.52293 10.7719L8.85765 7.7594Z" fill="#FED130"/>
<path d="M12.0936 6.63679L12.2099 6.8725L12.4701 6.9103L18.2104 7.74453L14.0567 11.7934L13.8685 11.9769L13.913 12.236L14.8934 17.9524L9.75969 15.2536L9.52704 15.1313L9.29439 15.2536L4.16042 17.9523L5.1411 12.2357L5.18555 11.9766L4.9973 11.7931L0.843978 7.74478L6.58366 6.91064L6.84378 6.87284L6.96011 6.63713L9.52702 1.43637L12.0936 6.63679Z" stroke="#FED130"/>
</svg>
