<svg width="18" height="18" viewBox="0 0 18 18" fill="none" xmlns="http://www.w3.org/2000/svg">
<g clip-path="url(#clip0)">
<path d="M3.87436 7.07156H0.642687C0.287631 7.07145 -0.00011297 6.78355 3.32727e-08 6.42849C3.7701e-05 6.24641 0.0773319 6.07291 0.212597 5.95102L6.64124 0.165285C6.87689 -0.0462946 7.23149 -0.0547699 7.47697 0.145359L14.5485 5.93113C14.8232 6.15593 14.8638 6.56094 14.639 6.83576C14.5172 6.98462 14.3351 7.07114 14.1428 7.07156H10.9394C11.1046 12.1502 13.2756 15.3195 17.5609 16.748C17.8231 16.8356 17.9999 17.081 18 17.3574C18.0001 17.392 17.9973 17.4267 17.9916 17.4609C17.9409 17.7719 17.6722 18.0003 17.3571 18.0003C9.78676 18.0002 4.22534 13.443 3.87436 7.07156Z" fill="#A4A4A4"/>
</g>
<defs>
<clipPath id="clip0">
<rect width="18" height="18" fill="white" transform="matrix(0 1 1 0 0 0)"/>
</clipPath>
</defs>
</svg>
