<svg width="17" height="17" viewBox="0 0 17 17" fill="none" xmlns="http://www.w3.org/2000/svg">
<g clip-path="url(#clip0)">
<path d="M4.58751 13.0407C3.58023 12.4592 3.23387 11.1666 3.81543 10.1593L7.35449 4.02945C8.1299 2.6864 9.8534 2.22459 11.1964 3C12.5395 3.77541 13.0013 5.4989 12.2259 6.84195L8.68682 12.9718L8.0779 12.6202L11.617 6.49038C12.1985 5.4831 11.8522 4.19048 10.8449 3.60892C9.83759 3.02737 8.54497 3.37373 7.96342 4.38101L4.42435 10.5108C4.03665 11.1824 4.26756 12.0441 4.93908 12.4318C5.6106 12.8195 6.47235 12.5886 6.86005 11.9171L9.69599 7.00511C9.88984 6.66935 9.77439 6.23847 9.43863 6.04462C9.10287 5.85077 8.67199 5.96622 8.47814 6.30198L5.6422 11.214L5.03328 10.8624L7.86922 5.95042C8.25692 5.2789 9.11867 5.04799 9.79019 5.4357C10.4617 5.8234 10.6926 6.68515 10.3049 7.35667L7.46897 12.2687C6.88742 13.2759 5.5948 13.6223 4.58751 13.0407Z" fill="black" fill-opacity="0.5"/>
</g>
<defs>
<clipPath id="clip0">
<rect width="12" height="12" fill="white" transform="translate(6) rotate(30)"/>
</clipPath>
</defs>
</svg>
