<svg id="Icons" height="512" viewBox="0 0 74 74" width="512" xmlns="http://www.w3.org/2000/svg"><path d="m37 71.781a1 1 0 0 1 -1-1v-38.281a1 1 0 0 1 .613-.922l34-14.276a1 1 0 0 1 1.387.926v39.41a1 1 0 0 1 -.64.932l-34 13.144a.994.994 0 0 1 -.36.067zm1-38.613v36.155l32-12.371v-37.22z"/><path d="m37 71.781a.994.994 0 0 1 -.36-.067l-34-13.144a1 1 0 0 1 -.64-.932v-39.41a1 1 0 0 1 1.387-.922l34 14.276a1 1 0 0 1 .613.918v38.281a1 1 0 0 1 -1 1zm-33-14.829 32 12.371v-36.155l-32-13.436z"/><path d="m71 19.228a1.018 1.018 0 0 1 -.4-.085l-33.6-14.831-33.6 14.831a1 1 0 0 1 -.8-1.831l34-15.012a1 1 0 0 1 .808 0l34 15.008a1 1 0 0 1 -.4 1.916z"/><path d="m20.023 26.372a1 1 0 0 1 -.454-1.891l31.201-15.881a1 1 0 0 1 .907 1.782l-31.2 15.878a.994.994 0 0 1 -.454.112z"/><path d="m21.329 35.436a.99.99 0 0 1 -.363-.069l-7.193-2.8a1 1 0 0 1 .727-1.867l7.193 2.8a1 1 0 0 1 -.364 1.932z"/></svg>