<svg width="15" height="15" viewBox="0 0 15 15" fill="none" xmlns="http://www.w3.org/2000/svg">
<g clip-path="url(#clip0)">
<path d="M14.8688 6.16875L11.5188 9.6L12.3063 14.4563C12.3756 14.8438 11.955 15.1275 11.6188 14.9438L7.5 12.6625V0.0187531C7.675 0.0187531 7.85 0.100003 7.925 0.268753L9.99375 4.675L14.6 5.375C14.985 5.44375 15.1269 5.89688 14.8688 6.16875Z" fill="#ECEFF1"/>
<path d="M7.49967 0.0187531V12.6625L3.38092 14.9437C3.05029 15.1293 2.62342 14.8481 2.69342 14.4562L3.48092 9.59999L0.13092 6.16874C-0.127205 5.89687 0.0140446 5.44374 0.39967 5.37499L5.00592 4.67499L7.07467 0.268753C7.14967 0.100003 7.32467 0.0187531 7.49967 0.0187531Z" fill="#FFC107"/>
</g>
<defs>
<clipPath id="clip0">
<rect width="15" height="15" fill="white"/>
</clipPath>
</defs>
</svg>
