<?xml version="1.0" standalone="no"?>
<!DOCTYPE svg PUBLIC "-//W3C//DTD SVG 20010904//EN"
 "http://www.w3.org/TR/2001/REC-SVG-20010904/DTD/svg10.dtd">
<svg version="1.0" xmlns="http://www.w3.org/2000/svg"
 width="800.000000pt" height="800.000000pt" viewBox="0 0 800.000000 800.000000"
 preserveAspectRatio="xMidYMid meet">
<metadata>
Created by potrace 1.14, written by Peter Selinger 2001-2017
</metadata>
<g transform="translate(0.000000,800.000000) scale(0.100000,-0.100000)"
fill="#000000" stroke="none">
<path d="M3028 7645 c-2 -3 -44 -7 -94 -10 -49 -3 -109 -7 -134 -10 -25 -3
-65 -8 -90 -11 -150 -17 -203 -25 -211 -30 -4 -2 -27 -6 -50 -9 -24 -3 -60
-10 -79 -15 -19 -5 -48 -11 -65 -14 -35 -6 -59 -11 -170 -41 -33 -8 -73 -21
-90 -27 -16 -7 -36 -13 -44 -15 -25 -3 -206 -77 -209 -85 -2 -4 -9 -8 -16 -8
-47 0 -383 -210 -506 -316 -108 -93 -147 -129 -232 -216 -54 -54 -98 -103 -98
-108 0 -4 -4 -10 -9 -12 -5 -1 -41 -43 -80 -93 -39 -49 -75 -95 -81 -102 -5
-7 -10 -17 -10 -23 0 -5 -3 -10 -7 -10 -5 0 -21 -23 -38 -50 -16 -28 -33 -50
-39 -50 -5 0 -7 -3 -3 -6 3 -3 -5 -23 -18 -43 -31 -49 -97 -182 -125 -251 -12
-30 -26 -64 -30 -75 -11 -26 -41 -121 -45 -143 -2 -9 -4 -17 -6 -17 -1 0 -3
-9 -5 -20 -24 -155 -70 -290 -159 -465 -69 -137 -89 -175 -98 -181 -5 -3 -9
-10 -9 -15 -1 -5 -20 -49 -43 -99 -61 -131 -103 -269 -122 -405 -15 -103 -8
-394 11 -510 3 -14 10 -59 16 -100 7 -41 14 -84 17 -95 2 -11 6 -33 9 -50 3
-16 10 -48 16 -70 6 -22 12 -53 15 -70 2 -16 8 -44 14 -61 5 -17 11 -40 14
-50 27 -128 165 -449 250 -583 14 -22 25 -43 25 -47 0 -3 14 -26 30 -51 17
-24 30 -46 30 -48 0 -2 19 -32 42 -67 22 -35 66 -101 97 -148 30 -47 59 -87
63 -88 5 -2 8 -10 8 -18 0 -8 4 -14 9 -14 5 0 12 -8 16 -19 3 -10 17 -31 30
-47 14 -16 25 -34 25 -41 0 -6 4 -13 8 -15 5 -1 59 -79 120 -173 61 -93 118
-178 126 -187 9 -10 16 -20 16 -23 0 -9 54 -90 63 -93 4 -2 7 -9 7 -15 0 -7
18 -36 40 -65 22 -29 40 -56 40 -60 0 -4 11 -20 25 -35 14 -15 22 -27 18 -27
-4 0 -3 -4 3 -8 5 -4 30 -36 55 -72 24 -36 46 -67 49 -70 3 -3 29 -36 59 -74
114 -146 143 -179 285 -321 112 -112 160 -156 233 -212 15 -12 46 -36 68 -54
74 -57 279 -189 350 -224 22 -11 42 -22 45 -25 9 -9 223 -108 300 -138 115
-45 172 -64 358 -118 7 -2 14 -4 17 -4 3 -1 19 -6 37 -11 18 -5 44 -11 58 -14
14 -3 36 -7 50 -10 14 -3 36 -7 50 -10 14 -2 39 -7 55 -9 17 -3 39 -8 50 -10
11 -2 45 -7 75 -11 30 -4 64 -9 75 -11 60 -12 227 -19 440 -19 254 1 377 8
510 31 17 3 39 7 50 8 24 4 102 17 130 22 11 3 35 7 54 10 19 3 45 10 58 15
13 5 23 7 23 5 0 -3 48 9 108 25 59 17 115 32 125 34 53 12 220 70 347 120
131 52 428 190 440 206 3 3 20 12 38 20 17 8 32 18 32 22 0 5 4 6 9 2 5 -3 13
0 16 5 4 6 17 15 28 21 12 5 31 15 42 21 11 7 50 32 87 56 38 23 100 63 139
90 40 26 79 52 87 57 36 23 147 109 150 117 2 4 9 8 16 8 8 0 24 10 37 23 13
13 44 38 69 57 25 19 47 37 50 40 3 4 41 37 85 75 77 66 364 349 415 410 14
17 48 57 76 90 160 189 317 420 456 670 77 137 227 500 253 609 3 12 18 73 35
136 28 108 38 154 45 207 2 13 7 42 11 65 4 24 9 59 10 78 1 19 3 35 4 35 8 0
15 179 14 355 0 231 -6 326 -29 470 -3 19 -8 51 -11 70 -5 40 -8 53 -23 130
-16 81 -18 87 -46 190 -14 52 -27 106 -30 120 -3 14 -9 34 -14 45 -5 11 -26
70 -46 130 -21 61 -43 124 -51 140 -7 17 -25 59 -39 95 -15 36 -51 115 -81
177 -30 61 -54 116 -54 122 0 6 -4 11 -10 11 -5 0 -10 4 -10 10 0 5 -22 48
-50 96 -27 48 -50 89 -50 91 0 15 -267 403 -333 483 -7 8 -30 38 -52 65 -22
28 -43 52 -46 55 -3 3 -35 39 -70 80 -66 77 -273 288 -344 350 -97 85 -252
200 -336 249 -115 69 -326 165 -383 175 -11 3 -21 5 -21 6 0 1 -7 3 -15 5 -8
2 -51 13 -95 24 -99 25 -228 48 -320 56 -38 3 -82 8 -96 11 -28 4 -181 13
-334 19 -49 2 -148 7 -220 10 -71 3 -173 7 -225 10 -52 2 -153 7 -225 10 -71
4 -174 8 -227 9 -54 0 -98 3 -98 6 0 6 -956 10 -962 5z"/>
</g>
</svg>
