<svg width="156" height="139" viewBox="0 0 156 139" fill="none" xmlns="http://www.w3.org/2000/svg">
<g id="arrow-playnance 1" clip-path="url(#clip0_306_21)">
<g id="&#208;&#161;&#208;&#187;&#208;&#190;&#208;&#185; 2">
<g id="Design">
<path id="Vector" d="M5.36569 46.0262C4.49683 47.523 5.70448 49.6931 6.69128 50.7777C7.42383 51.5828 9.71343 53.4572 10.8515 52.1926C18.5228 43.6672 27.4483 36.2794 38.1619 31.9205C48.772 27.564 60.3001 25.9148 71.7048 27.122C77.1951 27.6927 82.5739 29.0497 87.6756 31.1514C88.9649 31.6852 90.2342 32.2636 91.4836 32.8868C92.5626 33.4157 93.6125 34.0017 94.6288 34.6423C95.7988 35.3516 96.9441 36.0993 98.0649 36.8853C98.5873 37.2515 99.1039 37.6259 99.6146 38.0087C99.9066 38.227 100.197 38.4479 100.485 38.6713C100.56 38.7297 100.835 38.9543 100.995 39.0842C103.102 40.8409 105.099 42.7236 106.978 44.722C107.163 44.92 107.717 45.5466 107.811 45.6468C108.192 46.0912 108.572 46.5355 108.942 46.9889C109.864 48.1191 110.749 49.2778 111.598 50.465C111.97 50.9846 112.334 51.5092 112.691 52.0389C112.843 52.2641 113.261 52.9128 113.362 53.0622C114.056 54.1818 114.729 55.3143 115.362 56.4696C116.02 57.671 116.644 58.8906 117.232 60.1283C117.507 60.7059 117.766 61.2897 118.033 61.871C118.083 61.9811 118.123 62.0675 118.157 62.1412C118.306 62.5018 118.452 62.8639 118.595 63.2273C119.763 66.1992 120.726 69.2476 121.477 72.3512C121.541 72.6168 121.602 72.8832 121.664 73.1493C121.692 73.2734 121.709 73.3506 121.718 73.388C121.736 73.4759 121.754 73.5638 121.772 73.6516C121.927 74.456 122.077 75.2605 122.208 76.0693C122.455 77.5949 122.649 79.1279 122.79 80.6683C123.114 84.3282 123.225 88.0039 123.122 91.6768C122.861 91.0988 122.598 90.5233 122.333 89.9504C118.802 82.3173 114.454 75.1642 108.706 68.9987C107.66 67.8766 105.313 66.6054 103.835 67.7166C102.342 68.839 102.957 71.3993 103.722 72.7457C107.233 78.9284 111.015 84.967 114.087 91.3887C117.053 97.5883 118.972 104.151 121.304 110.945C122.015 113.016 123.514 115.048 125.496 116.043C126.76 116.677 128.997 117.213 129.773 115.489C132.667 109.06 136.134 102.827 139.292 96.5208C140.819 93.4718 142.337 90.4185 143.847 87.3608C145.445 84.1239 147.443 80.7065 148.162 77.1441C148.553 75.2109 145.202 70.2256 142.976 72.1794C140.421 74.4223 138.74 77.9766 137.021 80.8636C135.543 83.3468 134.071 85.8341 132.607 88.3254C132.501 81.702 131.161 75.0414 129.16 68.7574C125.161 56.2023 118.091 44.8423 108.588 35.7041C99.2618 26.7009 87.5518 20.5469 74.8364 17.9667C62.6725 15.5503 49.7194 16.7326 38.0604 20.8864C25.0132 25.5348 12.4214 33.8708 5.36569 46.0262Z" fill="#DC000C"/>
</g>
</g>
</g>
<defs>
<clipPath id="clip0_306_21">
<rect width="113" height="134" fill="white" transform="translate(24.3872 138.649) rotate(-101.973)"/>
</clipPath>
</defs>
</svg>
