<svg width="290" height="178" viewBox="0 0 290 178" fill="none" xmlns="http://www.w3.org/2000/svg">
<path d="M276.599 119.274C271.207 126.182 265.921 133.175 260.741 140.251C264.786 112.655 256.535 83.6315 241.133 60.5382C220.471 29.5596 186.096 10.086 149.967 3.10165C112.412 -4.1586 73.7954 1.56888 39.2628 17.7493C26.6842 23.6431 14.7515 30.7133 3.50014 38.7404C-0.475552 41.5768 0.157055 47.5678 4.55732 49.6865C8.14068 51.4118 12.3784 50.9559 15.5974 48.6202C28.6761 39.13 42.7105 30.9965 57.6359 24.6865C73.951 17.7891 91.1382 13.1103 108.799 11.4833C117.265 10.688 125.783 10.6041 134.263 11.2326C142.666 11.8155 151.001 13.1357 159.172 15.1779C163.346 16.2251 167.463 17.4506 171.524 18.8546C172.2 19.0876 172.874 19.3264 173.545 19.5707L173.656 19.611C174.705 20.0086 175.748 20.4187 176.787 20.8411C178.638 21.5941 180.472 22.3863 182.289 23.2176C184.364 24.1666 186.414 25.1668 188.438 26.2182C189.45 26.7436 190.452 27.2857 191.452 27.8327C191.427 27.819 191.777 28.0158 192.006 28.1441C192.292 28.3115 192.912 28.6721 192.986 28.7158C196.678 30.8931 200.249 33.2475 203.7 35.779C216.679 45.394 227.439 57.684 235.251 71.8166C243.01 85.901 247.799 101.425 249.321 117.43C250.414 128.898 249.49 140.078 247.329 151.147L246.631 148.982C245.338 144.972 244.083 140.95 242.672 136.98C241.275 133.051 240.195 128.423 237.562 125.12C236.514 123.775 235.012 122.856 233.336 122.535C232.388 122.351 230.174 122.289 229.781 123.603C228.693 127.239 230.469 131.739 231.276 135.344C232.169 139.335 233.214 143.286 234.235 147.246L240.506 171.591C241.158 174.119 244.23 175.924 246.456 176.767C248.062 177.375 252.15 178.308 253.572 176.477C266.13 160.296 278.237 143.704 289.583 126.658C291.294 124.088 287.302 120.879 285.514 119.836C283.613 118.727 278.453 116.903 276.599 119.274Z" fill="#DC000C"/>
</svg>
