<svg width="26" height="21" viewBox="0 0 26 21" fill="none" xmlns="http://www.w3.org/2000/svg">
<path d="M22.3275 3.80249C23.3734 3.17726 24.1559 2.19277 24.529 1.03282C23.5463 1.61593 22.4711 2.02668 21.3498 2.24732C19.7954 0.602939 17.3324 0.202771 15.3373 1.27042C13.3422 2.33807 12.3088 4.60923 12.8145 6.81482C8.78906 6.61272 5.03865 4.71122 2.49652 1.58349C1.16983 3.87181 1.8478 6.79707 4.04585 8.26849C3.25101 8.24293 2.4738 8.02773 1.77902 7.64082C1.77902 7.66182 1.77902 7.68282 1.77902 7.70382C1.77948 10.0875 3.45945 12.1407 5.79585 12.6132C5.05859 12.8137 4.28526 12.8433 3.53485 12.6995C4.19192 14.738 6.07066 16.1345 8.21202 16.1762C6.43849 17.5681 4.24824 18.323 1.99368 18.3193C1.59407 18.3199 1.19476 18.2969 0.797852 18.2505C3.08731 19.7217 5.75195 20.5026 8.47335 20.4998C12.2595 20.5258 15.8981 19.0332 18.5752 16.3558C21.2523 13.6785 22.7447 10.0398 22.7183 6.25365C22.7183 6.03665 22.7133 5.82082 22.7032 5.60616C23.6837 4.89752 24.53 4.01966 25.2022 3.01382C24.2887 3.41873 23.3197 3.68457 22.3275 3.80249Z" fill="#030D2F"/>
</svg>
