<svg width="22" height="22" viewBox="0 0 22 22" fill="none" xmlns="http://www.w3.org/2000/svg">
<path d="M11.002 21.5479C8.13195 21.5479 7.79362 21.5327 6.67362 21.4837C5.80022 21.455 4.93813 21.2774 4.12445 20.9587C2.71665 20.4108 1.60345 19.2972 1.05612 17.8892C0.749644 17.0726 0.584341 16.2098 0.567286 15.3377C0.501953 14.22 0.501953 13.8537 0.501953 11.0059C0.501953 8.1277 0.51712 7.79169 0.567286 6.67753C0.584714 5.80663 0.750011 4.94504 1.05612 4.12953C1.60286 2.71964 2.71786 1.60506 4.12795 1.05886C4.94304 0.751096 5.80486 0.585361 6.67595 0.568859C7.79012 0.505859 8.15645 0.505859 11.002 0.505859C13.8953 0.505859 14.2278 0.521026 15.3303 0.568859C16.2036 0.585504 17.0677 0.751221 17.8853 1.05886C19.295 1.60568 20.4098 2.72005 20.9571 4.12953C21.2688 4.95692 21.4349 5.83199 21.4483 6.71603C21.5136 7.83369 21.5136 8.19886 21.5136 11.0455C21.5136 13.8922 21.4973 14.2655 21.4483 15.3704C21.4309 16.2433 21.2652 17.1069 20.9583 17.9242C20.4096 19.3332 19.2947 20.4472 17.8853 20.9949C17.0689 21.3008 16.2066 21.466 15.335 21.4837C14.2208 21.5479 13.8556 21.5479 11.002 21.5479ZM10.9623 2.35269C8.10862 2.35269 7.81229 2.36669 6.69812 2.41686C6.0331 2.42567 5.37451 2.54839 4.75095 2.77969C3.83016 3.13204 3.10155 3.85768 2.74545 4.77703C2.51237 5.40738 2.38963 6.07317 2.38262 6.74519C2.32079 7.87569 2.32079 8.17203 2.32079 11.0059C2.32079 13.8059 2.33129 14.1454 2.38262 15.2689C2.39306 15.9341 2.51573 16.5928 2.74545 17.2172C3.10208 18.1359 3.83056 18.861 4.75095 19.2134C5.37409 19.4462 6.03295 19.569 6.69812 19.5762C7.82745 19.6415 8.12495 19.6415 10.9623 19.6415C13.8241 19.6415 14.1205 19.6275 15.2253 19.5762C15.8908 19.5681 16.5498 19.4454 17.1736 19.2134C18.0888 18.858 18.8127 18.1345 19.1686 17.2195C19.4013 16.5887 19.524 15.9226 19.5315 15.2502H19.5443C19.5945 14.1349 19.5945 13.8374 19.5945 10.9872C19.5945 8.13703 19.5816 7.83719 19.5315 6.72303C19.521 6.05855 19.3983 5.40062 19.1686 4.77703C18.8135 3.8607 18.0895 3.13587 17.1736 2.77969C16.55 2.54722 15.8908 2.42447 15.2253 2.41686C14.0971 2.35269 13.802 2.35269 10.9623 2.35269ZM11.002 16.3947C8.82027 16.3961 6.85261 15.0831 6.01663 13.0679C5.18064 11.0527 5.64101 8.73241 7.18302 7.18907C8.72504 5.64572 11.045 5.18334 13.0608 6.01758C15.0767 6.85182 16.3915 8.81835 16.392 11C16.3887 13.9763 13.9782 16.3889 11.002 16.3947ZM11.002 7.49769C9.06896 7.49769 7.50195 9.0647 7.50195 10.9977C7.50195 12.9307 9.06896 14.4977 11.002 14.4977C12.9349 14.4977 14.502 12.9307 14.502 10.9977C14.4975 9.06656 12.9331 7.50218 11.002 7.49769ZM16.602 6.66587C15.9083 6.66329 15.3477 6.09955 15.349 5.40587C15.3502 4.71219 15.9129 4.15054 16.6066 4.15054C17.3003 4.15054 17.863 4.71218 17.8643 5.40586C17.8646 5.74053 17.7316 6.06155 17.4948 6.29799C17.2579 6.53442 16.9366 6.66679 16.602 6.66587Z" fill="#030D2F"/>
</svg>
