<svg width="22" height="22" viewBox="0 0 22 22" fill="none" xmlns="http://www.w3.org/2000/svg">
<path d="M11.0024 21.5479C8.13244 21.5479 7.79411 21.5327 6.67411 21.4837C5.80071 21.455 4.93861 21.2774 4.12494 20.9587C2.71714 20.4108 1.60394 19.2972 1.05661 17.8892C0.750132 17.0726 0.584829 16.2098 0.567775 15.3377C0.502441 14.22 0.502441 13.8537 0.502441 11.0059C0.502441 8.1277 0.517608 7.79169 0.567775 6.67753C0.585202 5.80663 0.750499 4.94504 1.05661 4.12953C1.60334 2.71964 2.71835 1.60506 4.12844 1.05886C4.94353 0.751096 5.80535 0.585361 6.67644 0.568859C7.79061 0.505859 8.15694 0.505859 11.0024 0.505859C13.8958 0.505859 14.2283 0.521026 15.3308 0.568859C16.2041 0.585504 17.0682 0.751221 17.8858 1.05886C19.2955 1.60568 20.4102 2.72005 20.9576 4.12953C21.2693 4.95692 21.4354 5.83199 21.4488 6.71603C21.5141 7.83369 21.5141 8.19886 21.5141 11.0455C21.5141 13.8922 21.4978 14.2655 21.4488 15.3704C21.4314 16.2433 21.2657 17.1069 20.9588 17.9242C20.41 19.3332 19.2952 20.4472 17.8858 20.9949C17.0694 21.3008 16.2071 21.466 15.3354 21.4837C14.2213 21.5479 13.8561 21.5479 11.0024 21.5479ZM10.9628 2.35269C8.10911 2.35269 7.81278 2.36669 6.69861 2.41686C6.03359 2.42567 5.375 2.54839 4.75144 2.77969C3.83065 3.13204 3.10204 3.85768 2.74594 4.77703C2.51286 5.40738 2.39012 6.07317 2.38311 6.74519C2.32127 7.87569 2.32127 8.17203 2.32127 11.0059C2.32127 13.8059 2.33177 14.1454 2.38311 15.2689C2.39355 15.9341 2.51622 16.5928 2.74594 17.2172C3.10256 18.1359 3.83105 18.861 4.75144 19.2134C5.37457 19.4462 6.03343 19.569 6.69861 19.5762C7.82794 19.6415 8.12544 19.6415 10.9628 19.6415C13.8246 19.6415 14.1209 19.6275 15.2258 19.5762C15.8912 19.5681 16.5503 19.4454 17.1741 19.2134C18.0893 18.858 18.8132 18.1345 19.1691 17.2195C19.4017 16.5887 19.5245 15.9226 19.5319 15.2502H19.5448C19.5949 14.1349 19.5949 13.8374 19.5949 10.9872C19.5949 8.13703 19.5821 7.83719 19.5319 6.72303C19.5215 6.05855 19.3988 5.40062 19.1691 4.77703C18.814 3.8607 18.09 3.13587 17.1741 2.77969C16.5505 2.54722 15.8913 2.42447 15.2258 2.41686C14.0976 2.35269 13.8024 2.35269 10.9628 2.35269ZM11.0024 16.3947C8.82076 16.3961 6.8531 15.0831 6.01711 13.0679C5.18113 11.0527 5.6415 8.73241 7.18351 7.18907C8.72552 5.64572 11.0454 5.18334 13.0613 6.01758C15.0772 6.85182 16.392 8.81835 16.3924 11C16.3892 13.9763 13.9787 16.3889 11.0024 16.3947ZM11.0024 7.49769C9.06944 7.49769 7.50244 9.0647 7.50244 10.9977C7.50244 12.9307 9.06944 14.4977 11.0024 14.4977C12.9354 14.4977 14.5024 12.9307 14.5024 10.9977C14.498 9.06656 12.9336 7.50218 11.0024 7.49769ZM16.6024 6.66587C15.9088 6.66329 15.3482 6.09955 15.3494 5.40587C15.3507 4.71219 15.9134 4.15054 16.6071 4.15054C17.3008 4.15054 17.8635 4.71218 17.8648 5.40586C17.8651 5.74053 17.7321 6.06155 17.4952 6.29799C17.2584 6.53442 16.9371 6.66679 16.6024 6.66587Z" fill="#F6A536"/>
</svg>
