<svg width="24" height="24" viewBox="0 0 24 24" fill="none" xmlns="http://www.w3.org/2000/svg">
<path d="M0.335938 12.002C0.337295 17.7413 4.51074 22.628 10.1791 23.5275V15.3736H7.21927V12.002H10.1826V9.43531C10.0501 8.21911 10.4655 7.007 11.3162 6.12773C12.1668 5.24846 13.3645 4.79316 14.5844 4.88531C15.4601 4.89945 16.3335 4.97744 17.1978 5.11865V7.98748H15.7231C15.2154 7.92099 14.705 8.08866 14.3357 8.44326C13.9663 8.79786 13.778 9.30101 13.8238 9.81098V12.002H17.0566L16.5398 15.3748H13.8238V23.5275C19.954 22.5587 24.2527 16.9601 23.6057 10.7876C22.9587 4.61508 17.5924 0.029562 11.3946 0.35302C5.19669 0.676477 0.336923 5.79567 0.335938 12.002Z" fill="#030D2F"/>
</svg>
