<svg width="24" height="24" viewBox="0 0 24 24" fill="none" xmlns="http://www.w3.org/2000/svg">
<path d="M0.335449 12.002C0.336807 17.7413 4.51025 22.628 10.1786 23.5275V15.3736H7.21878V12.002H10.1821V9.43531C10.0496 8.21911 10.4651 7.007 11.3157 6.12773C12.1663 5.24846 13.364 4.79316 14.584 4.88531C15.4596 4.89945 16.333 4.97744 17.1973 5.11865V7.98748H15.7226C15.2149 7.92099 14.7045 8.08866 14.3352 8.44326C13.9658 8.79786 13.7775 9.30101 13.8233 9.81098V12.002H17.0561L16.5393 15.3748H13.8233V23.5275C19.9535 22.5587 24.2522 16.9601 23.6052 10.7876C22.9582 4.61508 17.592 0.029562 11.3941 0.35302C5.19621 0.676477 0.336434 5.79567 0.335449 12.002Z" fill="#4867AA"/>
</svg>
