<svg width="28" height="28" viewBox="0 0 28 28" fill="none" xmlns="http://www.w3.org/2000/svg">
<path d="M2.33594 14.002C2.33729 19.7413 6.51074 24.628 12.1791 25.5275V17.3736H9.21927V14.002H12.1826V11.4353C12.0501 10.2191 12.4655 9.007 13.3162 8.12773C14.1668 7.24846 15.3645 6.79316 16.5844 6.88531C17.4601 6.89945 18.3335 6.97744 19.1978 7.11865V9.98748H17.7231C17.2154 9.92099 16.705 10.0887 16.3357 10.4433C15.9663 10.7979 15.778 11.301 15.8238 11.811V14.002H19.0566L18.5398 17.3748H15.8238V25.5275C21.954 24.5587 26.2527 18.9601 25.6057 12.7876C24.9587 6.61508 19.5924 2.02956 13.3946 2.35302C7.19669 2.67648 2.33692 7.79567 2.33594 14.002Z" fill="white"/>
</svg>
