<svg width="93" height="83" viewBox="0 0 93 83" fill="none" xmlns="http://www.w3.org/2000/svg">
<path fill-rule="evenodd" clip-rule="evenodd" d="M42.5 7.50012H55C57.7576 7.50012 60 9.7425 60 12.5V20C60 22.7577 57.7576 25.0001 55.0002 25.0001H35.0002V23.75C35.0002 23.0591 34.4411 22.5 33.7501 22.5H26.2501C25.5592 22.5 25.0001 23.0591 25.0001 23.75V25.0001H5.00004C2.24238 25.0001 0 22.7577 0 20V12.5C0 9.7425 2.24238 7.50012 5.00004 7.5H17.5V5.00004C17.5 2.24238 19.7425 0 22.5 0H37.5C40.2577 0 42.5 2.2425 42.5 5.00004V7.50012ZM22.5 7.50012H37.5V5.00004H22.5V7.50012ZM57.9955 26.4724C58.3716 26.1868 58.8806 26.1379 59.3066 26.3491C59.7314 26.5604 60 26.9936 60.0001 27.4686V45.0003C60.0001 47.758 57.7576 50.0004 55.0001 50.0004H5.00004C2.24238 50.0004 0 47.7579 0 45.0003V27.4686C0 26.9936 0.268594 26.5604 0.693281 26.3491C1.11937 26.1355 1.62715 26.1843 2.00437 26.4724C2.89313 27.145 3.92824 27.5002 5.00004 27.5002H25V31.2502C25 31.9412 25.5591 32.5003 26.25 32.5003H33.75C34.4409 32.5003 35 31.9412 35 31.2502V27.5002H54.9998C56.0716 27.5002 57.1069 27.145 57.9955 26.4724Z" fill="url(#paint0_linear)"/>
<g opacity="0.9" filter="url(#filter0_b)">
<circle cx="59.5588" cy="49.5588" r="32.5588" fill="#FFE0E0" fill-opacity="0.1"/>
<circle cx="59.5588" cy="49.5588" r="31.9559" stroke="#A6C1FF" stroke-opacity="0.5" stroke-width="1.20588"/>
</g>
<g opacity="0.9" filter="url(#filter1_b)">
<circle cx="59.5588" cy="49.5588" r="32.5588" fill="white" fill-opacity="0.11"/>
</g>
<g clip-path="url(#clip0)">
<path d="M64.7285 48.4448C63.3943 47.7074 61.9758 47.1457 60.5714 46.5628C59.7569 46.2258 58.9774 45.8325 58.2892 45.2848C56.934 44.2034 57.1938 42.4479 58.7808 41.7527C59.2302 41.5561 59.7007 41.4929 60.1782 41.4648C62.018 41.3665 63.7665 41.7035 65.4307 42.5041C66.2593 42.9043 66.5332 42.7779 66.8141 41.9142C67.109 41.0013 67.3548 40.0744 67.6287 39.1545C67.8112 38.5366 67.5865 38.1293 67.0037 37.8695C65.9363 37.399 64.8409 37.0619 63.6892 36.8793C62.1865 36.6476 62.1865 36.6406 62.1795 35.1308C62.1725 33.0031 62.1725 33.0031 60.0377 33.0031C59.7288 33.0031 59.4198 32.9961 59.1108 33.0031C58.1137 33.0312 57.9451 33.2068 57.9171 34.2109C57.903 34.6603 57.9171 35.1098 57.91 35.5662C57.903 36.9004 57.896 36.8793 56.618 37.3428C53.5282 38.4663 51.6182 40.573 51.4146 43.9436C51.232 46.928 52.7909 48.9433 55.2416 50.411C56.7514 51.3168 58.4226 51.8505 60.0237 52.5597C60.6487 52.8336 61.2455 53.1496 61.7652 53.585C63.303 54.856 63.0221 56.9696 61.1964 57.7702C60.2203 58.1985 59.1881 58.3038 58.1277 58.1704C56.4916 57.9668 54.9256 57.5384 53.451 56.773C52.5873 56.3236 52.3345 56.443 52.0395 57.3769C51.7867 58.1845 51.562 58.999 51.3373 59.8136C51.0354 60.909 51.1477 61.1689 52.194 61.6815C53.5282 62.3275 54.9537 62.6576 56.4073 62.8893C57.5449 63.0719 57.58 63.121 57.594 64.3007C57.6011 64.8344 57.6011 65.3751 57.6081 65.9088C57.6151 66.5829 57.9381 66.9762 58.6333 66.9902C59.4198 67.0042 60.2133 67.0042 60.9998 66.9832C61.6458 66.9691 61.9758 66.618 61.9758 65.965C61.9758 65.2347 62.011 64.4974 61.9829 63.767C61.9478 63.0227 62.2708 62.6435 62.987 62.4469C64.6372 61.9975 66.0417 61.1127 67.1231 59.7925C70.1285 56.141 68.9839 50.7972 64.7285 48.4448Z" fill="white"/>
</g>
<defs>
<filter id="filter0_b" x="-6.76471" y="-16.7647" width="132.647" height="132.647" filterUnits="userSpaceOnUse" color-interpolation-filters="sRGB">
<feFlood flood-opacity="0" result="BackgroundImageFix"/>
<feGaussianBlur in="BackgroundImage" stdDeviation="16.8824"/>
<feComposite in2="SourceAlpha" operator="in" result="effect1_backgroundBlur"/>
<feBlend mode="normal" in="SourceGraphic" in2="effect1_backgroundBlur" result="shape"/>
</filter>
<filter id="filter1_b" x="14.94" y="4.94" width="89.2376" height="89.2376" filterUnits="userSpaceOnUse" color-interpolation-filters="sRGB">
<feFlood flood-opacity="0" result="BackgroundImageFix"/>
<feGaussianBlur in="BackgroundImage" stdDeviation="6.03"/>
<feComposite in2="SourceAlpha" operator="in" result="effect1_backgroundBlur"/>
<feBlend mode="normal" in="SourceGraphic" in2="effect1_backgroundBlur" result="shape"/>
</filter>
<linearGradient id="paint0_linear" x1="30.0001" y1="0" x2="30.0001" y2="50.0004" gradientUnits="userSpaceOnUse">
<stop stop-color="#EB8182"/>
<stop offset="0.933324" stop-color="#EC4242"/>
</linearGradient>
<clipPath id="clip0">
<rect width="34" height="34" fill="white" transform="translate(43 33)"/>
</clipPath>
</defs>
</svg>
