<svg width="134" height="52" viewBox="0 0 134 52" fill="none" xmlns="http://www.w3.org/2000/svg">
<path d="M126.948 41.4673L126.948 41.4675C127.982 40.6308 128.515 39.7584 128.642 38.8623C128.769 37.964 128.5 36.9491 127.743 35.8024C126.673 34.2162 125.467 32.7961 124.149 31.5667L124.146 31.5637C120.72 28.3122 116.851 25.9905 112.898 23.7826C103.141 18.4754 92.9791 14.3941 82.5482 11.593L82.5415 11.5912C70.7352 8.24412 58.6724 6.30772 46.5036 5.80583L46.5015 5.80575C37.5278 5.39719 28.5188 5.75165 19.5327 6.86693C14.4433 7.5252 9.35369 8.17678 4.26374 8.82168C4.24785 8.82373 4.23238 8.82642 4.2047 8.83122C4.19942 8.83213 4.19369 8.83313 4.18743 8.83421C4.15391 8.84 4.10419 8.84841 4.04989 8.85336M126.948 41.4673L4.00455 8.35542M126.948 41.4673L126.938 41.4764C125.655 42.5752 124.248 43.3795 122.784 43.8592C119.417 44.8758 116.012 45.608 112.59 46.0512C103.081 47.0802 93.6062 46.5502 81.1762 45.2996C79.9729 45.1222 78.5521 44.9304 76.9744 44.7176C72.7867 44.1525 67.4941 43.4384 62.2319 42.4472C52.3427 40.5844 42.4931 38.4182 32.6515 36.1904L32.6515 36.1904L32.6453 36.1891C27.4942 35.0919 22.4554 33.3573 17.5977 31.0081C16.0662 30.2655 14.5969 29.3334 13.2099 28.2234C11.7982 27.0662 11.2185 25.9468 11.2584 24.9141C11.2986 23.8736 11.9735 22.742 13.4874 21.5789C14.8302 20.5712 16.2531 19.7749 17.7245 19.2051L17.7248 19.2049C24.2602 16.6679 31.0036 15.3435 37.748 15.27L37.748 15.27L37.7534 15.2699C40.4797 15.211 43.1908 15.3449 45.9224 15.4798C47.1654 15.5411 48.4126 15.6027 49.6674 15.6465C50.4815 15.6748 51.171 15.5849 51.692 15.2839C52.2494 14.9618 52.5401 14.4433 52.6348 13.8019C52.7382 13.1014 52.5781 12.4753 52.0738 12.0045C51.6031 11.565 50.8941 11.3214 50.0336 11.1938C43.3857 10.2009 36.6394 10.2151 29.9321 11.2355C25.0559 11.8635 20.2289 13.1793 15.5386 15.1574C13.3635 16.0037 11.3496 17.4353 9.63077 19.3428L9.62485 19.3493L9.61917 19.3561C8.15778 21.0979 7.364 23.0465 7.30961 24.9953C7.25514 26.9472 7.94396 28.8611 9.37999 30.521C10.6443 32.0108 12.1083 33.2122 13.7134 34.0696M126.948 41.4673L58.3001 2.49747C48.952 1.43745 39.5356 1.16414 30.1104 1.67929M4.04989 8.85336L4.00455 8.35542M4.04989 8.85336C4.05007 8.85334 4.05024 8.85332 4.05042 8.85331L4.00455 8.35542M4.04989 8.85336C3.32698 8.91988 2.6756 8.82633 2.18327 8.49287C1.6679 8.1438 1.41348 7.59199 1.38172 6.94182L1.38172 6.94179C1.35057 6.30361 1.54071 5.73593 1.99161 5.30246C2.425 4.88581 3.04961 4.6413 3.79925 4.51959L3.79926 4.51959C4.38992 4.4237 4.98076 4.32742 5.5718 4.23111C13.7063 2.90559 21.8763 1.57427 30.0847 1.17994M4.00455 8.35542C2.67511 8.47788 1.93278 7.97487 1.88112 6.91742C1.83072 5.88457 2.48414 5.23966 3.87938 5.01313C4.46831 4.91752 5.05724 4.82156 5.64618 4.7256C13.7873 3.39906 21.9311 2.0721 30.1104 1.67929M30.0847 1.17994C30.0842 1.17997 30.0836 1.18 30.0831 1.18003L30.1104 1.67929M30.0847 1.17994C30.0853 1.17992 30.0858 1.17989 30.0864 1.17986L30.1104 1.67929M30.0847 1.17994C39.5372 0.6634 48.981 0.937535 58.3564 2.00066L58.3572 2.00075C74.2469 3.82826 89.8391 8.05234 104.816 14.5858C110.809 17.0931 116.586 20.3125 122.075 24.2028L122.082 24.2082L122.09 24.2138C124.589 26.1284 126.976 28.2652 129.234 30.6091L129.241 30.6166C130.265 31.7248 131.107 33.0688 131.732 34.5778C133.195 37.8965 132.75 41.4415 130.354 44.0132L130.349 44.018C128.975 45.4549 127.445 46.6304 125.807 47.5011C122.016 49.5641 118.01 50.2417 114.068 50.6539C101.413 51.9773 88.873 51.1659 76.4086 49.3565C75.5341 49.2296 74.6588 49.1038 73.783 48.9781C69.615 48.3795 65.4366 47.7794 61.2791 47.0366C54.7783 45.8752 48.2679 44.6786 41.8035 43.2066C35.7282 41.8232 29.6747 40.2442 23.6851 38.3973L23.6734 38.3937L23.6735 38.3935C20.27 37.2526 16.942 35.8078 13.7134 34.0696M13.7134 34.0696C13.7132 34.0695 13.713 34.0694 13.7128 34.0693L13.9498 33.6292L13.7143 34.0701C13.714 34.0699 13.7137 34.0698 13.7134 34.0696Z" fill="#DC000C" stroke="#DC000C"/>
</svg>
