<svg width="26" height="26" viewBox="0 0 26 26" fill="none" xmlns="http://www.w3.org/2000/svg">
<rect width="26" height="26" rx="13" fill="#EAECF0"/>
<path d="M9.6931 9.13574C11.1617 10.9842 12.6189 12.8242 14.0875 14.6726C14.8246 14.1144 15.5475 13.5704 16.2931 13.0064C17.3917 14.6669 18.4875 16.3246 19.5945 17.9993C15.186 17.9993 10.8058 17.9993 6.39734 17.9993C7.49875 15.0457 8.59169 12.1036 9.6931 9.13574Z" fill="#949598"/>
<path d="M16.307 9.65481C16.3127 8.71206 17.0611 8.00286 17.962 8.00001C18.8629 7.99716 19.6084 8.77187 19.6 9.67759C19.5915 10.6004 18.8544 11.3295 17.9394 11.3238C17.0215 11.3153 16.3042 10.5862 16.307 9.65481Z" fill="#949598"/>
</svg>
