<svg width="16" height="16" viewBox="0 0 16 16" fill="none" xmlns="http://www.w3.org/2000/svg">
<g id="instagram (7) 1">
<g id="Group 52">
<path id="Vector" d="M14.9618 5.11605C14.929 4.37217 14.8087 3.86077 14.6363 3.41762C14.4586 2.94724 14.1851 2.52611 13.8268 2.17601C13.4767 1.82048 13.0528 1.54421 12.5878 1.36921C12.1421 1.19689 11.6334 1.0766 10.8895 1.0438C10.1401 1.00823 9.90216 1 8.00139 1C6.10062 1 5.8627 1.00823 5.11605 1.04102C4.37217 1.07382 3.86077 1.19422 3.41773 1.36644C2.94724 1.54421 2.52611 1.8177 2.17601 2.17601C1.82048 2.52611 1.54431 2.95002 1.36921 3.41495C1.19689 3.86077 1.0766 4.3694 1.0438 5.11327C1.00823 5.8627 1 6.10062 1 8.00139C1 9.90216 1.00823 10.1401 1.04102 10.8867C1.07382 11.6306 1.19422 12.142 1.36654 12.5852C1.54431 13.0555 1.82048 13.4767 2.17601 13.8268C2.52611 14.1823 2.95002 14.4586 3.41495 14.6336C3.86077 14.8059 4.3694 14.9262 5.11338 14.959C5.85993 14.9919 6.09795 15 7.99872 15C9.89949 15 10.1374 14.9919 10.8841 14.959C11.6279 14.9262 12.1393 14.8059 12.5824 14.6336C13.5233 14.2698 14.2671 13.5259 14.6309 12.5852C14.8031 12.1393 14.9235 11.6306 14.9563 10.8867C14.9891 10.1401 14.9973 9.90216 14.9973 8.00139C14.9973 6.10062 14.9946 5.8627 14.9618 5.11605ZM13.701 10.832C13.6709 11.5158 13.556 11.885 13.4603 12.1311C13.2251 12.741 12.741 13.2251 12.1311 13.4603C11.885 13.556 11.5131 13.6709 10.832 13.7009C10.0936 13.7338 9.87214 13.7419 8.00417 13.7419C6.1362 13.7419 5.91195 13.7338 5.1762 13.7009C4.49247 13.6709 4.12325 13.556 3.87711 13.4603C3.5736 13.3482 3.29733 13.1704 3.07309 12.9379C2.84062 12.7109 2.66285 12.4374 2.55068 12.1339C2.45495 11.8877 2.34011 11.5158 2.31009 10.8348C2.27719 10.0964 2.26907 9.87481 2.26907 8.00684C2.26907 6.13887 2.27719 5.91463 2.31009 5.17898C2.34011 4.49525 2.45495 4.12603 2.55068 3.87989C2.66285 3.57627 2.84062 3.30011 3.07587 3.07576C3.30278 2.84329 3.57627 2.66552 3.87989 2.55345C4.12603 2.45773 4.49802 2.34289 5.17898 2.31276C5.9174 2.27996 6.13897 2.27174 8.00684 2.27174C9.87759 2.27174 10.099 2.27996 10.8348 2.31276C11.5185 2.34289 11.8877 2.45773 12.1339 2.55345C12.4374 2.66552 12.7137 2.84329 12.9379 3.07576C13.1704 3.30278 13.3482 3.57627 13.4603 3.87989C13.556 4.12603 13.6709 4.49792 13.701 5.17898C13.7338 5.9174 13.742 6.13887 13.742 8.00684C13.742 9.87481 13.7338 10.0936 13.701 10.832Z" fill="white"/>
<path id="Vector_2" d="M8.00138 4.40527C6.0159 4.40527 4.40497 6.0161 4.40497 8.00169C4.40497 9.98728 6.0159 11.5981 8.00138 11.5981C9.98698 11.5981 11.5978 9.98728 11.5978 8.00169C11.5978 6.0161 9.98698 4.40527 8.00138 4.40527ZM8.00138 10.3346C6.7133 10.3346 5.66848 9.28988 5.66848 8.00169C5.66848 6.7135 6.7133 5.66878 8.00138 5.66878C9.28957 5.66878 10.3343 6.7135 10.3343 8.00169C10.3343 9.28988 9.28957 10.3346 8.00138 10.3346Z" fill="white"/>
<path id="Vector_3" d="M12.5797 4.26343C12.5797 4.72708 12.2037 5.10302 11.74 5.10302C11.2763 5.10302 10.9004 4.72708 10.9004 4.26343C10.9004 3.79967 11.2763 3.42383 11.74 3.42383C12.2037 3.42383 12.5797 3.79967 12.5797 4.26343Z" fill="white"/>
</g>
</g>
</svg>
