<svg width="28" height="28" viewBox="0 0 28 28" fill="none" xmlns="http://www.w3.org/2000/svg">
<path d="M13.9939 25C10.9889 25 10.6346 24.9841 9.46197 24.9329C8.54748 24.9029 7.64484 24.7172 6.79289 24.384C5.31887 23.8112 4.15331 22.6469 3.58023 21.1748C3.25934 20.321 3.08626 19.4189 3.06841 18.5071C3 17.3385 3 16.9555 3 13.978C3 10.9688 3.01588 10.6175 3.06841 9.45265C3.08665 8.54211 3.25973 7.64128 3.58023 6.78864C4.15269 5.31457 5.32014 4.14925 6.79656 3.57818C7.64998 3.2564 8.55234 3.08312 9.46441 3.06587C10.631 3 11.0145 3 13.9939 3C17.0233 3 17.3715 3.01586 18.5258 3.06587C19.4403 3.08327 20.345 3.25653 21.201 3.57818C22.677 4.14989 23.8442 5.315 24.4173 6.78864C24.7436 7.65371 24.9176 8.56861 24.9316 9.4929C25 10.6615 25 11.0432 25 14.0195C25 16.9958 24.9829 17.3861 24.9316 18.5413C24.9134 19.4539 24.7399 20.3568 24.4185 21.2114C23.844 22.6845 22.6767 23.8492 21.201 24.4218C20.3462 24.7416 19.4433 24.9144 18.5307 24.9329C17.3641 25 16.9818 25 13.9939 25ZM13.9524 4.93092C10.9645 4.93092 10.6542 4.94555 9.48762 4.998C8.79132 5.00722 8.10175 5.13552 7.44886 5.37736C6.48476 5.74574 5.72188 6.50443 5.34903 7.46562C5.10498 8.12467 4.97647 8.82078 4.96913 9.5234C4.90439 10.7054 4.90439 11.0152 4.90439 13.978C4.90439 16.9055 4.91538 17.2605 4.96913 18.4351C4.98006 19.1307 5.1085 19.8193 5.34903 20.4722C5.72242 21.4327 6.48518 22.1908 7.44886 22.5592C8.10131 22.8027 8.79116 22.931 9.48762 22.9386C10.6701 23.0069 10.9816 23.0069 13.9524 23.0069C16.9488 23.0069 17.2591 22.9922 18.4159 22.9386C19.1126 22.9301 19.8027 22.8018 20.4559 22.5592C21.4141 22.1877 22.172 21.4313 22.5447 20.4746C22.7883 19.815 22.9168 19.1186 22.9246 18.4156H22.938C22.9906 17.2495 22.9906 16.9385 22.9906 13.9585C22.9906 10.9786 22.9771 10.6651 22.9246 9.50022C22.9136 8.8055 22.7852 8.11761 22.5447 7.46562C22.1729 6.50757 21.4149 5.74975 20.4559 5.37736C19.8029 5.1343 19.1127 5.00596 18.4159 4.998C17.2346 4.93092 16.9256 4.93092 13.9524 4.93092ZM13.9939 19.6122C11.7096 19.6137 9.64937 18.2409 8.77407 16.134C7.89876 14.0271 8.38079 11.6011 9.99533 9.98748C11.6099 8.37386 14.0389 7.89044 16.1496 8.76266C18.2603 9.63488 19.6369 11.6909 19.6374 13.9719C19.6341 17.0837 17.1101 19.6062 13.9939 19.6122ZM13.9939 10.3102C11.97 10.3102 10.3293 11.9485 10.3293 13.9695C10.3293 15.9905 11.97 17.6289 13.9939 17.6289C16.0178 17.6289 17.6585 15.9905 17.6585 13.9695C17.6538 11.9505 16.0159 10.3149 13.9939 10.3102ZM19.8573 9.44046C19.131 9.43776 18.544 8.84836 18.5454 8.1231C18.5467 7.39784 19.1359 6.81061 19.8622 6.81061C20.5885 6.81061 21.1777 7.39783 21.179 8.12309C21.1793 8.473 21.0401 8.80863 20.7921 9.05583C20.5441 9.30302 20.2077 9.44142 19.8573 9.44046Z" fill="white"/>
</svg>
