<svg width="16" height="16" viewBox="0 0 16 16" fill="none" xmlns="http://www.w3.org/2000/svg">
<g id="linkedin (3) 1">
<g id="_x31_0.Linkedin">
<path id="Vector" d="M14.4 14.3995V9.71146C14.4 7.40746 13.904 5.64746 11.216 5.64746C9.91999 5.64746 9.05599 6.35146 8.70399 7.02346H8.67199V5.85546H6.12799V14.3995H8.78399V10.1595C8.78399 9.03946 8.99199 7.96746 10.368 7.96746C11.728 7.96746 11.744 9.23146 11.744 10.2235V14.3835H14.4V14.3995Z" fill="white"/>
<path id="Vector_2" d="M1.80801 5.85547H4.46401V14.3995H1.80801V5.85547Z" fill="white"/>
<path id="Vector_3" d="M3.13601 1.59961C2.28801 1.59961 1.60001 2.28761 1.60001 3.13561C1.60001 3.98361 2.28801 4.68761 3.13601 4.68761C3.98401 4.68761 4.67201 3.98361 4.67201 3.13561C4.67201 2.28761 3.98401 1.59961 3.13601 1.59961Z" fill="white"/>
</g>
</g>
</svg>
