<svg width="161" height="161" viewBox="0 0 161 161" fill="none" xmlns="http://www.w3.org/2000/svg">
<g filter="url(#filter0_d)">
<rect x="58" y="44" width="45" height="45" rx="18" fill="url(#paint0_linear)"/>
<rect x="56" y="42" width="49" height="49" rx="20" stroke="#F8FAFC" stroke-width="4"/>
</g>
<path d="M89.9418 67.5052C89.2994 66.6746 88.3301 66.1041 87.0339 65.794C88.6846 64.9521 89.4099 63.5231 89.2108 61.5068C89.1442 60.7756 88.9421 60.1419 88.6041 59.6048C88.2659 59.0676 87.8094 58.6357 87.233 58.309C86.6571 57.9818 86.0307 57.7328 85.3553 57.5611C84.6797 57.3894 83.9041 57.2648 83.029 57.1873V53H80.4703V57.071C80.0272 57.071 79.3516 57.082 78.4433 57.1042V53H75.8843V57.1873C75.5186 57.1984 74.9815 57.2041 74.2725 57.2041L70.75 57.1873V59.9124H72.5943C73.4362 59.9124 73.9291 60.2891 74.0731 61.0423V65.8112C74.184 65.8112 74.2725 65.8169 74.3391 65.828H74.0731V72.5074C73.9846 73.0722 73.6634 73.3549 73.1094 73.3549H71.2653L70.7501 76.3957H74.0734C74.2839 76.3957 74.5883 76.3985 74.9873 76.4035C75.386 76.4091 75.685 76.4119 75.8844 76.4119V80.6489H78.4438V76.4617C78.909 76.4731 79.5846 76.4785 80.4708 76.4785V80.6489H83.0295V76.4119C83.9381 76.3677 84.7439 76.285 85.447 76.1627C86.1505 76.0405 86.8236 75.8497 87.4659 75.5892C88.1082 75.329 88.6454 75.0048 89.0773 74.6171C89.5095 74.2297 89.8665 73.7365 90.1494 73.1383C90.4315 72.54 90.6117 71.8476 90.689 71.061C90.8336 69.5216 90.5842 68.3362 89.9418 67.5052ZM78.4931 60.0947C78.5706 60.0947 78.7894 60.0919 79.1494 60.0863C79.5096 60.0806 79.8086 60.0751 80.0467 60.0695C80.285 60.0641 80.6062 60.0779 81.0107 60.1111C81.415 60.1444 81.7556 60.1888 82.0324 60.2441C82.3093 60.2994 82.6142 60.3908 82.9462 60.5182C83.2788 60.6455 83.5445 60.8006 83.7437 60.9834C83.9432 61.1661 84.1121 61.3989 84.2503 61.6813C84.389 61.9638 84.4582 62.2878 84.4582 62.6533C84.4582 62.9635 84.4085 63.246 84.3089 63.5009C84.2095 63.7557 84.0596 63.969 83.8604 64.1407C83.6612 64.3124 83.4559 64.4621 83.2454 64.5894C83.0351 64.7167 82.7662 64.8192 82.4395 64.8967C82.1129 64.9742 81.8277 65.0352 81.5841 65.0794C81.3404 65.1238 81.0358 65.1543 80.6702 65.1708C80.3046 65.1874 80.0275 65.1987 79.8393 65.2041C79.6509 65.2096 79.3935 65.2096 79.0666 65.2041C78.7396 65.1987 78.5488 65.1957 78.4932 65.1957L78.4931 60.0947ZM85.4804 71.4101C85.3749 71.665 85.2394 71.8867 85.0734 72.0751C84.907 72.2631 84.6882 72.4295 84.4169 72.5733C84.1457 72.7175 83.8823 72.8336 83.6278 72.9222C83.3729 73.0112 83.0653 73.0883 82.7057 73.155C82.3452 73.2215 82.0297 73.2683 81.758 73.2962C81.4868 73.324 81.1629 73.346 80.7861 73.3628C80.4096 73.3791 80.1159 73.3875 79.9055 73.3875C79.695 73.3875 79.4291 73.3845 79.1078 73.3791C78.7864 73.3739 78.5816 73.3711 78.4929 73.3711V67.7546C78.5815 67.7546 78.8446 67.7492 79.2822 67.7379C79.72 67.7268 80.077 67.7216 80.354 67.7216C80.6309 67.7216 81.0132 67.7379 81.5008 67.7714C81.9879 67.8044 82.3978 67.854 82.7304 67.9205C83.0626 67.9871 83.4251 68.0894 83.8187 68.228C84.2118 68.3664 84.5304 68.5353 84.7742 68.7347C85.018 68.9344 85.2228 69.1888 85.3889 69.4991C85.5554 69.8092 85.6384 70.1637 85.6384 70.5626C85.6384 70.8731 85.5858 71.1551 85.4804 71.4101Z" fill="white"/>
<defs>
<filter id="filter0_d" x="0" y="0" width="161" height="161" filterUnits="userSpaceOnUse" color-interpolation-filters="sRGB">
<feFlood flood-opacity="0" result="BackgroundImageFix"/>
<feColorMatrix in="SourceAlpha" type="matrix" values="0 0 0 0 0 0 0 0 0 0 0 0 0 0 0 0 0 0 127 0"/>
<feOffset dy="14"/>
<feGaussianBlur stdDeviation="27"/>
<feColorMatrix type="matrix" values="0 0 0 0 0.8544 0 0 0 0 0.8722 0 0 0 0 0.89 0 0 0 0.6 0"/>
<feBlend mode="normal" in2="BackgroundImageFix" result="effect1_dropShadow"/>
<feBlend mode="normal" in="SourceGraphic" in2="effect1_dropShadow" result="shape"/>
</filter>
<linearGradient id="paint0_linear" x1="84.3571" y1="51.7143" x2="69.25" y2="85.1429" gradientUnits="userSpaceOnUse">
<stop stop-color="#2858FF"/>
<stop offset="1" stop-color="#2E8CFF"/>
</linearGradient>
</defs>
</svg>
