<svg width="163" height="163" viewBox="0 0 163 163" fill="none" xmlns="http://www.w3.org/2000/svg">
<g filter="url(#filter0_d)">
<rect x="58" y="44" width="46.3129" height="46.3129" rx="20" fill="url(#paint0_linear)"/>
<rect x="56" y="42" width="50.3129" height="50.3129" rx="22" stroke="#F8FAFC" stroke-width="4"/>
</g>
<path d="M91.7841 68.8184C90.9743 67.8796 89.8647 67.4102 88.4539 67.4102C87.5062 67.4102 86.6813 67.6303 85.9778 68.0745C85.2768 68.5198 84.7555 69.1499 84.4215 69.9648C84.0862 70.7783 83.9179 71.645 83.9179 72.5611C83.9179 73.4771 84.0875 74.3413 84.4215 75.1561C84.7555 75.971 85.2781 76.6011 85.9778 77.0439C86.6813 77.488 87.5062 77.712 88.4539 77.712C89.8647 77.712 90.9743 77.24 91.7841 76.3025C92.5938 75.3649 93 74.1174 93 72.5611C93 71.0061 92.5938 69.7535 91.7841 68.8184ZM89.8558 75.3371C89.5496 75.685 89.1017 75.8609 88.5184 75.8609C87.9275 75.8609 87.4923 75.685 87.1962 75.3371C86.7255 74.7943 86.4927 73.9238 86.4927 72.7268C86.4927 71.5261 86.7255 70.6531 87.1962 70.1141C87.4923 69.7573 87.9275 69.5789 88.5184 69.5789C89.1017 69.5789 89.5484 69.7509 89.8558 70.0989C90.3252 70.6518 90.5606 71.5261 90.5606 72.7268C90.5606 73.9238 90.3252 74.7955 89.8558 75.3371ZM77.8662 58.6963C77.0564 57.7575 75.9467 57.2881 74.536 57.2881C73.5883 57.2881 72.7633 57.5082 72.0599 57.9523C71.3589 58.3977 70.8376 59.0278 70.5036 59.8426C70.1683 60.6562 70 61.5229 70 62.439C70 63.355 70.1695 64.2204 70.5036 65.034C70.8389 65.8488 71.3602 66.4789 72.0599 66.9218C72.7633 67.3659 73.5883 67.5911 74.536 67.5911C75.9467 67.5911 77.0564 67.1192 77.8662 66.1803C78.6759 65.2428 79.0821 63.9952 79.0821 62.439C79.0821 60.8827 78.6759 59.6313 77.8662 58.6963ZM75.9379 65.2149C75.6317 65.5629 75.1838 65.7388 74.6005 65.7388C74.0096 65.7388 73.5744 65.5629 73.2783 65.2149C72.8076 64.6721 72.5748 63.8016 72.5748 62.6047C72.5748 61.4052 72.8076 60.5322 73.2783 59.9919C73.5744 59.6339 74.0096 59.4567 74.6005 59.4567C75.1838 59.4567 75.6304 59.6288 75.9379 59.978C76.4073 60.5297 76.6426 61.4052 76.6426 62.6047C76.6426 63.8029 76.4073 64.6734 75.9379 65.2149ZM88.4071 57.3792L77.4233 77.6892H74.7106L85.6665 57.3792H88.4071Z" fill="white"/>
<defs>
<filter id="filter0_d" x="0" y="0" width="162.313" height="162.313" filterUnits="userSpaceOnUse" color-interpolation-filters="sRGB">
<feFlood flood-opacity="0" result="BackgroundImageFix"/>
<feColorMatrix in="SourceAlpha" type="matrix" values="0 0 0 0 0 0 0 0 0 0 0 0 0 0 0 0 0 0 127 0"/>
<feOffset dy="14"/>
<feGaussianBlur stdDeviation="27"/>
<feColorMatrix type="matrix" values="0 0 0 0 0.8544 0 0 0 0 0.8722 0 0 0 0 0.89 0 0 0 0.6 0"/>
<feBlend mode="normal" in2="BackgroundImageFix" result="effect1_dropShadow"/>
<feBlend mode="normal" in="SourceGraphic" in2="effect1_dropShadow" result="shape"/>
</filter>
<linearGradient id="paint0_linear" x1="81.1565" y1="44" x2="81.1565" y2="90.3129" gradientUnits="userSpaceOnUse">
<stop stop-color="#FF8F28"/>
<stop offset="1" stop-color="#FF4228"/>
</linearGradient>
</defs>
</svg>
