<svg width="161" height="161" viewBox="0 0 161 161" fill="none" xmlns="http://www.w3.org/2000/svg">
<g filter="url(#filter0_d)">
<rect x="58" y="44" width="45" height="45" rx="20" fill="url(#paint0_linear)"/>
<rect x="56" y="42" width="49" height="49" rx="22" stroke="#F8FAFC" stroke-width="4"/>
</g>
<path d="M81.9581 68.5624C82.2316 68.8359 82.6024 68.9896 82.9892 68.9897H83.8438C84.2305 68.9896 84.6014 68.8359 84.8748 68.5624L91.7392 61.698L95.0831 65.042V56.292H86.3331L89.6771 59.636L83.4165 65.8966L79.0415 61.5216C78.768 61.2481 78.3972 61.0944 78.0104 61.0943H77.1558C76.7691 61.0944 76.3982 61.2481 76.1248 61.5216L66.3438 71.3026L68.4058 73.3647L77.5831 64.1874L81.9581 68.5624Z" fill="white"/>
<defs>
<filter id="filter0_d" x="0" y="0" width="161" height="161" filterUnits="userSpaceOnUse" color-interpolation-filters="sRGB">
<feFlood flood-opacity="0" result="BackgroundImageFix"/>
<feColorMatrix in="SourceAlpha" type="matrix" values="0 0 0 0 0 0 0 0 0 0 0 0 0 0 0 0 0 0 127 0"/>
<feOffset dy="14"/>
<feGaussianBlur stdDeviation="27"/>
<feColorMatrix type="matrix" values="0 0 0 0 0.8544 0 0 0 0 0.8722 0 0 0 0 0.89 0 0 0 0.6 0"/>
<feBlend mode="normal" in2="BackgroundImageFix" result="effect1_dropShadow"/>
<feBlend mode="normal" in="SourceGraphic" in2="effect1_dropShadow" result="shape"/>
</filter>
<linearGradient id="paint0_linear" x1="80.5" y1="44" x2="67" y2="94" gradientUnits="userSpaceOnUse">
<stop stop-color="#28B2FF"/>
<stop offset="1" stop-color="#2898FF"/>
</linearGradient>
</defs>
</svg>
