<svg width="100" height="100" viewBox="0 0 100 100" fill="none" xmlns="http://www.w3.org/2000/svg">
<rect x="1.5" y="1.5" width="97" height="97" rx="37.5" fill="url(#paint0_linear)" stroke="#F7F9FB" stroke-width="3"/>
<path fill-rule="evenodd" clip-rule="evenodd" d="M45.8202 37.9771C53.1654 29.7262 64.7697 24.4073 74.9449 24.5898C75.5248 24.605 75.9917 25.0719 76.0069 25.6496C76.2437 35.8118 70.8813 47.4117 62.6217 54.7722C62.4892 61.7917 59.6115 68.6265 54.6488 73.5892C54.4316 73.8043 54.1167 73.9389 53.8083 73.9389C53.7019 73.9389 53.5976 73.9237 53.4977 73.8911C53.1089 73.7608 52.7875 73.4611 52.7289 73.0528L51.53 64.6824L50.3724 65.7162C50.1661 65.9008 49.9076 65.9921 49.6492 65.9921C49.369 65.9921 49.091 65.8856 48.8803 65.675L34.9217 51.7164C34.5134 51.3081 34.4939 50.6543 34.8783 50.2243L35.9121 49.0667L27.5417 47.8678C27.1334 47.8092 26.7946 47.5247 26.6643 47.1316C26.5362 46.7406 26.6404 46.3084 26.9336 46.0196C31.9658 40.9874 38.8007 38.1096 45.8202 37.9771ZM61.0971 44.9249C62.4892 44.9249 63.8792 44.395 64.9369 43.3373C67.0545 41.2219 67.0545 37.7752 64.9369 35.6576C62.8194 33.54 59.3748 33.54 57.2572 35.6576C55.1418 37.7752 55.1418 41.2197 57.2572 43.3373C58.3149 44.395 59.7049 44.9249 61.0971 44.9249ZM23.9344 75.3093C24.2906 74.1213 27.4811 63.6224 29.805 61.2985C32.4221 58.6836 36.6789 58.6814 39.2982 61.2985C41.9153 63.9156 41.9153 68.1747 39.2982 70.7918C36.9743 73.1157 26.4755 76.3062 25.2875 76.6624C25.1832 76.6928 25.079 76.708 24.9747 76.708C24.6902 76.708 24.4144 76.5972 24.2059 76.3887C23.9257 76.1064 23.8193 75.6915 23.9344 75.3093Z" fill="white"/>
<defs>
<linearGradient id="paint0_linear" x1="58.0571" y1="19.1143" x2="26.5" y2="88.9429" gradientUnits="userSpaceOnUse">
<stop stop-color="#FF8F28"/>
<stop offset="1" stop-color="#FF4F28"/>
</linearGradient>
</defs>
</svg>
