<svg width="16" height="16" viewBox="0 0 16 16" fill="none" xmlns="http://www.w3.org/2000/svg">
<path fill-rule="evenodd" clip-rule="evenodd" d="M11.7108 10.6343C13.5728 8.24304 13.4046 4.7834 11.2063 2.58511C8.82588 0.204704 4.96649 0.204704 2.58608 2.58511C0.205681 4.96551 0.205681 8.8249 2.58608 11.2053C4.78438 13.4036 8.24402 13.5718 10.6353 11.7098C10.6456 11.7215 10.6564 11.7329 10.6675 11.7441L13.9001 14.9766C14.1976 15.2742 14.6801 15.2742 14.9776 14.9766C15.2752 14.6791 15.2752 14.1967 14.9776 13.8991L11.745 10.6665C11.7339 10.6554 11.7225 10.6447 11.7108 10.6343ZM10.1288 3.66263C11.9141 5.44793 11.9141 8.34248 10.1288 10.1278C8.34346 11.9131 5.44891 11.9131 3.66361 10.1278C1.87831 8.34248 1.87831 5.44793 3.66361 3.66263C5.44891 1.87733 8.34346 1.87733 10.1288 3.66263Z" fill="#636679"/>
</svg>
