<svg width="20" height="20" viewBox="0 0 20 20" fill="none" xmlns="http://www.w3.org/2000/svg">
<path fill-rule="evenodd" clip-rule="evenodd" d="M15.0999 13.6211C17.6601 10.3331 17.4288 5.57607 14.4062 2.55342C11.1331 -0.719631 5.82647 -0.71963 2.55342 2.55342C-0.719631 5.82648 -0.719631 11.1331 2.55342 14.4062C5.57607 17.4288 10.3331 17.6601 13.6211 15.0999C13.6353 15.116 13.6501 15.1317 13.6654 15.147L18.1102 19.5918C18.5193 20.0009 19.1827 20.0009 19.5918 19.5918C20.0009 19.1827 20.0009 18.5193 19.5918 18.1102L15.147 13.6654C15.1317 13.6501 15.116 13.6353 15.0999 13.6211ZM12.9246 4.03502C15.3794 6.48981 15.3794 10.4698 12.9246 12.9246C10.4698 15.3794 6.48981 15.3794 4.03502 12.9246C1.58023 10.4698 1.58023 6.48981 4.03502 4.03502C6.48981 1.58023 10.4698 1.58023 12.9246 4.03502Z" fill="white"/>
</svg>
