<svg width="48" height="48" viewBox="0 0 48 48" fill="none" xmlns="http://www.w3.org/2000/svg">
<g id="Frame 36" clip-path="url(#clip0_306_270)">
<g id="Group 54">
<path id="Vector" fill-rule="evenodd" clip-rule="evenodd" d="M40.1001 7.51955L40.3465 9.05949C40.5313 10.4762 40.6237 11.893 40.5929 13.3405C40.5929 16.5128 40.2233 19.6543 39.4841 22.7342C38.4986 26.892 36.7738 30.8651 34.4023 34.4377C31.6612 38.5032 27.6882 42.4762 21.9288 45.7409L21.2204 46.1413L20.512 45.7409C14.7526 42.5378 10.7796 38.534 8.0385 34.4377C5.63619 30.8651 3.94225 26.9228 2.95669 22.7342C2.21752 19.6543 1.84793 16.5128 1.84793 13.3405C1.84793 11.9238 1.90953 10.4762 2.09432 9.05949L2.30991 7.51955C2.34071 7.39635 2.34071 7.27316 2.30991 7.14996C2.27911 7.02677 2.24832 6.90357 2.15592 6.81118C2.09432 6.71878 2.00192 6.62639 1.90953 6.56479C1.81713 6.50319 1.69394 6.47239 1.60154 6.44159C1.47834 6.41079 1.35515 6.41079 1.23195 6.44159C1.10876 6.47239 0.985563 6.53399 0.893167 6.59558C0.80077 6.65718 0.708373 6.74958 0.646775 6.84198C0.585178 6.96517 0.554378 7.08837 0.523579 7.21156L0.27719 8.7515C0.092397 10.2606 0 11.8006 0 13.3405C0 16.6668 0.400386 19.9623 1.17036 23.1962C1.69394 25.3829 2.40231 27.5388 3.29548 29.6023C4.18864 31.6658 5.2666 33.637 6.52935 35.5157C9.42445 39.8275 13.6131 44.047 19.6497 47.3733L20.7892 48.02C20.9432 48.0816 21.0972 48.1124 21.2512 48.1124C21.4052 48.1124 21.5592 48.0816 21.7132 48.02L22.8527 47.3733C28.8585 44.0162 33.078 39.7967 35.973 35.5157C38.4986 31.7582 40.3157 27.5696 41.332 23.1962C42.102 19.9623 42.4716 16.6668 42.4716 13.3405C42.4716 11.8006 42.3792 10.2606 42.1944 8.72071L41.948 7.18077C41.9172 7.05757 41.8864 6.93437 41.8248 6.81118C41.7632 6.71878 41.6708 6.62639 41.5784 6.56479C41.486 6.50319 41.3628 6.44159 41.2397 6.41079C41.1165 6.38 40.9933 6.38 40.8701 6.41079C40.7469 6.44159 40.6237 6.47239 40.5005 6.53399C40.4081 6.59559 40.3157 6.68798 40.2541 6.78038C40.1925 6.87278 40.1309 6.99597 40.1001 7.11916V7.51955Z" fill="#DC000C"/>
<path id="Vector_2" fill-rule="evenodd" clip-rule="evenodd" d="M7.48412 6.47227L21.282 2.12963L35.3571 6.56466C35.4803 6.59546 35.6035 6.59546 35.7267 6.59546C35.8499 6.59546 35.973 6.56466 36.0962 6.50306C36.2194 6.44146 36.3118 6.37987 36.4042 6.25668C36.4966 6.16428 36.5582 6.04108 36.5582 5.91789C36.589 5.79469 36.589 5.6715 36.589 5.5483C36.589 5.42511 36.5582 5.30191 36.4966 5.17872C36.435 5.05552 36.3734 4.96312 36.281 4.87073C36.1886 4.77833 36.0654 4.71673 35.9423 4.71673L21.5592 0.158503C21.3744 0.0969053 21.1896 0.0969053 21.0048 0.158503L6.96053 4.59353C6.83734 4.62433 6.74494 4.68593 6.62175 4.74753C6.52935 4.83993 6.43696 4.93232 6.40616 5.05552C6.34456 5.17871 6.31376 5.30191 6.31376 5.4251C6.31376 5.5483 6.31376 5.6715 6.34456 5.79469C6.37536 5.91789 6.43695 6.04108 6.49855 6.13348C6.56015 6.22587 6.68334 6.31827 6.80654 6.37987C6.89894 6.44147 7.02213 6.47227 7.17613 6.47227C7.23773 6.50307 7.36092 6.50307 7.48412 6.47227Z" fill="#DC000C"/>
<path id="Vector_3" fill-rule="evenodd" clip-rule="evenodd" d="M0.677562 7.79639L20.4196 47.5885C20.4812 47.7425 20.6044 47.8657 20.7276 47.9581C21.0356 48.1429 21.4052 48.1429 21.7132 47.9581C21.8672 47.8657 21.9904 47.7425 22.0828 47.5885L34.1251 24.3354L34.1559 24.3046L41.8556 7.76559C41.9172 7.6424 41.948 7.5192 41.948 7.39601C41.948 7.27281 41.948 7.14962 41.8864 7.02642C41.8556 6.90323 41.794 6.78003 41.7016 6.68763C41.64 6.59524 41.5168 6.50284 41.4244 6.44124C41.332 6.37964 41.2088 6.34884 41.0548 6.34884C40.9317 6.34884 40.8085 6.34884 40.6853 6.37964C40.5621 6.41044 40.4389 6.47204 40.3465 6.56444C40.2541 6.65684 40.1617 6.74923 40.1309 6.87243L32.4312 23.4114L21.2204 45.063L2.3099 6.87243C2.2483 6.78003 2.15591 6.65684 2.09431 6.56444C2.00191 6.47204 1.87872 6.41044 1.75552 6.37964C1.63233 6.31805 1.50913 6.31804 1.38594 6.34884C1.26274 6.34884 1.13955 6.37964 1.01635 6.44124C0.923954 6.50284 0.800758 6.59524 0.739161 6.68763C0.677563 6.78003 0.615965 6.90323 0.585166 7.02642C0.554368 7.14962 0.523569 7.27281 0.554368 7.39601C0.585167 7.55 0.615964 7.6732 0.677562 7.79639Z" fill="#DC000C"/>
<path id="Vector_4" fill-rule="evenodd" clip-rule="evenodd" d="M10.1328 25.5365H32.1232C32.2464 25.5365 32.3696 25.5057 32.4928 25.4749C32.616 25.4441 32.7084 25.3517 32.77 25.2593C32.8624 25.1669 32.924 25.0745 32.9548 24.9513C33.0472 24.7049 33.0472 24.4585 32.9548 24.2121C32.924 24.0889 32.8316 23.9965 32.77 23.9041C32.6776 23.8117 32.5852 23.7502 32.4928 23.6886C32.3696 23.6578 32.2464 23.627 32.1232 23.627H10.1328C10.0096 23.627 9.88642 23.6578 9.76323 23.6886C9.64003 23.7194 9.54764 23.8117 9.48604 23.9041C9.39364 23.9965 9.33205 24.0889 9.30125 24.2121C9.20885 24.4585 9.20885 24.7049 9.30125 24.9513C9.33205 25.0745 9.39364 25.1669 9.48604 25.2593C9.57844 25.3517 9.67083 25.4133 9.76323 25.4749C9.88642 25.5057 10.0096 25.5057 10.1328 25.5365Z" fill="#DC000C"/>
</g>
</g>
<defs>
<clipPath id="clip0_306_270">
<rect width="48" height="48" fill="white"/>
</clipPath>
</defs>
</svg>
