<svg width="48" height="48" viewBox="0 0 48 48" fill="none" xmlns="http://www.w3.org/2000/svg">
<g clip-path="url(#clip0_337_198)">
<path d="M33.6 19.2V2.4C33.6 1.76348 33.3471 1.15303 32.8971 0.702944C32.447 0.252856 31.8365 0 31.2 0L9.792 0C8.94399 0.00287168 8.13133 0.340066 7.5304 0.9384L0.9384 7.5304C0.340066 8.13133 0.00287168 8.94399 0 9.792L0 42.4C0 43.0365 0.252856 43.647 0.702944 44.0971C1.15303 44.5471 1.76348 44.8 2.4 44.8H24.5696C26.3619 46.2451 28.4747 47.2393 30.7307 47.699C32.9867 48.1587 35.3201 48.0705 37.5349 47.4419C39.7498 46.8132 41.7816 45.6625 43.4597 44.0862C45.1379 42.5099 46.4134 40.5541 47.1793 38.3828C47.9452 36.2116 48.1791 33.8883 47.8614 31.608C47.5437 29.3277 46.6836 27.1568 45.3534 25.2777C44.0231 23.3985 42.2615 21.8658 40.2164 20.8083C38.1713 19.7508 35.9024 19.1992 33.6 19.2ZM8 2.7312V7.2C8 7.41217 7.91572 7.61566 7.76569 7.76569C7.61566 7.91571 7.41217 8 7.2 8H2.7312L8 2.7312ZM1.6 42.4V9.792C1.60239 9.72766 1.60881 9.66354 1.6192 9.6H7.2C7.83652 9.6 8.44697 9.34714 8.89706 8.89706C9.34715 8.44697 9.6 7.83652 9.6 7.2V1.6192C9.66354 1.60881 9.72766 1.60239 9.792 1.6H31.2C31.4122 1.6 31.6157 1.68429 31.7657 1.83431C31.9157 1.98434 32 2.18783 32 2.4V19.2944C29.3706 19.5831 26.872 20.5921 24.7794 22.2101C22.6868 23.8281 21.0814 25.9923 20.1401 28.4643C19.1989 30.9364 18.9583 33.6202 19.4448 36.2203C19.9313 38.8203 21.1262 41.2356 22.8976 43.2H2.4C2.18783 43.2 1.98434 43.1157 1.83431 42.9657C1.68429 42.8157 1.6 42.6122 1.6 42.4ZM33.6 46.4C31.0684 46.4 28.5937 45.6493 26.4887 44.2428C24.3838 42.8363 22.7431 40.8372 21.7743 38.4983C20.8055 36.1595 20.5521 33.5858 21.0459 31.1028C21.5398 28.6199 22.7589 26.3391 24.549 24.549C26.3391 22.7589 28.6199 21.5398 31.1028 21.0459C33.5858 20.5521 36.1595 20.8055 38.4984 21.7743C40.8372 22.7431 42.8363 24.3838 44.2428 26.4887C45.6493 28.5937 46.4 31.0684 46.4 33.6C46.396 36.9935 45.0461 40.2469 42.6465 42.6465C40.2469 45.0461 36.9935 46.396 33.6 46.4Z" fill="#DC000C"/>
<g clip-path="url(#clip1_337_198)">
<path d="M37.5833 31.2502C37.2917 31.0835 36.9167 31.0835 36.5833 31.2502L34.25 32.6252L32.6667 33.5002L30.375 34.8752C30.0833 35.0418 29.7083 35.0418 29.375 34.8752L27.5833 33.7918C27.2917 33.6252 27.0833 33.2918 27.0833 32.9168V30.8335C27.0833 30.5002 27.25 30.1668 27.5833 29.9585L29.375 28.9168C29.6667 28.7502 30.0417 28.7502 30.375 28.9168L32.1667 30.0002C32.4583 30.1668 32.6667 30.5002 32.6667 30.8752V32.2502L34.25 31.3335V29.9168C34.25 29.5835 34.0833 29.2502 33.75 29.0418L30.4167 27.0835C30.125 26.9168 29.75 26.9168 29.4167 27.0835L26 29.0835C25.6667 29.2502 25.5 29.5835 25.5 29.9168V33.8335C25.5 34.1668 25.6667 34.5002 26 34.7085L29.375 36.6668C29.6667 36.8335 30.0417 36.8335 30.375 36.6668L32.6667 35.3335L34.25 34.4168L36.5417 33.0835C36.8333 32.9168 37.2083 32.9168 37.5417 33.0835L39.3333 34.1252C39.625 34.2918 39.8333 34.6252 39.8333 35.0002V37.0835C39.8333 37.4168 39.6667 37.7502 39.3333 37.9585L37.5833 39.0002C37.2917 39.1668 36.9167 39.1668 36.5833 39.0002L34.7917 37.9585C34.5 37.7918 34.2917 37.4585 34.2917 37.0835V35.7502L32.7083 36.6668V38.0418C32.7083 38.3752 32.875 38.7085 33.2083 38.9168L36.5833 40.8752C36.875 41.0418 37.25 41.0418 37.5833 40.8752L40.9583 38.9168C41.25 38.7502 41.4583 38.4168 41.4583 38.0418V34.0835C41.4583 33.7502 41.2917 33.4168 40.9583 33.2085L37.5833 31.2502Z" fill="#DC000C"/>
</g>
</g>
<defs>
<clipPath id="clip0_337_198">
<rect width="48" height="48" fill="white"/>
</clipPath>
<clipPath id="clip1_337_198">
<rect width="16" height="13.9583" fill="white" transform="translate(25.5 27)"/>
</clipPath>
</defs>
</svg>
