<svg width="48" height="48" viewBox="0 0 48 48" fill="none" xmlns="http://www.w3.org/2000/svg">
<g id="Frame 36">
<g id="Group 76">
<path id="Vector" d="M34.1736 24.662H14.6665V11.6516C14.6665 9.11777 15.6731 6.68772 17.4648 4.89604C19.2564 3.10436 21.6865 2.0978 24.2203 2.0978C26.7541 2.0978 29.1842 3.10436 30.9759 4.89604C32.7675 6.68772 33.7741 9.11777 33.7741 11.6516V20.6001C33.7741 20.8783 33.8846 21.145 34.0813 21.3417C34.278 21.5385 34.5448 21.649 34.823 21.649C35.1012 21.649 35.368 21.5385 35.5647 21.3417C35.7614 21.145 35.8719 20.8783 35.8719 20.6001V11.6516C35.8719 8.5614 34.6443 5.59777 32.4592 3.41267C30.2741 1.22758 27.3105 0 24.2203 0C21.1301 0 18.1665 1.22758 15.9814 3.41267C13.7963 5.59777 12.5687 8.5614 12.5687 11.6516V24.9617C11.5319 25.3098 10.6301 25.9739 9.99 26.8608C9.34993 27.7477 9.00372 28.8128 9 29.9065V42.7555C9.00163 44.1459 9.5547 45.4789 10.5379 46.4621C11.5211 47.4453 12.8541 47.9984 14.2445 48H34.1736C35.564 47.9984 36.897 47.4453 37.8802 46.4621C38.8634 45.4789 39.4164 44.1459 39.4181 42.7555V29.9065C39.4164 28.5161 38.8634 27.1831 37.8802 26.1999C36.897 25.2167 35.564 24.6636 34.1736 24.662ZM37.3203 42.7555C37.3194 43.5898 36.9875 44.3896 36.3976 44.9796C35.8077 45.5695 35.0079 45.9013 34.1736 45.9022H14.2445C13.4102 45.9013 12.6104 45.5695 12.0205 44.9796C11.4305 44.3896 11.0987 43.5898 11.0978 42.7555V29.9065C11.0987 29.0722 11.4305 28.2724 12.0205 27.6824C12.6104 27.0925 13.4102 26.7607 14.2445 26.7598H34.1736C35.0079 26.7607 35.8077 27.0925 36.3976 27.6824C36.9875 28.2724 37.3194 29.0722 37.3203 29.9065V42.7555Z" fill="#DC000C"/>
<path id="Vector_2" d="M24.2121 30.1509C23.228 30.1484 22.2767 30.5044 21.536 31.1523C20.7953 31.8002 20.3159 32.6957 20.1874 33.6713C20.0589 34.647 20.2901 35.636 20.8377 36.4536C21.3854 37.2712 22.2121 37.8614 23.1632 38.1139V41.8896C23.1632 42.1677 23.2737 42.4345 23.4704 42.6312C23.6671 42.8279 23.9339 42.9385 24.2121 42.9385C24.4903 42.9385 24.7571 42.8279 24.9538 42.6312C25.1505 42.4345 25.261 42.1677 25.261 41.8896V38.1139C26.2119 37.8612 27.0383 37.2709 27.5857 36.4534C28.1332 35.6358 28.3642 34.6469 28.2358 33.6715C28.1073 32.696 27.628 31.8006 26.8875 31.1528C26.147 30.5049 25.196 30.1487 24.2121 30.1509ZM24.2121 36.1708C23.8242 36.1709 23.445 36.056 23.1225 35.8405C22.7999 35.6251 22.5485 35.3189 22.4 34.9606C22.2515 34.6022 22.2126 34.2079 22.2882 33.8275C22.3638 33.447 22.5505 33.0976 22.8247 32.8233C23.099 32.5489 23.4484 32.3621 23.8288 32.2864C24.2092 32.2107 24.6036 32.2495 24.9619 32.3979C25.3203 32.5463 25.6266 32.7977 25.8421 33.1202C26.0576 33.4427 26.1726 33.8219 26.1726 34.2097C26.172 34.7295 25.9652 35.2279 25.5977 35.5955C25.2302 35.9631 24.7319 36.17 24.2121 36.1708Z" fill="#DC000C"/>
</g>
</g>
</svg>
