<svg width="14" height="14" viewBox="0 0 14 14" fill="none" xmlns="http://www.w3.org/2000/svg">
<g clip-path="url(#clip0)">
<path d="M13.2783 5.35681L13.2784 5.35682C13.3751 5.36557 13.4575 5.43089 13.4879 5.52447C13.5184 5.61894 13.49 5.72052 13.4166 5.78497L10.3617 8.46363L10.1379 8.65993L10.2038 8.95028L11.1044 12.917C11.1265 13.0146 11.0887 13.113 11.0099 13.1699L11.0094 13.1702C10.93 13.2278 10.8248 13.2324 10.7408 13.1821L7.25665 11.0985L7.00004 10.9451L6.74343 11.0985L3.25853 13.1822L3.25839 13.1823C3.21958 13.2055 3.17664 13.2169 3.13359 13.2169C3.0831 13.2169 3.03368 13.2015 2.99117 13.1706L2.99017 13.1699C2.9114 13.113 2.87361 13.0147 2.89558 12.9172C2.89559 12.9171 2.8956 12.9171 2.89561 12.917L3.79625 8.95028L3.86217 8.65993L3.63831 8.46363L0.583373 5.78489C0.583362 5.78488 0.58335 5.78487 0.583338 5.78486C0.510026 5.72054 0.481743 5.61866 0.511967 5.525C0.54298 5.43107 0.625565 5.36576 0.722323 5.35676C0.722386 5.35675 0.722449 5.35675 0.722512 5.35674L4.76379 4.98991L5.06113 4.96292L5.17841 4.68835L6.77559 0.949032L6.77569 0.948793C6.81426 0.858354 6.90168 0.800598 7.00002 0.800598C7.09795 0.800598 7.1859 0.858058 7.22531 0.949533C7.22535 0.949639 7.2254 0.949744 7.22544 0.94985L8.82227 4.68835L8.93955 4.96291L9.23688 4.9899L13.2783 5.35681Z" stroke="#F5C418"/>
</g>
<defs>
<clipPath id="clip0">
<rect width="14" height="14" fill="white"/>
</clipPath>
</defs>
</svg>
