<svg width="16" height="16" viewBox="0 0 16 16" fill="none" xmlns="http://www.w3.org/2000/svg">
<path d="M8 0.5C6.51664 0.5 5.0666 0.939867 3.83323 1.76398C2.59986 2.58809 1.63856 3.75943 1.07091 5.12987C0.50325 6.50032 0.354725 8.00832 0.644114 9.46318C0.933503 10.918 1.64781 12.2544 2.6967 13.3033C3.7456 14.3522 5.08197 15.0665 6.53683 15.3559C7.99168 15.6453 9.49968 15.4968 10.8701 14.9291C12.2406 14.3614 13.4119 13.4001 14.236 12.1668C15.0601 10.9334 15.5 9.48336 15.5 8C15.5 7.01509 15.306 6.03982 14.9291 5.12987C14.5522 4.21993 13.9997 3.39314 13.3033 2.6967C12.6069 2.00026 11.7801 1.44781 10.8701 1.0709C9.96019 0.693993 8.98492 0.5 8 0.5ZM8 14C6.81332 14 5.65328 13.6481 4.66658 12.9888C3.67989 12.3295 2.91085 11.3925 2.45673 10.2961C2.0026 9.19974 1.88378 7.99334 2.11529 6.82946C2.3468 5.66557 2.91825 4.59647 3.75736 3.75736C4.59648 2.91824 5.66558 2.3468 6.82946 2.11529C7.99335 1.88378 9.19975 2.0026 10.2961 2.45672C11.3925 2.91085 12.3295 3.67988 12.9888 4.66658C13.6481 5.65327 14 6.81331 14 8C14 9.5913 13.3679 11.1174 12.2426 12.2426C11.1174 13.3679 9.5913 14 8 14ZM8 3.5C7.80109 3.5 7.61033 3.57902 7.46967 3.71967C7.32902 3.86032 7.25 4.05109 7.25 4.25V7.565L5.675 8.4725C5.53052 8.55437 5.4173 8.68188 5.35309 8.83503C5.28888 8.98818 5.27732 9.15832 5.32021 9.31875C5.36311 9.47918 5.45804 9.62084 5.59011 9.7215C5.72219 9.82217 5.88394 9.87616 6.05 9.875C6.18138 9.87591 6.3107 9.84229 6.425 9.7775L8.375 8.6525L8.4425 8.585L8.5625 8.4875C8.59183 8.45037 8.61698 8.41013 8.6375 8.3675C8.66195 8.32724 8.68206 8.2845 8.6975 8.24C8.7179 8.19231 8.73056 8.14168 8.735 8.09L8.75 8V4.25C8.75 4.05109 8.67099 3.86032 8.53033 3.71967C8.38968 3.57902 8.19892 3.5 8 3.5Z" fill="#030D2F"/>
</svg>
