<svg width="28" height="28" viewBox="0 0 28 28" fill="none" xmlns="http://www.w3.org/2000/svg">
<path d="M23.3275 7.80249C24.3734 7.17726 25.1559 6.19277 25.529 5.03282C24.5463 5.61593 23.4711 6.02668 22.3498 6.24732C20.7954 4.60294 18.3324 4.20277 16.3373 5.27042C14.3422 6.33807 13.3088 8.60923 13.8145 10.8148C9.78906 10.6127 6.03865 8.71122 3.49652 5.58349C2.16983 7.87181 2.8478 10.7971 5.04585 12.2685C4.25101 12.2429 3.4738 12.0277 2.77902 11.6408C2.77902 11.6618 2.77902 11.6828 2.77902 11.7038C2.77948 14.0875 4.45945 16.1407 6.79585 16.6132C6.05859 16.8137 5.28526 16.8433 4.53485 16.6995C5.19192 18.738 7.07066 20.1345 9.21202 20.1762C7.43849 21.5681 5.24824 22.323 2.99368 22.3193C2.59407 22.3199 2.19476 22.2969 1.79785 22.2505C4.08731 23.7217 6.75195 24.5026 9.47335 24.4998C13.2595 24.5258 16.8981 23.0332 19.5752 20.3558C22.2523 17.6785 23.7447 14.0398 23.7183 10.2537C23.7183 10.0367 23.7133 9.82082 23.7032 9.60616C24.6837 8.89752 25.53 8.01966 26.2022 7.01382C25.2887 7.41873 24.3197 7.68457 23.3275 7.80249Z" fill="white"/>
</svg>
