<svg width="174" height="144" viewBox="0 0 174 144" fill="none" xmlns="http://www.w3.org/2000/svg">
<g id="01">
<path d="M18.007 72C18.007 77.3333 18.1403 83.3333 18.4071 90C18.8073 96.5333 19.8743 102.733 21.6083 108.6C23.4757 114.333 26.4102 119.2 30.4117 123.2C34.4133 127.2 40.0155 129.2 47.2182 129.2C54.421 129.2 60.0232 127.2 64.0247 123.2C68.0263 119.2 70.894 114.333 72.6281 108.6C74.4954 102.733 75.5625 96.5333 75.8293 90C76.2294 83.3333 76.4295 77.3333 76.4295 72C76.4295 68.5333 76.3628 64.7333 76.2294 60.6C76.2294 56.3333 75.896 52.1333 75.229 48C74.6955 43.7333 73.8285 39.6 72.6281 35.6C71.561 31.6 69.8937 28.1333 67.6261 25.2C65.492 22.1333 62.7576 19.6667 59.4229 17.8C56.0883 15.9333 52.0201 15 47.2182 15C42.4164 15 38.3481 15.9333 35.0135 17.8C31.6789 19.6667 28.8778 22.1333 26.6103 25.2C24.4761 28.1333 22.8088 31.6 21.6083 35.6C20.5413 39.6 19.6743 43.7333 19.0073 48C18.4738 52.1333 18.1403 56.3333 18.007 60.6C18.007 64.7333 18.007 68.5333 18.007 72ZM0 72.2C0 67 0.133385 61.6 0.400155 56C0.666924 50.4 1.33385 44.9333 2.40093 39.6C3.46801 34.2667 5.00193 29.2 7.00271 24.4C9.00348 19.6 11.7379 15.4 15.2059 11.8C18.6739 8.2 23.0089 5.33334 28.2109 3.20001C33.5463 1.06667 39.8821 0 47.2182 0C54.5544 0 60.8235 1.06667 66.0255 3.20001C71.3609 5.33334 75.7626 8.2 79.2306 11.8C82.6986 15.4 85.433 19.6 87.4338 24.4C89.4345 29.2 90.9685 34.2667 92.0355 39.6C93.1026 44.9333 93.7696 50.4 94.0363 56C94.3031 61.6 94.4365 67 94.4365 72.2C94.4365 77.4 94.3031 82.8 94.0363 88.4C93.7696 94 93.1026 99.4667 92.0355 104.8C90.9685 110.133 89.4345 115.2 87.4338 120C85.433 124.667 82.6986 128.8 79.2306 132.4C75.7626 136 71.4276 138.867 66.2256 141C61.0236 143 54.6878 144 47.2182 144C39.8821 144 33.5463 143 28.2109 141C23.0089 138.867 18.6739 136 15.2059 132.4C11.7379 128.8 9.00348 124.667 7.00271 120C5.00193 115.2 3.46801 110.133 2.40093 104.8C1.33385 99.4667 0.666924 94 0.400155 88.4C0.133385 82.8 0 77.4 0 72.2Z" fill="white" fill-opacity="0.03"/>
<path d="M174 141.8H156.993V40.2H120.179V26.6C124.981 26.6 129.65 26.2667 134.185 25.6C138.72 24.8 142.788 23.4 146.389 21.4C150.124 19.4 153.259 16.6667 155.793 13.2C158.327 9.73334 160.061 5.33334 160.995 0H174V141.8Z" fill="white" fill-opacity="0.03"/>
</g>
</svg>
