<svg width="201" height="144" viewBox="0 0 201 144" fill="none" xmlns="http://www.w3.org/2000/svg">
<g id="02">
<path d="M17.9524 72C17.9524 77.3333 18.0854 83.3333 18.3514 90C18.7503 96.5333 19.8141 102.733 21.5429 108.6C23.4046 114.333 26.3302 119.2 30.3196 123.2C34.3091 127.2 39.8943 129.2 47.0752 129.2C54.2562 129.2 59.8414 127.2 63.8308 123.2C67.8202 119.2 70.6793 114.333 72.4081 108.6C74.2698 102.733 75.3336 96.5333 75.5996 90C75.9985 83.3333 76.198 77.3333 76.198 72C76.198 68.5333 76.1315 64.7333 75.9985 60.6C75.9985 56.3333 75.6661 52.1333 75.0012 48C74.4693 43.7333 73.6049 39.6 72.4081 35.6C71.3442 31.6 69.682 28.1333 67.4213 25.2C65.2936 22.1333 62.5675 19.6667 59.243 17.8C55.9184 15.9333 51.8625 15 47.0752 15C42.2879 15 38.232 15.9333 34.9075 17.8C31.5829 19.6667 28.7903 22.1333 26.5297 25.2C24.402 28.1333 22.7397 31.6 21.5429 35.6C20.479 39.6 19.6147 43.7333 18.9498 48C18.4178 52.1333 18.0854 56.3333 17.9524 60.6C17.9524 64.7333 17.9524 68.5333 17.9524 72ZM0 72.2C0 67 0.132981 61.6 0.398943 56C0.664904 50.4 1.32981 44.9333 2.39365 39.6C3.4575 34.2667 4.98678 29.2 6.98149 24.4C8.97621 19.6 11.7023 15.4 15.1598 11.8C18.6173 8.2 22.9392 5.33334 28.1254 3.20001C33.4447 1.06667 39.7613 0 47.0752 0C54.3892 0 60.6393 1.06667 65.8255 3.20001C71.1447 5.33334 75.5331 8.2 78.9906 11.8C82.4481 15.4 85.1742 19.6 87.1689 24.4C89.1637 29.2 90.6929 34.2667 91.7568 39.6C92.8206 44.9333 93.4855 50.4 93.7515 56C94.0174 61.6 94.1504 67 94.1504 72.2C94.1504 77.4 94.0174 82.8 93.7515 88.4C93.4855 94 92.8206 99.4667 91.7568 104.8C90.6929 110.133 89.1637 115.2 87.1689 120C85.1742 124.667 82.4481 128.8 78.9906 132.4C75.5331 136 71.2112 138.867 66.025 141C60.8387 143 54.5221 144 47.0752 144C39.7613 144 33.4447 143 28.1254 141C22.9392 138.867 18.6173 136 15.1598 132.4C11.7023 128.8 8.97621 124.667 6.98149 120C4.98678 115.2 3.4575 110.133 2.39365 104.8C1.32981 99.4667 0.664904 94 0.398943 88.4C0.132981 82.8 0 77.4 0 72.2Z" fill="white" fill-opacity="0.03"/>
<path d="M111.238 50.2C110.839 43 111.57 36.3333 113.432 30.2C115.294 24.0667 118.153 18.8 122.009 14.4C125.999 9.86667 130.919 6.33334 136.77 3.8C142.621 1.26667 149.27 0 156.717 0C162.835 0 168.553 0.933333 173.872 2.8C179.324 4.53333 184.045 7.13334 188.034 10.6C192.024 13.9333 195.149 18.1333 197.41 23.2C199.803 28.2667 201 34.1333 201 40.8C201 47.0667 200.003 52.6 198.008 57.4C196.146 62.2 193.62 66.5333 190.428 70.4C187.236 74.1333 183.58 77.5333 179.457 80.6C175.335 83.6667 171.079 86.6 166.691 89.4C162.303 92.0667 157.914 94.7333 153.526 97.4C149.137 99.9333 145.082 102.667 141.358 105.6C137.768 108.533 134.643 111.733 131.983 115.2C129.456 118.533 127.794 122.4 126.996 126.8H199.604V141.8H107.249C107.913 133.4 109.376 126.267 111.637 120.4C114.031 114.4 117.023 109.2 120.613 104.8C124.204 100.4 128.259 96.5333 132.781 93.2C137.302 89.8667 142.023 86.7333 146.943 83.8C152.927 80.0667 158.18 76.6667 162.702 73.6C167.223 70.4 170.946 67.2 173.872 64C176.93 60.8 179.191 57.3333 180.654 53.6C182.25 49.8667 183.048 45.5333 183.048 40.6C183.048 36.7333 182.316 33.2667 180.853 30.2C179.391 27 177.396 24.2667 174.869 22C172.476 19.7333 169.617 18 166.292 16.8C162.967 15.6 159.443 15 155.72 15C150.8 15 146.544 16.0667 142.954 18.2C139.496 20.2 136.637 22.8667 134.377 26.2C132.116 29.5333 130.454 33.3333 129.39 37.6C128.459 41.7333 128.06 45.9333 128.193 50.2H111.238Z" fill="white" fill-opacity="0.03"/>
</g>
</svg>
