<svg width="16" height="16" viewBox="0 0 16 16" fill="none" xmlns="http://www.w3.org/2000/svg">
<path d="M2.33491 15.9396H7.53397V10.2736H5.66604V8.40567H7.53397V6.07076C7.53397 4.78328 8.58139 3.73585 9.86888 3.73585H12.2038V5.60378H10.3359C9.82084 5.60378 9.40189 6.02272 9.40189 6.53774V8.40567H12.1195L11.8082 10.2736H9.40189V15.9396H13.6047C14.8922 15.9396 15.9396 14.8922 15.9396 13.6047V2.33491C15.9396 1.04742 14.8922 0 13.6047 0H2.33491C1.04742 0 0 1.04742 0 2.33491V13.6047C0 14.8922 1.04742 15.9396 2.33491 15.9396ZM0.933963 2.33491C0.933963 1.56244 1.56244 0.933963 2.33491 0.933963H13.6047C14.3772 0.933963 15.0057 1.56244 15.0057 2.33491V13.6047C15.0057 14.3772 14.3772 15.0057 13.6047 15.0057H10.3359V11.2076H12.5994L13.222 7.4717H10.3359V6.53774H13.1377V2.80189H9.86888C8.06638 2.80189 6.60001 4.26826 6.60001 6.07076V7.4717H4.73208V11.2076H6.60001V15.0057H2.33491C1.56244 15.0057 0.933963 14.3772 0.933963 13.6047V2.33491Z" fill="#828282"/>
</svg>
