<svg width="17" height="16" viewBox="0 0 17 16" fill="none" xmlns="http://www.w3.org/2000/svg">
<path d="M16.0518 0H0.112152V15.9396H16.0518V0Z" fill="#828282"/>
<path d="M12.6631 3.51941L2.0041 7.67312C1.65885 7.80767 1.67977 8.30311 2.03516 8.40804L4.74374 9.20787L5.75458 12.4154C5.86017 12.7504 6.28474 12.852 6.53052 12.601L7.93092 11.1711L10.6786 13.188C11.0149 13.4349 11.4938 13.2515 11.5792 12.8432L13.399 4.14258C13.4881 3.71639 13.0688 3.36132 12.6631 3.51941ZM11.3268 5.45029L6.37571 9.82852C6.32636 9.87217 6.29496 9.93257 6.28761 9.99804L6.09699 11.6926C6.09076 11.7478 6.01343 11.7551 5.99692 11.702L5.21266 9.17492C5.17674 9.05922 5.22357 8.93386 5.32651 8.87003L11.1732 5.24386C11.3076 5.16041 11.4453 5.3455 11.3268 5.45029Z" fill="#F2F2F2"/>
</svg>
