<svg width="21" height="16" viewBox="0 0 21 16" fill="none" xmlns="http://www.w3.org/2000/svg">
<path d="M20.3806 2.12875C19.1201 2.18521 19.1476 2.1806 19.0052 2.19219L19.7517 0.12019C19.7517 0.12019 17.4215 0.9533 16.8307 1.10233C15.2793 -0.252904 12.9732 -0.312783 11.3246 0.672031C9.97448 1.47869 9.24983 2.86394 9.49153 4.48306C6.86397 4.12869 4.6501 2.91817 2.90221 0.877522L2.3494 0.232223L1.93631 0.969496C1.41422 1.90112 1.24086 2.96631 1.44801 3.96881C1.53301 4.38009 1.67749 4.77235 1.87761 5.13965L1.40337 4.96105L1.34711 5.73116C1.29009 6.51346 1.55809 7.42665 2.06412 8.17373C2.20661 8.38413 2.39006 8.61518 2.6226 8.8431L2.37753 8.80655L2.67656 9.68899C3.06962 10.8484 3.886 11.7454 4.94547 12.244C3.88738 12.6804 3.03262 12.9589 1.62765 13.408L0.342224 13.8187L1.5295 14.4496C1.98218 14.6902 3.58177 15.4936 5.16225 15.7346C8.67545 16.2701 12.6309 15.834 15.2938 13.5031C17.5367 11.5399 18.2727 8.74727 18.1198 5.84112C18.0967 5.40116 18.2207 4.98126 18.469 4.65898C18.9663 4.01368 20.3776 2.13306 20.3806 2.12875ZM17.5302 3.9755C17.1178 4.51055 16.9113 5.19388 16.9483 5.89936C17.1026 8.83077 16.2819 11.1041 14.5089 12.6559C12.4379 14.4688 9.09725 15.1804 5.34403 14.6082C4.66432 14.5046 3.96183 14.2727 3.38043 14.041C4.55837 13.6471 5.46801 13.296 6.93705 12.6203L8.98779 11.6769L6.72362 11.536C5.63909 11.4686 4.73602 10.9577 4.18091 10.1284C4.47566 10.1117 4.75987 10.0654 5.04285 9.98869L7.20229 9.40416L5.02481 8.8859C3.96672 8.63405 3.36361 8.01876 3.04393 7.54686C2.83403 7.23676 2.6969 6.91909 2.61465 6.62623C2.83296 6.68314 3.08751 6.7237 3.49799 6.76323L5.51342 6.95698L3.91658 5.74632C2.766 4.87413 2.30491 3.56377 2.64293 2.30408C6.23379 5.92388 10.4499 5.65182 10.8743 5.74751C10.7809 4.86566 10.7785 4.86358 10.754 4.77963C10.2105 2.91238 11.4016 1.96426 11.9388 1.64332C13.061 0.973062 14.8422 0.872025 16.076 1.9763C16.3424 2.21463 16.7028 2.30838 17.04 2.22696C17.3427 2.15386 17.5912 2.07645 17.8344 1.9922L17.3281 3.3975L17.9744 3.39795C17.8524 3.55694 17.7061 3.74727 17.5302 3.9755Z" fill="#828282"/>
</svg>
