<svg width="17" height="16" viewBox="0 0 17 16" fill="none" xmlns="http://www.w3.org/2000/svg">
<path d="M3.00602 15.9396H14.2758C15.5633 15.9396 16.6107 14.8922 16.6107 13.6047V2.33491C16.6107 1.04742 15.5633 0 14.2758 0H3.00602C1.71854 0 0.671112 1.04742 0.671112 2.33491V13.6047C0.671112 14.8922 1.71854 15.9396 3.00602 15.9396ZM1.60508 2.33491C1.60508 1.56244 2.23355 0.933963 3.00602 0.933963H14.2758C15.0483 0.933963 15.6768 1.56244 15.6768 2.33491V13.6047C15.6768 14.3772 15.0483 15.0057 14.2758 15.0057H3.00602C2.23355 15.0057 1.60508 14.3772 1.60508 13.6047V2.33491Z" fill="#828282"/>
<path d="M8.64093 12.1727C10.9583 12.1727 12.8438 10.2872 12.8438 7.96982C12.8438 5.65242 10.9583 3.76698 8.64093 3.76698C6.32353 3.76698 4.4381 5.65242 4.4381 7.96982C4.4381 10.2872 6.32353 12.1727 8.64093 12.1727ZM8.64093 4.70095C10.4434 4.70095 11.9098 6.16732 11.9098 7.96982C11.9098 9.77232 10.4434 11.2387 8.64093 11.2387C6.83843 11.2387 5.37206 9.77232 5.37206 7.96982C5.37206 6.16732 6.83843 4.70095 8.64093 4.70095Z" fill="#828282"/>
<path d="M13.3107 4.70095C14.0832 4.70095 14.7117 4.07247 14.7117 3.3C14.7117 2.52754 14.0832 1.89906 13.3107 1.89906C12.5383 1.89906 11.9098 2.52754 11.9098 3.3C11.9098 4.07247 12.5383 4.70095 13.3107 4.70095ZM13.3107 2.83302C13.5682 2.83302 13.7777 3.04255 13.7777 3.3C13.7777 3.55745 13.5682 3.76698 13.3107 3.76698C13.0533 3.76698 12.8438 3.55745 12.8438 3.3C12.8438 3.04255 13.0533 2.83302 13.3107 2.83302Z" fill="#828282"/>
</svg>
