<svg width="32" height="28" viewBox="0 0 32 28" fill="none" xmlns="http://www.w3.org/2000/svg">
<path d="M6 3C6 4.65685 4.65685 6 3 6C1.34315 6 0 4.65685 0 3C0 1.34315 1.34315 0 3 0C4.65685 0 6 1.34315 6 3Z" fill="#FDFDFD"/>
<path d="M19 3C19 4.65685 17.6569 6 16 6C14.3431 6 13 4.65685 13 3C13 1.34315 14.3431 0 16 0C17.6569 0 19 1.34315 19 3Z" fill="#FDFDFD"/>
<path d="M32 3C32 4.65685 30.6569 6 29 6C27.3431 6 26 4.65685 26 3C26 1.34315 27.3431 0 29 0C30.6569 0 32 1.34315 32 3Z" fill="#FDFDFD"/>
<path d="M6 14C6 15.6569 4.65685 17 3 17C1.34315 17 0 15.6569 0 14C0 12.3431 1.34315 11 3 11C4.65685 11 6 12.3431 6 14Z" fill="#FDFDFD"/>
<path d="M19 14C19 15.6569 17.6569 17 16 17C14.3431 17 13 15.6569 13 14C13 12.3431 14.3431 11 16 11C17.6569 11 19 12.3431 19 14Z" fill="#FDFDFD"/>
<path d="M32 14C32 15.6569 30.6569 17 29 17C27.3431 17 26 15.6569 26 14C26 12.3431 27.3431 11 29 11C30.6569 11 32 12.3431 32 14Z" fill="#FDFDFD"/>
<path d="M6 25C6 26.6569 4.65685 28 3 28C1.34315 28 0 26.6569 0 25C0 23.3431 1.34315 22 3 22C4.65685 22 6 23.3431 6 25Z" fill="#FDFDFD"/>
<path d="M19 25C19 26.6569 17.6569 28 16 28C14.3431 28 13 26.6569 13 25C13 23.3431 14.3431 22 16 22C17.6569 22 19 23.3431 19 25Z" fill="#FDFDFD"/>
<path d="M32 25C32 26.6569 30.6569 28 29 28C27.3431 28 26 26.6569 26 25C26 23.3431 27.3431 22 29 22C30.6569 22 32 23.3431 32 25Z" fill="#FDFDFD"/>
</svg>
