<svg width="19" height="19" viewBox="0 0 19 19" fill="none" xmlns="http://www.w3.org/2000/svg">
<path d="M13.3791 0H5.75294C2.65358 0 0.13208 2.5215 0.13208 5.62086V13.2471C0.13208 16.3464 2.65358 18.8679 5.75294 18.8679H13.3791C16.4785 18.8679 19 16.3464 19 13.2471V5.62086C19 2.5215 16.4785 0 13.3791 0ZM17.1019 13.2471C17.1019 15.3031 15.4351 16.9698 13.3791 16.9698H5.75294C3.69694 16.9698 2.03019 15.3031 2.03019 13.2471V5.62086C2.03019 3.56482 3.69694 1.89811 5.75294 1.89811H13.3791C15.4351 1.89811 17.1019 3.56482 17.1019 5.62086V13.2471Z" fill="#F2F2F2"/>
<path d="M9.56604 4.55405C6.87525 4.55405 4.68612 6.74318 4.68612 9.43393C4.68612 12.1247 6.87525 14.3138 9.56604 14.3138C12.2568 14.3138 14.446 12.1247 14.446 9.43393C14.446 6.74314 12.2568 4.55405 9.56604 4.55405ZM9.56604 12.4158C7.91922 12.4158 6.58424 11.0808 6.58424 9.43397C6.58424 7.78715 7.91926 6.45216 9.56604 6.45216C11.2129 6.45216 12.5478 7.78715 12.5478 9.43397C12.5478 11.0808 11.2128 12.4158 9.56604 12.4158Z" fill="#F2F2F2"/>
<path d="M14.4554 5.76001C15.1012 5.76001 15.6248 5.23648 15.6248 4.59068C15.6248 3.94488 15.1012 3.42135 14.4554 3.42135C13.8096 3.42135 13.2861 3.94488 13.2861 4.59068C13.2861 5.23648 13.8096 5.76001 14.4554 5.76001Z" fill="#F2F2F2"/>
</svg>
