<svg width="118" height="37" viewBox="0 0 118 37" fill="none" xmlns="http://www.w3.org/2000/svg">
<path fill-rule="evenodd" clip-rule="evenodd" d="M14.4874 15.239C13.2219 17.7344 10.6427 19.4469 7.68995 19.4469C3.47169 19.4469 0.0368195 15.9607 0.0368195 11.6795C0.0368195 7.39815 3.47169 3.91195 7.68995 3.91195C10.6548 3.91195 13.2219 5.62447 14.4994 8.11986L11.3659 10.3706C10.8356 8.82933 9.38931 7.72843 7.68995 7.72843C5.54466 7.72843 3.7971 9.50211 3.7971 11.6795C3.7971 13.8568 5.54466 15.6305 7.68995 15.6305C9.38931 15.6305 10.8356 14.5296 11.3659 12.9883L14.4874 15.239Z" fill="white"/>
<mask id="mask0" mask-type="alpha" maskUnits="userSpaceOnUse" x="0" y="3" width="15" height="17">
<path fill-rule="evenodd" clip-rule="evenodd" d="M14.4506 15.2392C13.1851 17.7346 10.6059 19.4471 7.65313 19.4471C3.43487 19.4471 0 15.9609 0 11.6796C0 7.39831 3.43487 3.91211 7.65313 3.91211C10.618 3.91211 13.1851 5.62463 14.4626 8.12001L11.329 10.3708C10.7987 8.82949 9.35249 7.72858 7.65313 7.72858C5.50784 7.72858 3.76028 9.50226 3.76028 11.6796C3.76028 13.857 5.50784 15.6306 7.65313 15.6306C9.35249 15.6306 10.7987 14.5297 11.329 12.9885L14.4506 15.2392Z" fill="#030D2F"/>
</mask>
<g mask="url(#mask0)">
<path fill-rule="evenodd" clip-rule="evenodd" d="M7.45583 7.89333C5.91436 7.85518 0.41266 11.9 3.11965 18.4252C1.22726 17.3186 -3.9486 18.8958 -0.489669 9.92847L-1.392 7.53718L6.01462 1.69888L18.0453 7.09199L12.0803 11.493C12.0677 11.493 9.31062 7.93149 7.45583 7.89333Z" fill="url(#paint0_linear)"/>
</g>
<mask id="mask1" mask-type="alpha" maskUnits="userSpaceOnUse" x="0" y="3" width="15" height="17">
<path fill-rule="evenodd" clip-rule="evenodd" d="M14.4506 15.2392C13.1851 17.7346 10.6059 19.4471 7.65313 19.4471C3.43487 19.4471 0 15.9609 0 11.6796C0 7.39831 3.43487 3.91211 7.65313 3.91211C10.618 3.91211 13.1851 5.62463 14.4626 8.12001L11.329 10.3708C10.7987 8.82949 9.35249 7.72858 7.65313 7.72858C5.50784 7.72858 3.76028 9.50226 3.76028 11.6796C3.76028 13.857 5.50784 15.6306 7.65313 15.6306C9.35249 15.6306 10.7987 14.5297 11.329 12.9885L14.4506 15.2392Z" fill="black"/>
</mask>
<g mask="url(#mask1)">
<path fill-rule="evenodd" clip-rule="evenodd" d="M7.45583 7.89333C5.91436 7.85518 0.41266 11.9 3.11965 18.4252C1.22726 17.3186 -3.9486 18.8958 -0.489669 9.92847L-1.392 7.53718L6.01462 1.69888L18.0453 7.09199L12.0803 11.493C12.0677 11.493 9.31062 7.93149 7.45583 7.89333Z" fill="url(#paint1_linear)"/>
</g>
<path d="M14.5449 3.48382H18.5889V6.2851H18.6749C19.2199 4.29434 20.4723 3.29896 22.4321 3.29896C22.9005 3.29896 23.2925 3.3511 23.608 3.45538V7.13828C23.2352 6.96764 22.7332 6.88232 22.1023 6.88232C21.0411 6.88232 20.2141 7.19042 19.6214 7.8066C19.0287 8.42279 18.7323 9.28071 18.7323 10.3804V19.1397H14.5449V3.48382Z" fill="#2858FF"/>
<path d="M27.4656 24.856C26.6147 24.856 26.0841 24.837 25.8738 24.7991V21.5855C26.0172 21.6139 26.3327 21.6281 26.8202 21.6281C28.369 21.6281 29.3011 21.0309 29.6166 19.8364L29.76 19.2392L24.2246 3.48382H28.8135L32.2265 15.7696H32.3126L35.7399 3.48382H40.1567L34.6931 19.4525C34.0239 21.4433 33.1443 22.8415 32.0545 23.6473C30.9741 24.4531 29.4445 24.856 27.4656 24.856Z" fill="#2858FF"/>
<path d="M50.8546 3.29896C52.8623 3.29896 54.4445 4.00995 55.6013 5.43192C56.758 6.86336 57.3364 8.82094 57.3364 11.3046C57.3364 13.7883 56.7628 15.7459 55.6156 17.1774C54.4588 18.6088 52.8909 19.3245 50.912 19.3245C48.5506 19.3245 46.9158 18.386 46.0076 16.509H45.9215V24.0597H41.7342V3.48382H45.8642V6.15712H45.9502C46.3709 5.2755 47.0162 4.57874 47.8862 4.06683C48.7561 3.55492 49.7456 3.29896 50.8546 3.29896ZM49.4636 15.9687C50.5535 15.9687 51.4234 15.5468 52.0735 14.7031C52.7236 13.8594 53.0487 12.7266 53.0487 11.3046C53.0487 9.90163 52.7236 8.77354 52.0735 7.92036C51.4139 7.07666 50.5439 6.65481 49.4636 6.65481C48.3929 6.65481 47.5324 7.0814 46.8823 7.93458C46.2323 8.78776 45.9072 9.91585 45.9072 11.3189C45.9072 12.7219 46.2323 13.85 46.8823 14.7031C47.5324 15.5468 48.3929 15.9687 49.4636 15.9687Z" fill="#2858FF"/>
<path d="M64.8794 0V3.48382H67.8049V6.62637H64.8794V14.2339C64.8794 15.4283 65.5056 16.0256 66.758 16.0256C67.1691 16.0256 67.5181 16.0019 67.8049 15.9545V19.0259C67.2313 19.1397 66.5573 19.1966 65.7829 19.1966C63.9569 19.1966 62.6519 18.8648 61.868 18.2012C61.084 17.5376 60.6921 16.4427 60.6921 14.9164V6.62637H58.5554V3.48382H60.6921V0H64.8794Z" fill="#2858FF"/>
<path d="M77.1834 19.4099C74.7838 19.4099 72.8861 18.6894 71.4903 17.2485C70.0945 15.8075 69.3966 13.8263 69.3966 11.3046C69.3966 8.81146 70.0993 6.83492 71.5047 5.37504C72.91 3.93411 74.8029 3.21365 77.1834 3.21365C79.5735 3.21365 81.4664 3.93411 82.8622 5.37504C84.2676 6.82544 84.9702 8.80198 84.9702 11.3046C84.9702 13.8357 84.2723 15.8218 82.8766 17.2627C81.4903 18.6941 79.5926 19.4099 77.1834 19.4099ZM77.1834 16.2104C78.2924 16.2104 79.1576 15.7838 79.779 14.9307C80.4005 14.068 80.7112 12.8593 80.7112 11.3046C80.7112 9.76892 80.3957 8.56498 79.7647 7.69284C79.1433 6.83018 78.2829 6.39885 77.1834 6.39885C76.0745 6.39885 75.2093 6.83018 74.5878 7.69284C73.9569 8.56498 73.6414 9.76892 73.6414 11.3046C73.6414 12.8593 73.9569 14.068 74.5878 14.9307C75.2093 15.7838 76.0745 16.2104 77.1834 16.2104Z" fill="#2858FF"/>
<path d="M56.3057 34.1472C56.9819 34.1472 57.5464 33.9689 57.9994 33.6123C58.4655 33.2494 58.6986 32.7896 58.6986 32.2327V31.4726L56.4238 31.6227C55.1962 31.6978 54.5824 32.1264 54.5824 32.9084C54.5824 33.2901 54.7399 33.5904 55.0551 33.8094C55.3636 34.0346 55.7805 34.1472 56.3057 34.1472ZM55.3702 36.1461C54.3132 36.1461 53.4434 35.8615 52.7606 35.2921C52.0647 34.7103 51.7168 33.9626 51.7168 33.0492C51.7168 32.117 52.0844 31.385 52.8197 30.8532C53.5418 30.3339 54.5988 30.0336 55.9906 29.9523L58.6986 29.7927V29.1076C58.6986 28.6134 58.5312 28.2317 58.1964 27.9627C57.8616 27.6999 57.3954 27.5685 56.798 27.5685C56.286 27.5685 55.856 27.6874 55.508 27.9252C55.1667 28.1567 54.9599 28.4632 54.8877 28.8449H52.2584C52.2978 27.8563 52.7442 27.0555 53.5976 26.4424C54.4576 25.823 55.5638 25.5133 56.9162 25.5133C58.308 25.5133 59.424 25.8261 60.2643 26.4518C61.1046 27.0774 61.5248 27.9064 61.5248 28.9387V36.0241H58.7478V34.4288H58.6887C58.3999 34.9605 57.9469 35.3829 57.3298 35.6957C56.7324 35.996 56.0792 36.1461 55.3702 36.1461Z" fill="white"/>
<path d="M73.5977 36.0241H70.8207V34.1566H70.7616C70.1905 35.5017 69.0547 36.1743 67.3544 36.1743C66.1662 36.1743 65.2175 35.8302 64.5085 35.142C63.7798 34.4475 63.4155 33.5059 63.4155 32.3172V25.6916H66.2909V31.7447C66.2909 32.4329 66.4846 32.9647 66.8719 33.3401C67.2461 33.7093 67.7713 33.8938 68.4475 33.8938C69.1237 33.8938 69.6718 33.6811 70.092 33.2557C70.5121 32.8302 70.7222 32.2703 70.7222 31.5758V25.6916H73.5977V36.0241Z" fill="white"/>
<path d="M79.5947 36.1461C78.2423 36.1461 77.1657 35.6707 76.3648 34.7197C75.5573 33.7624 75.1535 32.4705 75.1535 30.8438C75.1535 29.2296 75.5573 27.9471 76.3648 26.9961C77.1722 26.0451 78.2522 25.5696 79.6045 25.5696C80.3792 25.5696 81.062 25.7417 81.6528 26.0858C82.224 26.4174 82.6474 26.8741 82.9231 27.4559H82.9822V21.8345H85.8576V36.0241H83.0216V34.2598H82.9724C82.7032 34.8354 82.2732 35.2921 81.6823 35.63C81.0784 35.9741 80.3825 36.1461 79.5947 36.1461ZM80.5499 27.7844C79.8015 27.7844 79.2074 28.0597 78.7675 28.6102C78.3211 29.1671 78.0979 29.9147 78.0979 30.8532C78.0979 31.7979 78.3211 32.5487 78.7675 33.1055C79.2074 33.6561 79.8015 33.9314 80.5499 33.9314C81.2917 33.9314 81.8859 33.6529 82.3323 33.0961C82.7787 32.5393 83.0019 31.7948 83.0019 30.8626C83.0019 29.9304 82.7787 29.1827 82.3323 28.6196C81.8859 28.0628 81.2917 27.7844 80.5499 27.7844Z" fill="white"/>
<path d="M87.9157 25.6916H90.7912V36.0241H87.9157V25.6916ZM89.3534 24.5655C88.9267 24.5655 88.5624 24.4278 88.2604 24.1525C87.9584 23.8772 87.8074 23.5363 87.8074 23.1296C87.8074 22.7229 87.9584 22.382 88.2604 22.1067C88.5624 21.8376 88.9267 21.7031 89.3534 21.7031C89.7867 21.7031 90.1544 21.8376 90.4564 22.1067C90.7583 22.382 90.9093 22.7229 90.9093 23.1296C90.9093 23.5363 90.7583 23.8772 90.4564 24.1525C90.1544 24.4278 89.7867 24.5655 89.3534 24.5655Z" fill="white"/>
<path d="M96.4337 23.3924V25.6916H98.4426V27.7656H96.4337V32.7864C96.4337 33.5747 96.8637 33.9689 97.7237 33.9689C98.006 33.9689 98.2456 33.9533 98.4426 33.922V35.9491C98.0487 36.0241 97.5858 36.0617 97.0541 36.0617C95.8002 36.0617 94.9041 35.8427 94.3658 35.4048C93.8274 34.9668 93.5583 34.2442 93.5583 33.2369V27.7656H92.091V25.6916H93.5583V23.3924H96.4337Z" fill="white"/>
<path d="M104.883 36.2025C103.235 36.2025 101.932 35.727 100.973 34.776C100.015 33.825 99.5356 32.5174 99.5356 30.8532C99.5356 29.2077 100.018 27.9033 100.983 26.9398C101.948 25.9888 103.248 25.5133 104.883 25.5133C106.524 25.5133 107.824 25.9888 108.782 26.9398C109.747 27.897 110.23 29.2015 110.23 30.8532C110.23 32.5237 109.751 33.8344 108.792 34.7854C107.84 35.7301 106.537 36.2025 104.883 36.2025ZM104.883 34.0909C105.644 34.0909 106.238 33.8094 106.665 33.2463C107.092 32.6769 107.305 31.8792 107.305 30.8532C107.305 29.8396 107.089 29.0451 106.655 28.4695C106.229 27.9001 105.638 27.6155 104.883 27.6155C104.121 27.6155 103.527 27.9001 103.1 28.4695C102.667 29.0451 102.45 29.8396 102.45 30.8532C102.45 31.8792 102.667 32.6769 103.1 33.2463C103.527 33.8094 104.121 34.0909 104.883 34.0909Z" fill="white"/>
<path d="M111.776 25.6916H114.553V27.5404H114.612C114.986 26.2265 115.846 25.5696 117.192 25.5696C117.514 25.5696 117.783 25.604 117.999 25.6728V28.1035C117.743 27.9909 117.399 27.9346 116.965 27.9346C116.237 27.9346 115.669 28.1379 115.262 28.5446C114.855 28.9512 114.651 29.5174 114.651 30.2432V36.0241H111.776V25.6916Z" fill="white"/>
<defs>
<linearGradient id="paint0_linear" x1="7.46331" y1="1.69888" x2="7.46331" y2="18.4252" gradientUnits="userSpaceOnUse">
<stop stop-color="#35C2FF"/>
<stop offset="1" stop-color="#2858FF"/>
</linearGradient>
<linearGradient id="paint1_linear" x1="7.46331" y1="1.69888" x2="7.46331" y2="18.4252" gradientUnits="userSpaceOnUse">
<stop stop-color="#35C2FF"/>
<stop offset="1" stop-color="#2858FF"/>
</linearGradient>
</defs>
</svg>
