<svg width="400" height="365" viewBox="0 0 400 365" fill="none" xmlns="http://www.w3.org/2000/svg">
<path d="M18.7628 111.974C21.3016 106.731 23.2843 101.221 24.2998 95.4947C30.2478 61.8831 64.3884 25.1787 96.9332 13.556C131.63 1.13591 169.542 2.46491 206.367 3.93889C219.641 4.47048 232.891 5.00208 246.165 5.53368C263.913 6.23442 282.047 7.03182 298.488 13.7493C313.286 19.7902 325.835 30.2772 337.005 41.7065C379.463 85.1043 405.407 148.05 392.859 207.469C383.477 251.833 353.882 290.011 317.759 317.389C303.977 327.827 289.131 336.961 273.391 344.114C215.361 370.549 141.543 367.069 93.3063 325.339C76.1393 310.478 62.8409 291.679 50.824 272.396C33.9472 245.333 13.6853 222.764 7.3504 191.497C1.20897 161.268 -0.0725139 144.982 14.9668 119.175C16.0064 117.387 17.022 115.599 17.9166 113.738L18.7628 111.974Z" fill="#D9B87C"/>
<path d="M321.7 251.398C319.137 249.779 316.405 250.528 314.205 252.244C266.21 289.335 200.37 313.643 141.592 287.377C126.625 280.684 113.302 271.164 102.591 258.719C99.9555 255.651 94.9989 256.883 93.0646 259.976C90.4291 254.008 87.7936 248.039 85.1581 242.071C89.3168 239.92 90.018 232.454 84.1909 230.762C82.4984 230.279 80.8784 229.627 79.331 228.877L78.533 227.645C78.1704 224.069 74.2534 222.764 71.2794 223.537C63.0827 216.24 58.1019 205.245 56.4819 194.444C53.3628 173.784 59.7944 151.965 66.0084 132.441C67.9427 126.351 70.0946 120.335 72.4158 114.39C85.3757 108.591 95.1439 96.2194 97.9487 82.3254C98.6257 79.0391 96.8606 76.3328 94.3944 75.2696C97.8762 68.9871 101.334 62.6804 104.815 56.3979C108.587 49.5837 136.321 24.3328 94.3702 50.3087C81.7005 58.1618 69.5385 90.4927 68.6681 92.3774C58.8031 113.955 50.7999 136.693 46.2784 160.035C42.168 181.299 41.9504 204.859 55.0312 223.247C59.1174 228.998 64.1224 233.903 69.9979 237.528C79.0166 257.97 88.0353 278.413 97.1024 298.831C99.3269 303.857 101.817 308.907 106 312.653C109.893 316.132 114.511 318.403 119.395 320.216C129.962 324.106 141.277 326.498 152.375 328.141C175.926 331.645 200.032 331.186 223.606 328.141C245.174 325.363 266.862 319.926 285.408 308.158C303.59 296.608 318.509 279.379 324.263 258.357C324.964 255.747 323.997 252.848 321.724 251.422L321.7 251.398Z" fill="#A37D41"/>
<path d="M164.779 27.7642C139.996 24.937 116.977 31.6787 106.653 51.6136C96.3045 71.5727 94.1284 82.8813 92.6051 93.5132C90.8643 105.668 84.9888 94.5764 74.205 109.437C69.4901 115.937 51.8395 181.493 58.658 203.578C65.4764 225.664 88.2046 262.175 102.518 269.424C116.832 276.673 124.255 274.982 133.274 286.798C142.293 298.614 197.904 313.112 218.021 304.848C238.138 296.584 267.564 282.521 273.221 282.521C278.879 282.521 322.063 265.727 331.251 256.351C340.439 246.976 353.278 247.58 348.224 224.238C343.171 200.896 348.128 207.565 357.074 187.534C366.02 167.502 368.631 164.747 365.005 143.29C361.74 123.959 341.478 88.8738 331.807 79.2326C322.135 69.5913 293.508 56.0355 277.912 50.7679C262.317 45.5002 235.115 37.7679 211.614 36.3422C182.792 34.6025 173.242 28.7307 164.755 27.7642H164.779Z" fill="#EDDCB3"/>
<path d="M337.876 139.786C335.385 140.922 333.62 141.985 331.686 143.942C330.018 145.658 328.325 147.374 326.657 149.089C324.166 151.626 321.7 154.163 319.21 156.701C305.742 166.68 290.147 173.615 273.463 176.877C272.883 176.998 272.399 177.24 271.916 177.53C258.545 180.429 245.198 183.329 231.827 186.229C230.787 186.446 229.99 186.929 229.337 187.558C194.036 190.409 158.202 185.649 124.811 173.784C112.988 169.58 101.551 164.433 90.5257 158.465C86.101 156.072 81.3378 159.866 81.362 163.974C80.83 164.723 80.5399 165.593 80.4432 166.511C78.0011 167.985 76.4536 171.247 77.4692 174.074C75.7283 176.346 75.2931 179.318 77.2032 181.71C77.7835 182.435 78.533 182.991 79.3551 183.401C79.1133 185.649 80.1288 187.872 82.2324 189.104C82.3775 190.24 82.5225 191.375 82.6676 192.511C82.9336 194.589 83.9975 197.199 86.1494 198.069C87.2132 201.452 88.8332 204.69 91.1786 207.299C91.2995 207.976 91.4929 208.628 91.8556 209.256C92.0732 209.643 92.3634 209.981 92.6293 210.344C92.8953 210.682 93.1613 211.069 93.4756 211.383C94.08 211.987 94.7812 212.494 95.4824 212.953C96.2078 213.413 97.1024 213.751 97.8761 214.041C98.2388 214.186 98.6257 214.282 99.0125 214.331C99.8588 214.476 100.778 214.645 101.648 214.621C102.107 214.621 102.567 214.524 103.002 214.476C103.461 214.427 103.921 214.379 104.356 214.258C105.807 213.896 107.016 213.195 108.176 212.325C111.537 211.866 114.898 211.069 118.066 210.537C126.988 209.039 135.885 207.565 144.807 206.067C145.533 205.946 146.186 205.608 146.766 205.149C152.375 205.704 157.985 206.357 163.522 207.565C172.637 209.571 181.559 212.567 189.974 216.65C199.597 221.314 208.615 227.186 216.667 234.217C218.239 235.595 219.955 236.005 221.503 235.788C224.066 238.881 227.354 241.346 231.126 242.989C236.058 245.139 241.257 245.985 246.552 246.372C246.891 246.444 247.229 246.541 247.568 246.589C267.346 250.31 286.592 244.269 305.138 237.89C311.883 235.571 310.191 226.823 303.542 226.026C297.57 225.301 292.178 220.299 290.558 214.524C295.224 207.903 298.875 200.606 301.414 192.825C301.511 192.511 301.583 192.197 301.632 191.883C303.856 189.636 306.105 187.388 308.305 185.141C314.035 179.269 319.79 173.398 325.52 167.526C326.004 167.043 326.487 166.535 326.971 166.052C333.596 161.098 339.713 155.468 345.202 149.282C349.893 143.991 344.09 136.959 337.876 139.786Z" fill="#A1722A"/>
<mask id="mask0_2004_99" style="mask-type:luminance" maskUnits="userSpaceOnUse" x="75" y="138" width="272" height="109">
<path d="M337.876 138.747C335.385 139.883 333.62 140.946 331.686 142.903C330.018 144.619 328.325 146.334 326.657 148.05C324.166 150.587 321.7 153.124 319.21 155.662C305.742 165.641 290.147 172.576 273.463 175.838C272.883 175.959 272.399 176.201 271.916 176.491C258.545 179.39 245.198 182.29 231.827 185.189C230.787 185.407 229.99 185.89 229.337 186.518C194.036 189.37 158.202 184.61 124.811 172.745C112.988 168.541 101.551 163.394 90.5257 157.426C86.101 155.033 81.3378 158.827 81.362 162.935C80.83 163.684 80.5399 164.554 80.4432 165.472C78.0011 166.946 76.4536 170.208 77.4692 173.035C75.7283 175.307 75.2931 178.279 77.2032 180.671C77.7835 181.396 78.533 181.952 79.3551 182.362C79.1133 184.61 80.1288 186.833 82.2324 188.065C82.3775 189.201 82.5225 190.336 82.6676 191.472C82.9336 193.55 83.9975 196.16 86.1494 197.03C87.2132 200.413 88.8332 203.65 91.1786 206.26C91.2995 206.937 91.4929 207.589 91.8556 208.217C92.0732 208.604 92.3634 208.942 92.6293 209.305C92.8953 209.643 93.1613 210.03 93.4756 210.344C94.08 210.948 94.7812 211.455 95.4824 211.914C96.2078 212.373 97.1024 212.712 97.8761 213.002C98.2388 213.147 98.6257 213.243 99.0125 213.292C99.8588 213.437 100.778 213.606 101.648 213.582C102.107 213.582 102.567 213.485 103.002 213.437C103.461 213.388 103.921 213.34 104.356 213.219C105.807 212.857 107.016 212.156 108.176 211.286C111.537 210.827 114.898 210.03 118.066 209.498C126.988 208 135.885 206.526 144.807 205.028C145.533 204.907 146.186 204.569 146.766 204.11C152.375 204.665 157.985 205.318 163.522 206.526C172.637 208.531 181.559 211.528 189.974 215.611C199.597 220.275 208.615 226.147 216.667 233.178C218.239 234.556 219.955 234.966 221.503 234.749C224.066 237.842 227.354 240.307 231.126 241.95C236.058 244.1 241.257 244.946 246.552 245.333C246.891 245.405 247.229 245.502 247.568 245.55C267.346 249.271 286.592 243.23 305.138 236.851C311.883 234.531 310.191 225.784 303.542 224.987C297.57 224.262 292.178 219.26 290.558 213.485C295.224 206.864 298.875 199.567 301.414 191.786C301.511 191.472 301.583 191.158 301.632 190.844C303.856 188.597 306.105 186.349 308.305 184.102C314.035 178.23 319.79 172.359 325.52 166.487C326.004 166.004 326.487 165.496 326.971 165.013C333.596 160.059 339.713 154.429 345.202 148.243C349.893 142.952 344.09 135.92 337.876 138.747Z" fill="white"/>
</mask>
<g mask="url(#mask0_2004_99)">
<path d="M185.597 198.914C185.597 202.031 187.072 205.269 189.635 207.444C192.899 210.223 203.272 215.176 206.173 218.463C238.839 255.602 204.481 224.769 198.581 227.572C193.262 230.11 185.984 227.886 180.423 227.186C168.164 225.591 155.905 224.02 143.671 222.426C142.607 222.401 141.543 222.281 140.455 222.015C137.046 221.217 134.967 217.689 135.885 214.597C136.925 211.165 140.431 209.909 143.913 210.368C144.106 210.368 144.275 210.416 144.469 210.44C144.59 210.416 144.759 210.32 145.073 210.126C145.726 209.643 146.282 208.966 146.645 208.217C147.346 206.719 147.177 205.318 146.5 203.795C144.227 198.673 138.207 194.903 133.661 191.641C122.248 183.401 109.7 176.442 96.6188 170.74C93.4272 169.338 76.0668 164.046 77.7351 161.437C79.6211 158.44 100.028 158.924 103.22 160.301C103.413 160.398 103.607 160.47 103.8 160.567C105.565 158.368 109.627 157.256 112.238 159.02C118.912 163.539 126.069 167.453 133.492 170.715C139.222 172.117 145.267 172.769 151.094 173.011C168.696 173.76 186.734 171.924 203.683 177.457C211.541 180.018 214.322 187.702 204.674 189.031C197.928 189.95 185.621 192.197 185.597 198.914Z" fill="#724B1E"/>
<path d="M342.035 136.79C337.803 141.502 333.572 146.214 329.341 150.95C321.362 158.005 312.029 163.466 301.994 167.043C295.176 164.288 286.665 167.26 283.038 173.76C282.966 173.881 282.941 173.978 282.869 174.098C279.435 175.307 276.147 176.901 272.69 178.037C268.289 179.487 263.719 180.623 259.101 181.227C250.227 182.411 241.136 181.927 232.432 179.922C224.864 178.158 183.01 183.909 229.216 191.569C244.956 194.178 261.253 194.637 276.413 189.515C279.846 188.355 283.086 186.76 286.52 185.576C288.091 185.02 291.307 183.715 292.758 184.996C294.185 186.253 293.653 189.104 293 190.65C292.685 191.399 292.274 192.1 291.839 192.777C290.147 194.662 287.753 202.95 287.898 205.487C288.696 219.985 289.76 212.567 295.297 207.009C296.941 205.342 298.561 203.602 300.012 201.741C312.899 187.364 325.786 173.011 338.674 158.634C343.413 154.236 347.741 149.379 351.537 144.111C355.551 138.554 346.604 131.715 342.035 136.79Z" fill="#724B1E"/>
</g>
<path d="M270.755 86.8437C268.579 84.8382 264.299 84.1857 262.196 86.8437C260.092 89.5259 257.771 92.0147 255.208 94.2861C254.58 94.8419 253.951 95.3735 253.322 95.9051C253.25 95.9534 252.814 96.3159 252.597 96.485C252.428 96.6058 252.186 96.7991 252.137 96.8233C250.735 97.8623 249.284 98.8289 247.785 99.7471C246.359 100.617 244.908 101.414 243.433 102.139C242.684 102.502 241.934 102.84 241.184 103.202C241.112 103.227 241.088 103.251 241.064 103.275C240.991 103.299 240.943 103.323 240.846 103.347C240.507 103.492 240.169 103.613 239.83 103.758C236.566 105.015 233.181 105.957 229.748 106.585C226.629 107.165 224.574 111.08 225.516 114.028C226.605 117.362 229.627 118.885 232.964 118.256C247.664 115.478 261.471 107.189 270.755 95.446C272.714 92.9813 273.342 89.2843 270.755 86.8921V86.8437Z" fill="#F7F3E3"/>
<path d="M290.654 67.489C290.267 66.0875 289.179 64.5652 287.874 63.8887C286.471 63.1396 284.779 62.7771 283.207 63.2846C281.708 63.7678 280.403 64.6861 279.605 66.0634C277.646 69.4221 275.712 72.7809 273.753 76.1396C272.955 77.4927 272.738 79.2808 273.149 80.8032C273.536 82.2046 274.624 83.727 275.929 84.4035C277.332 85.1526 279.024 85.5151 280.596 85.0076C282.095 84.5243 283.401 83.6061 284.199 82.2288C286.157 78.8701 288.091 75.5113 290.05 72.1526C290.848 70.7994 291.065 69.0113 290.654 67.489Z" fill="#F7F3E3"/>
<path d="M127.253 146.117C126.141 145.779 125.029 145.392 123.941 144.981C123.385 144.788 122.853 144.571 122.321 144.353C122.321 144.353 122.152 144.281 122.007 144.208C121.765 144.087 121.064 143.797 121.088 143.797C118.888 142.782 116.736 141.647 114.656 140.414C112.649 139.206 110.691 137.877 108.805 136.452C108.636 136.307 107.959 135.775 107.814 135.654C107.354 135.292 106.919 134.905 106.484 134.519C105.541 133.697 104.598 132.827 103.703 131.957C101.962 130.266 100.342 128.478 98.8191 126.593C98.7707 126.52 98.5048 126.182 98.3597 126.013C98.263 125.892 98.1663 125.747 98.1663 125.747C97.8278 125.288 97.5134 124.829 97.2233 124.37C96.909 123.887 96.643 123.379 96.377 122.872C96.377 122.872 96.3045 122.703 96.232 122.582C96.1594 122.388 96.0385 122.026 96.0143 121.953C95.966 121.833 95.9418 121.688 95.9176 121.567C96.0869 121.567 96.232 121.543 96.3045 121.543C96.3045 121.543 96.3045 121.543 96.3287 121.543C96.5705 121.591 96.7881 121.639 97.0299 121.712C97.2958 121.784 97.5376 121.881 97.8036 121.953C97.8519 121.953 97.8519 121.978 97.9245 122.002C98.5773 122.316 99.2301 122.703 99.8588 123.065C101.116 123.814 102.349 124.636 103.534 125.505C103.8 125.699 104.042 125.868 104.284 126.061C104.356 126.11 104.404 126.158 104.453 126.182C104.477 126.206 104.501 126.23 104.549 126.279C105.13 126.738 105.686 127.197 106.242 127.68C108.636 129.734 110.836 131.981 112.867 134.374C114.922 136.79 119.323 136.645 121.426 134.374C123.796 131.788 123.627 128.405 121.426 125.82C117.05 120.649 111.755 116.13 105.952 112.626C102.76 110.717 99.0125 109.171 95.2164 109.461C91.1302 109.799 86.9956 111.805 85.1097 115.623C81.4345 123.017 86.1735 130.217 90.8401 135.799C94.9021 140.656 99.7137 144.861 104.912 148.485C110.739 152.545 117.268 155.613 124.062 157.764C127.084 158.706 130.784 156.652 131.509 153.535C132.258 150.249 130.518 147.132 127.278 146.093L127.253 146.117Z" fill="#F7F3E3"/>
<path d="M161.104 156.58C160.282 155.299 159.024 154.115 157.501 153.801L142.631 150.684C141.035 150.346 139.415 150.442 137.965 151.288C136.707 152.013 135.523 153.463 135.184 154.888C134.821 156.435 134.918 158.175 135.789 159.552C136.611 160.833 137.868 162.017 139.391 162.331C144.348 163.37 149.305 164.409 154.261 165.448C155.857 165.786 157.477 165.689 158.928 164.844C160.185 164.119 161.37 162.669 161.708 161.243C162.071 159.697 161.974 157.957 161.104 156.58Z" fill="#F7F3E3"/>
<path d="M273.85 150.322C272.496 149.645 270.804 149.283 269.329 149.79L254.942 154.695C253.395 155.227 252.065 156.145 251.243 157.595C250.542 158.875 250.251 160.712 250.711 162.113C251.194 163.611 252.162 165.085 253.612 165.81C254.966 166.487 256.659 166.849 258.134 166.342C262.921 164.699 267.733 163.08 272.52 161.437C274.068 160.905 275.397 159.987 276.22 158.537C276.921 157.256 277.211 155.42 276.752 154.019C276.268 152.52 275.301 151.046 273.85 150.322Z" fill="#F7F3E3"/>
<path d="M152.375 40.5948C140.092 41.9721 128.68 47.0223 119.685 55.5521C117.388 57.7268 117.316 61.9312 119.685 64.106C122.152 66.3773 125.779 66.4257 128.245 64.106C129.164 63.2361 130.082 62.4145 131.05 61.6171C131.219 61.4721 131.388 61.3272 131.581 61.2063C131.63 61.1822 131.63 61.1822 131.678 61.1338C132.186 60.7714 132.694 60.4089 133.201 60.0465C135.329 58.5967 137.578 57.316 139.923 56.2286C140.213 56.0837 140.479 55.9628 140.769 55.842C140.842 55.8179 141.06 55.7212 141.229 55.6487C141.35 55.6004 141.446 55.5521 141.495 55.5521C141.785 55.4312 142.075 55.3346 142.365 55.2138C143.55 54.7788 144.735 54.3922 145.944 54.0539C147.153 53.7156 148.362 53.4257 149.595 53.1599C150.199 53.0391 150.828 52.9182 151.432 52.8216C151.529 52.8216 151.916 52.7491 152.061 52.7249C152.23 52.7249 152.375 52.7008 152.375 52.6766C155.519 52.3383 158.589 50.1394 158.42 46.6357C158.275 43.6636 155.736 40.2324 152.375 40.5948Z" fill="#F7F3E3"/>
<path d="M277.622 252.074C276.123 249.489 271.988 247.942 269.353 249.899C255.136 260.483 237.727 248.981 225.637 240.693C217.852 235.353 210.018 230.52 201.265 226.92C192.561 223.344 183.421 221.169 174.064 220.13C154.019 217.883 134.652 223.948 114.729 224.383C100.898 224.673 84.2876 221.411 76.236 208.918C64.8478 191.206 73.4071 168.976 80.0805 151.264C81.241 148.219 78.799 144.643 75.8492 143.821C72.4641 142.879 69.5627 144.981 68.4021 148.05C61.4627 166.487 54.3783 187.243 61.7529 206.719C68.3537 224.214 84.4327 233.372 102.325 235.764C122.901 238.518 142.97 231.728 163.498 231.656C173.072 231.632 182.526 233.202 191.618 236.199C200.951 239.267 209.292 244.124 217.368 249.658C226.314 255.771 235.381 262.247 246.093 264.833C255.958 267.225 267.104 266.596 275.47 260.362C278.081 258.405 279.411 255.143 277.646 252.098L277.622 252.074Z" fill="#F7F3E3"/>
<path d="M359.782 123.983C357.872 121.349 354.511 120.069 351.513 121.808C348.901 123.331 347.426 127.414 349.337 130.072C357.654 141.647 358.259 157.425 349.167 168.879C347.136 171.44 346.677 174.92 349.167 177.433C351.271 179.535 355.671 179.994 357.727 177.433C363.868 169.725 367.567 160.591 367.93 150.684C368.269 141.26 365.295 131.643 359.806 124.007L359.782 123.983Z" fill="#F7F3E3"/>
<path d="M323.417 110.935C317.566 108.929 311.448 107.48 305.524 105.764C298.44 103.734 295.2 114.052 301.221 116.976C295.66 117.749 290.171 119.151 284.682 121.156C273.076 125.385 261.519 131.112 248.849 130.242C245.585 130.024 242.804 133.19 242.804 136.283C242.804 139.738 245.585 142.106 248.849 142.323C261.471 143.217 273.197 138.409 284.731 134.011C289.034 132.368 293.338 130.942 297.691 129.903C298.706 131.184 300.205 132.054 302.115 132.006C308.208 131.861 314.35 131.933 320.419 131.571C326.052 131.232 336.401 131.377 336.957 124.974C337.489 119.006 328.543 112.675 323.417 110.935Z" fill="#D9B87C"/>
<path d="M331.928 113.883C324.287 105.982 318.243 96.727 313.818 86.6749C313.092 85.0318 310.191 84.621 309.079 86.0708C305.573 90.5894 302.067 95.108 298.561 99.6266C297.425 101.101 297.304 103.324 299.165 104.363C303.058 106.513 306.927 108.688 310.82 110.838C306.83 110.524 302.792 110.79 298.827 111.467C289.47 113.037 280.209 116.179 271.456 119.755C261.736 123.718 252.452 128.55 243.627 134.253C240.362 136.355 243.409 141.599 246.673 139.472C255.184 133.963 264.154 129.179 273.536 125.385C283.038 121.543 293.387 117.846 303.639 116.879C308.523 116.42 313.503 116.734 318.097 118.571C320.201 119.417 322.256 120.601 323.973 122.099C325.52 123.476 326.681 125.216 328.373 126.472C331.42 128.744 335.941 128.357 337.247 124.298C338.674 119.827 334.636 116.734 331.928 113.907V113.883Z" fill="#A37D41"/>
<path d="M253.612 56.567C241.837 58.5001 229.965 59.7082 218.069 60.264C208.736 60.264 199.403 60.3123 190.094 60.3365C189.321 60.3365 188.644 60.4815 188.015 60.6989C180.544 59.5149 173.145 59.1041 165.456 60.6506C146.524 64.4685 130.711 78.0001 123.361 95.6636C122.103 98.6841 124.255 100.955 127.133 101.753C130.614 102.719 131.896 101.197 133.153 98.1766C133.443 97.4517 135.668 97.4759 136.006 96.7751C136.877 96.5093 137.723 96.0744 138.521 95.3253C140.455 93.5372 142.486 91.8699 144.59 90.2752C158.855 80.8997 178.537 83.0744 194.833 83.9926C206.512 84.645 218.19 84.5725 229.578 81.5763C239.927 78.8458 249.768 74.0856 258.303 67.6339C263.816 63.4778 260.624 55.4313 253.636 56.5911L253.612 56.567Z" fill="#724B1E"/>
<path d="M202.111 114.221C202.111 114.221 205.859 133.6 211.42 137.974C216.981 142.348 194.06 136.524 182.817 133.721C171.573 130.918 202.111 114.221 202.111 114.221Z" fill="#A37D41"/>
<path d="M21.3741 113.496C23.5986 108.833 25.5087 104 26.6693 98.9738C27.6364 94.7935 28.3618 90.6616 29.6917 86.5779C32.3997 78.2657 36.5101 70.4608 41.3217 63.1876C51.4043 47.9645 64.9687 34.6021 80.5157 24.9608C97.4167 14.4738 117.364 9.88276 136.973 7.70804C158.541 5.31585 180.278 5.9441 201.918 6.78982C213.451 7.24893 224.985 7.70804 236.518 8.16715C247.35 8.60209 258.23 8.84373 269.038 9.97941C279.846 11.1151 290.122 13.1932 299.77 17.5668C308.837 21.6746 317.034 27.4497 324.505 33.9738C352.794 58.7173 374.603 92.1114 385.532 128.067C396.389 163.805 395.542 202.128 380.334 236.489C365.15 270.777 338.722 299.29 308.208 320.626C276.993 342.446 241.088 356.292 202.837 357.814C168.019 359.191 132.5 350.589 104.042 330.002C87.9386 318.355 74.9787 302.939 63.7839 286.676C58.0777 278.388 52.9276 269.762 47.3422 261.401C41.7569 253.041 36.4134 245.478 31.1666 237.359C25.9197 229.24 21.3741 221.556 17.5539 213.074C13.4676 204.037 10.9772 194.613 9.11542 184.899C5.97216 168.396 4.25546 151.965 10.2035 135.872C13.1291 127.994 17.7473 121.011 21.3741 113.472C23.0666 109.992 17.844 106.924 16.1515 110.427C12.3312 118.305 7.61633 125.626 4.52143 133.866C1.59579 141.623 0.0966946 149.814 -2.08948e-05 158.078C-0.0967364 166.97 1.28146 175.814 2.90145 184.537C4.7874 194.686 7.25364 204.424 11.3399 213.944C19.1738 232.163 31.1907 248.087 42.1196 264.494C53.7738 281.989 64.4609 299.942 78.799 315.479C104.187 342.953 138.618 358.829 175.635 362.937C212.653 367.045 250.348 359.505 283.377 342.688C318.992 324.541 351.077 296.994 372.742 263.286C382.921 247.435 390.755 229.94 395.059 211.576C399.459 192.873 400.088 173.518 397.501 154.526C392.278 116.13 374.265 80.0296 349.24 50.695C336.328 35.5445 321.168 20.7564 302.816 12.4199C282.82 3.33443 260.479 3.16529 238.936 2.2954C215.555 1.30469 192.15 -0.0967941 168.769 -0.000139855C145.388 0.0965144 123.868 1.93295 102.47 8.5296C84.6019 14.0147 68.934 23.9943 55.4905 36.9218C42.0471 49.8493 30.7797 65.3865 24.5415 82.9292C23.1634 86.7712 22.1478 90.6857 21.3741 94.6969C20.3102 100.182 18.5452 105.401 16.1273 110.452C14.459 113.955 19.6816 117.024 21.3499 113.496H21.3741Z" fill="#472C16"/>
<path d="M95.9902 257.656C66.903 233.734 55.1762 195.024 63.3003 158.561C65.8149 147.277 70.0946 136.524 75.8008 126.496C77.7351 123.113 72.5125 120.069 70.5782 123.452C50.7273 158.32 48.6237 202.587 70.0946 237.286C75.8733 246.637 83.1995 254.95 91.6863 261.933C94.6603 264.373 98.9642 260.145 95.966 257.656H95.9902Z" fill="#472C16"/>
<path d="M131.896 229.046C117.509 234.048 102.132 235.836 87.6968 230.085C76.8163 225.76 66.8546 217.907 63.6146 206.26C62.5749 202.514 56.7478 204.109 57.7875 207.855C61.4869 221.12 72.3915 230.182 84.7228 235.329C100.512 241.925 117.63 240.379 133.516 234.845C137.167 233.565 135.595 227.741 131.92 229.022L131.896 229.046Z" fill="#472C16"/>
<path d="M96.8606 97.1375C96.909 87.158 99.472 77.2509 103.268 68.0446C107.064 58.8383 112.311 49.9944 119.371 42.9145C122.128 40.1598 117.848 35.8829 115.092 38.6375C107.475 46.249 101.914 55.7212 97.7794 65.6041C93.6448 75.487 90.8885 86.2881 90.8159 97.1133C90.8159 101.004 96.8365 101.004 96.8606 97.1133V97.1375Z" fill="#472C16"/>
<path d="M191.98 39.4589C217.344 34.8678 242.877 39.7247 267.104 47.5054C288.067 54.247 308.378 62.9942 325.279 77.4199C333.113 84.1132 340.1 91.7972 345.661 100.472C352.02 110.427 357.848 121.277 362.03 132.319C368.51 149.427 369.332 168.951 357.678 184.054C348.176 196.353 333.596 202.37 322.861 213.195C320.128 215.95 324.384 220.227 327.14 217.472C331.783 212.808 337.392 209.256 342.736 205.463C348.95 201.017 355.091 196.329 360.12 190.554C372.863 175.935 375.474 156.604 370.348 138.215C367.132 126.689 361.474 115.912 355.647 105.522C349.82 95.1317 343.413 86.2154 335.095 78.1448C318.895 62.4384 298.779 52.0239 277.622 44.6299C249.574 34.8436 220.076 28.2228 190.385 33.5871C186.564 34.2879 188.184 40.1113 191.98 39.4106V39.4589Z" fill="#472C16"/>
<path d="M327.358 252.485C321.893 259.42 313.31 263.552 305.476 267.225C297.207 271.091 288.599 274.232 280.378 278.195C276.872 279.886 279.943 285.082 283.425 283.414C291.863 279.355 300.664 276.141 309.127 272.154C317.59 268.167 325.98 263.89 331.613 256.762C334.007 253.741 329.752 249.44 327.334 252.485H327.358Z" fill="#472C16"/>
<path d="M136.692 290.902C164.425 311.32 202.628 314.921 233.891 300.664C237.421 299.045 234.351 293.85 230.845 295.445C201.467 308.832 165.658 304.748 139.739 285.683C136.595 283.363 133.597 288.607 136.692 290.902Z" fill="#472C16"/>
<path d="M203.707 117.797C203.707 129.203 198.654 135.098 184.388 135.098C177.666 135.098 168.575 131.619 163.981 128.236C158.831 124.466 152.085 123.814 152.085 117.797C152.085 106.392 163.643 97.1616 177.884 97.1616C192.125 97.1616 203.683 106.392 203.683 117.797H203.707Z" fill="#472C16"/>
<path d="M190.391 108.165C190.709 105.905 187.58 103.597 183.401 103.01C179.223 102.422 175.577 103.777 175.259 106.037C174.941 108.297 178.07 110.605 182.249 111.193C186.428 111.781 190.073 110.425 190.391 108.165Z" fill="white"/>
<path d="M272.327 129.323C267.007 121.422 268.192 120.117 278.347 113.303C283.135 110.089 291.356 105.087 295.756 103.082C302.164 100.182 306.298 100.448 309.103 104.628C314.422 112.53 310.481 124.466 300.326 131.281C290.171 138.095 277.622 137.225 272.303 129.323H272.327Z" fill="#472C16"/>
<path d="M300.774 112.987C301.027 111.096 298.325 109.173 294.738 108.693C291.152 108.213 288.038 109.357 287.785 111.249C287.531 113.14 290.233 115.063 293.82 115.543C297.407 116.023 300.52 114.879 300.774 112.987Z" fill="white"/>
<path d="M124.159 102.284C124.159 105.957 157.864 79.7155 180.423 82.5427C202.982 85.3698 219.133 87.9795 233.447 82.2285C244.86 77.6616 262.22 64.4925 262.317 62.9702C262.97 52.1932 237.824 58.4516 211.638 60.288C192.851 61.617 171.066 59.4181 160.354 61.7137C146.79 64.6133 124.618 79.6189 124.134 102.284H124.159Z" stroke="#472C16" stroke-width="6" stroke-miterlimit="10"/>
<path d="M236.615 139.423C236.615 137.708 310.65 100.713 307.459 82.929C304.267 65.1446 329.486 116.879 338.504 123.765C347.523 130.652 292.589 129.855 280.378 137.031C268.168 144.208 236.59 141.139 236.59 139.423H236.615Z" stroke="#472C16" stroke-width="6" stroke-miterlimit="10"/>
<path d="M95.6275 159.238C170.364 200.968 257.215 193.091 326.101 152.182C328.422 150.805 330.139 148.678 331.275 146.214C338.021 131.595 352.673 138.24 341.72 152.061C311.11 190.65 265.678 213.219 309.055 228.539C312.826 229.868 311.352 236.054 307.701 237.649C290.534 245.212 246.335 257.004 226 240.742C145.968 176.708 111.223 224.286 94.7329 214.403C91.3478 212.374 77.445 186.446 77.6384 173.905C77.856 161.147 84.3843 152.786 95.6275 159.238Z" stroke="#472C16" stroke-width="6" stroke-miterlimit="10"/>
<path d="M80.5882 104.918C102.664 100.641 122.007 115.888 137.965 128.913C153.923 141.937 171.283 155.517 192.827 155.517C196.719 155.517 196.719 149.476 192.827 149.476C170.268 149.476 152.859 133.02 136.321 119.827C119.782 106.634 100.681 94.8903 78.9924 99.0705C75.1721 99.8196 76.7921 105.643 80.5882 104.894V104.918Z" fill="#472C16"/>
<path d="M272.883 208.677C271.215 205.825 267.467 204.883 264.614 206.502C253.419 212.857 239.178 213.606 227.668 208.29C224.719 206.913 221.164 207.444 219.399 210.465C217.876 213.074 218.601 217.351 221.575 218.729C237.267 225.978 255.619 225.519 270.707 216.94C273.536 215.322 274.503 211.455 272.883 208.677Z" fill="#D9B87C"/>
</svg>
