<svg width="66" height="60" viewBox="0 0 66 60" fill="none" xmlns="http://www.w3.org/2000/svg">
<path d="M3.44848 18.3271C3.86206 17.4772 4.18506 16.5842 4.35049 15.656C5.31946 10.208 10.8812 4.25861 16.183 2.37472C21.8353 0.361574 28.0116 0.576988 34.0105 0.815902C36.173 0.902068 38.3315 0.988234 40.494 1.0744C43.3852 1.18798 46.3393 1.31723 49.0178 2.40605C51.4284 3.38521 53.4727 5.08502 55.2925 6.93758C62.2092 13.9718 66.4357 24.1746 64.3914 33.8056C62.8631 40.9965 58.0419 47.1848 52.1571 51.6223C49.9119 53.3143 47.4934 54.7948 44.9292 55.9541C35.4758 60.2389 23.4503 59.6749 15.5922 52.9109C12.7955 50.5022 10.6291 47.455 8.67148 44.3296C5.92212 39.943 2.62131 36.2848 1.58931 31.2167C0.588825 26.317 0.380062 23.6772 2.83007 19.4943C2.99944 19.2044 3.16488 18.9146 3.31062 18.613L3.44848 18.3271Z" fill="#D9B87C"/>
<path d="M52.7992 40.926C52.3817 40.6636 51.9366 40.785 51.5782 41.0631C43.7594 47.0751 33.0337 51.0152 23.4582 46.7578C21.02 45.6729 18.8497 44.1298 17.1048 42.1127C16.6754 41.6153 15.8679 41.8151 15.5528 42.3164C15.1235 41.349 14.6941 40.3816 14.2648 39.4142C14.9423 39.0656 15.0565 37.8554 14.1072 37.5812C13.8315 37.5029 13.5676 37.3971 13.3155 37.2757L13.1855 37.076C13.1265 36.4963 12.4883 36.2848 12.0039 36.4101C10.6686 35.2273 9.85715 33.4452 9.59324 31.6945C9.08512 28.3458 10.1329 24.8091 11.1452 21.6445C11.4603 20.6575 11.8109 19.6822 12.189 18.7187C14.3002 17.7788 15.8916 15.7734 16.3485 13.5214C16.4588 12.9887 16.1712 12.5501 15.7695 12.3777C16.3367 11.3594 16.8999 10.3372 17.4671 9.31885C18.0816 8.21436 22.5995 4.12149 15.7655 8.33186C13.7015 9.60476 11.7203 14.8452 11.5785 15.1507C9.97138 18.6482 8.6676 22.3338 7.93102 26.1172C7.26141 29.5639 7.22596 33.3826 9.35691 36.3631C10.0226 37.2953 10.8379 38.0904 11.7951 38.6779C13.2643 41.9913 14.7335 45.3048 16.2106 48.6143C16.573 49.429 16.9787 50.2476 17.6601 50.8546C18.2943 51.4186 19.0466 51.7868 19.8423 52.0805C21.5636 52.7111 23.407 53.0989 25.215 53.3652C29.0515 53.9331 32.9786 53.8587 36.819 53.3652C40.3325 52.9148 43.8658 52.0335 46.8869 50.1261C49.849 48.254 52.2793 45.4614 53.2167 42.054C53.331 41.631 53.1734 41.161 52.8032 40.9299L52.7992 40.926Z" fill="#A37D41"/>
<path d="M27.2357 4.67736C23.1983 4.21912 19.4485 5.31185 17.7666 8.54307C16.0807 11.7782 15.7262 13.6112 15.4781 15.3345C15.1944 17.3046 14.2373 15.5068 12.4805 17.9155C11.7124 18.9691 8.83704 29.5949 9.94781 33.1747C11.0586 36.7545 14.7612 42.6725 17.093 43.8475C19.4248 45.0225 20.6341 44.7483 22.1033 46.6635C23.5725 48.5788 32.632 50.9288 35.9092 49.5893C39.1864 48.2498 43.9801 45.9703 44.9018 45.9703C45.8235 45.9703 52.8584 43.2483 54.3552 41.7286C55.8519 40.209 57.9435 40.3069 57.1203 36.5234C56.297 32.74 57.1045 33.8209 58.5619 30.5741C60.0193 27.3272 60.4447 26.8807 59.8539 23.4027C59.3221 20.2694 56.0213 14.5825 54.4458 13.0198C52.8702 11.457 48.2065 9.25981 45.6659 8.40599C43.1253 7.55216 38.694 6.29884 34.8654 6.06776C30.1702 5.78576 28.6143 4.83403 27.2318 4.67736H27.2357Z" fill="#EDDCB3"/>
<path d="M55.4344 22.8349C55.0287 23.019 54.7411 23.1913 54.426 23.5086C54.1542 23.7867 53.8785 24.0647 53.6067 24.3428C53.201 24.7541 52.7992 25.1653 52.3935 25.5766C50.1996 27.1941 47.659 28.3182 44.9411 28.8469C44.8466 28.8665 44.7678 28.9057 44.689 28.9527C42.5108 29.4227 40.3365 29.8927 38.1583 30.3627C37.9889 30.3979 37.8589 30.4763 37.7526 30.5781C32.0018 31.0403 26.1643 30.2687 20.7246 28.3456C18.7985 27.6641 16.9354 26.8299 15.1393 25.8625C14.4184 25.4747 13.6425 26.0896 13.6464 26.7555C13.5598 26.8769 13.5125 27.0179 13.4967 27.1667C13.0989 27.4056 12.8468 27.9344 13.0122 28.3926C12.7286 28.7608 12.6577 29.2425 12.9689 29.6303C13.0635 29.7478 13.1856 29.8378 13.3195 29.9044C13.2801 30.2687 13.4455 30.629 13.7882 30.8288C13.8118 31.0128 13.8355 31.1969 13.8591 31.381C13.9024 31.7178 14.0758 32.1408 14.4263 32.2818C14.5996 32.8301 14.8635 33.355 15.2456 33.778C15.2653 33.8876 15.2968 33.9934 15.3559 34.0952C15.3914 34.1579 15.4386 34.2127 15.4819 34.2715C15.5253 34.3263 15.5686 34.389 15.6198 34.4399C15.7183 34.5378 15.8325 34.62 15.9467 34.6945C16.0649 34.7689 16.2106 34.8237 16.3367 34.8707C16.3958 34.8942 16.4588 34.9099 16.5218 34.9177C16.6597 34.9412 16.8094 34.9686 16.9512 34.9647C17.026 34.9647 17.1008 34.949 17.1717 34.9412C17.2466 34.9334 17.3214 34.9255 17.3923 34.906C17.6287 34.8472 17.8256 34.7336 18.0147 34.5926C18.5622 34.5182 19.1097 34.389 19.6257 34.3028C21.0791 34.06 22.5287 33.8211 23.9821 33.5782C24.1003 33.5586 24.2066 33.5038 24.3012 33.4294C25.215 33.5195 26.1288 33.6252 27.0308 33.8211C28.5158 34.1461 29.9693 34.6318 31.34 35.2937C32.9077 36.0496 34.3769 37.0014 35.6886 38.1411C35.9446 38.3643 36.2243 38.4309 36.4764 38.3957C36.8939 38.897 37.4296 39.2965 38.0441 39.5628C38.8476 39.9114 39.6945 40.0485 40.5571 40.1111C40.6122 40.1229 40.6674 40.1386 40.7225 40.1464C43.9446 40.7496 47.0799 39.7704 50.1011 38.7364C51.2 38.3604 50.9243 36.9426 49.8411 36.8134C48.8682 36.6959 47.9898 35.8851 47.7259 34.949C48.4861 33.8759 49.0809 32.6931 49.4945 31.4319C49.5102 31.381 49.5221 31.3301 49.5299 31.2792C49.8923 30.9149 50.2586 30.5507 50.6171 30.1864C51.5506 29.2347 52.4881 28.283 53.4216 27.3312C53.5004 27.2529 53.5791 27.1706 53.6579 27.0923C54.7372 26.2894 55.7337 25.3768 56.6279 24.3742C57.392 23.5164 56.4467 22.3767 55.4344 22.8349Z" fill="#A1722A"/>
<mask id="mask0_2003_58" style="mask-type:luminance" maskUnits="userSpaceOnUse" x="12" y="22" width="45" height="19">
<path d="M55.4344 22.6665C55.0287 22.8506 54.7411 23.0229 54.426 23.3401C54.1542 23.6182 53.8785 23.8963 53.6067 24.1744C53.201 24.5856 52.7992 24.9969 52.3935 25.4081C50.1996 27.0257 47.659 28.1497 44.9411 28.6785C44.8466 28.6981 44.7678 28.7372 44.689 28.7842C42.5108 29.2542 40.3365 29.7242 38.1583 30.1942C37.9889 30.2295 37.8589 30.3078 37.7526 30.4096C32.0018 30.8718 26.1643 30.1002 20.7246 28.1772C18.7985 27.4957 16.9354 26.6614 15.1393 25.694C14.4184 25.3063 13.6425 25.9212 13.6464 26.587C13.5598 26.7084 13.5125 26.8494 13.4967 26.9983C13.0989 27.2372 12.8468 27.7659 13.0122 28.2242C12.7286 28.5923 12.6577 29.0741 12.9689 29.4618C13.0635 29.5793 13.1856 29.6694 13.3195 29.736C13.2801 30.1002 13.4455 30.4606 13.7882 30.6603C13.8118 30.8444 13.8355 31.0285 13.8591 31.2125C13.9024 31.5494 14.0758 31.9724 14.4263 32.1134C14.5996 32.6617 14.8635 33.1865 15.2456 33.6095C15.2653 33.7192 15.2968 33.8249 15.3559 33.9268C15.3914 33.9894 15.4386 34.0443 15.4819 34.103C15.5253 34.1578 15.5686 34.2205 15.6198 34.2714C15.7183 34.3693 15.8325 34.4516 15.9467 34.526C16.0649 34.6004 16.2106 34.6553 16.3367 34.7023C16.3958 34.7258 16.4588 34.7414 16.5218 34.7493C16.6597 34.7728 16.8094 34.8002 16.9512 34.7963C17.026 34.7963 17.1008 34.7806 17.1717 34.7728C17.2466 34.7649 17.3214 34.7571 17.3923 34.7375C17.6287 34.6788 17.8256 34.5652 18.0147 34.4242C18.5622 34.3498 19.1097 34.2205 19.6257 34.1343C21.0791 33.8915 22.5287 33.6526 23.9821 33.4098C24.1003 33.3902 24.2066 33.3354 24.3012 33.2609C25.215 33.351 26.1288 33.4568 27.0308 33.6526C28.5158 33.9777 29.9693 34.4633 31.34 35.1252C32.9077 35.8812 34.3769 36.8329 35.6886 37.9726C35.9446 38.1959 36.2243 38.2625 36.4764 38.2272C36.8939 38.7285 37.4296 39.128 38.0441 39.3944C38.8476 39.7429 39.6945 39.88 40.5571 39.9427C40.6122 39.9544 40.6674 39.9701 40.7225 39.9779C43.9446 40.5811 47.0799 39.6019 50.1011 38.568C51.2 38.192 50.9243 36.7741 49.8411 36.6449C48.8682 36.5274 47.9898 35.7167 47.7259 34.7806C48.4861 33.7074 49.0809 32.5246 49.4945 31.2635C49.5102 31.2125 49.5221 31.1616 49.5299 31.1107C49.8923 30.7465 50.2586 30.3822 50.6171 30.018C51.5506 29.0662 52.4881 28.1145 53.4216 27.1628C53.5004 27.0844 53.5791 27.0022 53.6579 26.9238C54.7372 26.1209 55.7337 25.2084 56.6279 24.2057C57.392 23.348 56.4467 22.2082 55.4344 22.6665Z" fill="white"/>
</mask>
<g mask="url(#mask0_2003_58)">
<path d="M30.6271 32.4188C30.6271 32.924 30.8674 33.4489 31.2849 33.8013C31.8166 34.2518 33.5064 35.0547 33.9791 35.5873C39.3006 41.6072 33.7034 36.6096 32.7423 37.0639C31.8757 37.4751 30.6901 37.1148 29.7842 37.0012C27.7871 36.7427 25.7901 36.4882 23.797 36.2297C23.6237 36.2257 23.4504 36.2062 23.2731 36.1631C22.7177 36.0338 22.379 35.462 22.5287 34.9607C22.6981 34.4045 23.2692 34.2008 23.8364 34.2753C23.8679 34.2753 23.8955 34.2831 23.927 34.287C23.9467 34.2831 23.9743 34.2674 24.0255 34.2361C24.1318 34.1578 24.2224 34.0481 24.2815 33.9267C24.3957 33.6838 24.3682 33.4567 24.2579 33.2099C23.8876 32.3796 22.9068 31.7686 22.1663 31.2399C20.3071 29.9043 18.2628 28.7763 16.1319 27.852C15.6119 27.6248 12.7838 26.7671 13.0556 26.3441C13.3628 25.8584 16.6873 25.9368 17.2072 26.16C17.2387 26.1757 17.2702 26.1874 17.3017 26.2031C17.5893 25.8467 18.251 25.6665 18.6764 25.9524C19.7636 26.6848 20.9295 27.3193 22.1387 27.8481C23.0723 28.0752 24.057 28.181 25.0063 28.2202C27.8738 28.3416 30.8122 28.0439 33.5734 28.9408C34.8536 29.356 35.3065 30.6015 33.7349 30.8169C32.6359 30.9657 30.631 31.33 30.6271 32.4188Z" fill="#724B1E"/>
<path d="M56.1119 22.3493C55.4226 23.1131 54.7333 23.8768 54.044 24.6445C52.7442 25.7881 51.2237 26.6733 49.5891 27.2529C48.4783 26.8064 47.0918 27.2882 46.501 28.3418C46.4892 28.3613 46.4852 28.377 46.4734 28.3966C45.9141 28.5924 45.3784 28.8509 44.8151 29.035C44.0982 29.27 43.3538 29.4541 42.6014 29.552C41.1559 29.7439 39.6748 29.6656 38.2568 29.3405C37.0239 29.0546 30.2057 29.9867 37.7329 31.2283C40.2972 31.6513 42.952 31.7257 45.4217 30.8954C45.981 30.7074 46.5088 30.4489 47.0682 30.257C47.3242 30.1669 47.8481 29.9554 48.0844 30.163C48.3168 30.3666 48.2302 30.8288 48.1238 31.0795C48.0726 31.2009 48.0056 31.3145 47.9347 31.4241C47.659 31.7296 47.2691 33.073 47.2927 33.4843C47.4227 35.8343 47.596 34.6318 48.498 33.731C48.7658 33.4608 49.0298 33.1788 49.2661 32.8772C51.3655 30.5468 53.465 28.2203 55.5644 25.8899C56.3364 25.1771 57.0415 24.3899 57.6599 23.5361C58.3138 22.6352 56.8564 21.5268 56.1119 22.3493Z" fill="#724B1E"/>
</g>
<path d="M44.4999 14.2536C44.1454 13.9285 43.4482 13.8228 43.1056 14.2536C42.7629 14.6883 42.3847 15.0917 41.9672 15.4599C41.8648 15.55 41.7624 15.6362 41.66 15.7223C41.6482 15.7302 41.5773 15.7889 41.5418 15.8163C41.5142 15.8359 41.4748 15.8672 41.467 15.8712C41.2385 16.0396 41.0022 16.1962 40.758 16.3451C40.5256 16.4861 40.2892 16.6153 40.049 16.7328C39.9268 16.7916 39.8047 16.8464 39.6826 16.9051C39.6708 16.9091 39.6669 16.913 39.6629 16.9169C39.6511 16.9208 39.6432 16.9247 39.6275 16.9286C39.5723 16.9521 39.5172 16.9717 39.4621 16.9952C38.9303 17.1989 38.3789 17.3516 37.8195 17.4535C37.3114 17.5475 36.9766 18.182 37.1302 18.6598C37.3075 19.2003 37.7998 19.447 38.3434 19.3452C40.7383 18.8948 42.9874 17.5514 44.4999 15.6479C44.819 15.2484 44.9214 14.6492 44.4999 14.2614V14.2536Z" fill="#F7F3E3"/>
<path d="M47.7416 11.1162C47.6786 10.889 47.5013 10.6423 47.2886 10.5326C47.0601 10.4112 46.7844 10.3524 46.5284 10.4347C46.2842 10.513 46.0715 10.6619 45.9415 10.8851C45.6224 11.4295 45.3073 11.9739 44.9883 12.5183C44.8583 12.7377 44.8228 13.0275 44.8898 13.2742C44.9528 13.5014 45.1301 13.7482 45.3428 13.8578C45.5712 13.9792 45.847 14.038 46.103 13.9557C46.3472 13.8774 46.5599 13.7286 46.6899 13.5053C47.0089 12.9609 47.3241 12.4165 47.6431 11.8721C47.7731 11.6528 47.8085 11.3629 47.7416 11.1162Z" fill="#F7F3E3"/>
<path d="M21.1223 23.8613C20.9411 23.8064 20.7599 23.7438 20.5827 23.6772C20.4921 23.6459 20.4054 23.6106 20.3188 23.5754C20.3188 23.5754 20.2912 23.5636 20.2676 23.5519C20.2282 23.5323 20.1139 23.4853 20.1179 23.4853C19.7594 23.3208 19.4089 23.1367 19.0701 22.9369C18.7432 22.7411 18.4242 22.5257 18.1169 22.2946C18.0893 22.2711 17.9791 22.185 17.9554 22.1654C17.8806 22.1066 17.8097 22.044 17.7388 21.9813C17.5852 21.8481 17.4315 21.7071 17.2858 21.5661C17.0022 21.292 16.7383 21.0021 16.4901 20.6966C16.4823 20.6849 16.4389 20.6301 16.4153 20.6026C16.3995 20.5831 16.3838 20.5596 16.3838 20.5596C16.3286 20.4851 16.2774 20.4107 16.2302 20.3363C16.179 20.258 16.1356 20.1757 16.0923 20.0935C16.0923 20.0935 16.0805 20.0661 16.0687 20.0465C16.0569 20.0151 16.0372 19.9564 16.0332 19.9446C16.0253 19.9251 16.0214 19.9016 16.0175 19.882C16.045 19.882 16.0687 19.8781 16.0805 19.8781C16.0805 19.8781 16.0805 19.8781 16.0844 19.8781C16.1238 19.8859 16.1593 19.8937 16.1987 19.9055C16.242 19.9172 16.2814 19.9329 16.3247 19.9446C16.3326 19.9446 16.3326 19.9486 16.3444 19.9525C16.4508 20.0034 16.5571 20.0661 16.6595 20.1248C16.8643 20.2462 17.0652 20.3794 17.2582 20.5204C17.3016 20.5517 17.3409 20.5791 17.3803 20.6105C17.3922 20.6183 17.4 20.6261 17.4079 20.6301C17.4118 20.634 17.4158 20.6379 17.4237 20.6457C17.5182 20.7201 17.6088 20.7946 17.6994 20.8729C18.0893 21.2058 18.4478 21.57 18.7787 21.9578C19.1135 22.3495 19.8303 22.326 20.173 21.9578C20.559 21.5387 20.5315 20.9904 20.173 20.5713C19.4601 19.7331 18.5975 19.0007 17.6521 18.4328C17.1322 18.1234 16.5217 17.8728 15.9032 17.9198C15.2376 17.9746 14.564 18.2997 14.2568 18.9185C13.6581 20.117 14.4301 21.2841 15.1903 22.1889C15.852 22.9761 16.6359 23.6576 17.4827 24.2451C18.432 24.9031 19.4955 25.4005 20.6024 25.7491C21.0947 25.9018 21.6974 25.5689 21.8156 25.0637C21.9377 24.531 21.6541 24.0258 21.1262 23.8574L21.1223 23.8613Z" fill="#F7F3E3"/>
<path d="M26.6368 25.5569C26.5029 25.3493 26.2981 25.1574 26.0499 25.1065L23.6275 24.6013C23.3675 24.5464 23.1036 24.5621 22.8673 24.6992C22.6625 24.8167 22.4694 25.0517 22.4143 25.2828C22.3552 25.5334 22.371 25.8154 22.5128 26.0387C22.6467 26.2462 22.8515 26.4382 23.0997 26.4891C23.9071 26.6575 24.7146 26.8259 25.5221 26.9943C25.7821 27.0492 26.046 27.0335 26.2823 26.8964C26.4871 26.7789 26.6801 26.5439 26.7353 26.3128C26.7944 26.0622 26.7786 25.7802 26.6368 25.5569Z" fill="#F7F3E3"/>
<path d="M45.0042 24.5427C44.7836 24.4331 44.5079 24.3743 44.2676 24.4566L41.924 25.2516C41.6719 25.3378 41.4552 25.4866 41.3213 25.7216C41.2071 25.9292 41.1598 26.2269 41.2347 26.4541C41.3134 26.6969 41.471 26.9358 41.7073 27.0533C41.9279 27.163 42.2036 27.2217 42.4439 27.1395C43.2238 26.8731 44.0077 26.6107 44.7876 26.3444C45.0397 26.2582 45.2563 26.1094 45.3902 25.8744C45.5045 25.6668 45.5517 25.3691 45.4769 25.142C45.3981 24.8992 45.2405 24.6602 45.0042 24.5427Z" fill="#F7F3E3"/>
<path d="M25.2151 6.75722C23.2142 6.98047 21.355 7.79904 19.8897 9.18161C19.5155 9.5341 19.5037 10.2156 19.8897 10.5681C20.2915 10.9363 20.8823 10.9441 21.2841 10.5681C21.4338 10.4271 21.5834 10.2939 21.741 10.1647C21.7686 10.1412 21.7961 10.1177 21.8277 10.0981C21.8355 10.0942 21.8355 10.0942 21.8434 10.0863C21.9261 10.0276 22.0088 9.96885 22.0916 9.9101C22.4382 9.6751 22.8045 9.46752 23.1866 9.29127C23.2339 9.26777 23.2772 9.24819 23.3244 9.22861C23.3363 9.22469 23.3717 9.20902 23.3993 9.19727C23.419 9.18944 23.4347 9.18161 23.4426 9.18161C23.4899 9.16202 23.5371 9.14636 23.5844 9.12677C23.7774 9.05628 23.9704 8.99361 24.1674 8.93878C24.3643 8.88394 24.5613 8.83694 24.7622 8.79386C24.8606 8.77428 24.963 8.7547 25.0615 8.73903C25.0773 8.73903 25.1403 8.72728 25.1639 8.72336C25.1915 8.72336 25.2151 8.71945 25.2151 8.71553C25.7272 8.6607 26.2274 8.30428 26.1999 7.73637C26.1762 7.25463 25.7626 6.69847 25.2151 6.75722Z" fill="#F7F3E3"/>
<path d="M45.6186 41.0354C45.3744 40.6164 44.7008 40.3657 44.2715 40.6829C41.9554 42.3984 39.1194 40.5341 37.1499 39.1907C35.8816 38.3251 34.6054 37.5418 33.1795 36.9582C31.7615 36.3786 30.2726 36.0261 28.7482 35.8577C25.4828 35.4934 22.3278 36.4765 19.0821 36.547C16.829 36.594 14.123 36.0652 12.8113 34.0403C10.9561 31.1695 12.3505 27.5662 13.4376 24.6953C13.6267 24.2018 13.2289 23.6221 12.7483 23.489C12.1969 23.3362 11.7242 23.677 11.5351 24.1744C10.4047 27.1628 9.25057 30.5271 10.4519 33.6839C11.5273 36.5196 14.1466 38.004 17.0614 38.3917C20.4135 38.8382 23.6828 37.7376 27.0269 37.7259C28.5867 37.722 30.1268 37.9766 31.6079 38.4622C33.1283 38.9596 34.4872 39.7469 35.8028 40.6438C37.2602 41.6347 38.7373 42.6843 40.4822 43.1034C42.0893 43.4912 43.9052 43.3893 45.268 42.3788C45.6934 42.0616 45.9101 41.5328 45.6225 41.0394L45.6186 41.0354Z" fill="#F7F3E3"/>
<path d="M59.003 20.2737C58.6918 19.8468 58.1443 19.6392 57.6559 19.9212C57.2305 20.1679 56.9902 20.8298 57.3014 21.2607C58.6564 23.1367 58.7548 25.6943 57.2738 27.5508C56.9429 27.9659 56.8681 28.5299 57.2738 28.9373C57.6165 29.278 58.3334 29.3524 58.6682 28.9373C59.6687 27.6879 60.2713 26.2074 60.3304 24.6016C60.3856 23.0741 59.9011 21.5153 59.0069 20.2776L59.003 20.2737Z" fill="#F7F3E3"/>
<path d="M53.0788 18.1585C52.1255 17.8334 51.129 17.5985 50.164 17.3204C49.0099 16.9914 48.482 18.6638 49.4628 19.1377C48.5569 19.263 47.6627 19.4902 46.7686 19.8153C44.8779 20.5007 42.9951 21.4289 40.9311 21.2879C40.3994 21.2527 39.9464 21.7657 39.9464 22.2671C39.9464 22.8271 40.3994 23.211 40.9311 23.2462C42.9873 23.3911 44.8976 22.6117 46.7765 21.8989C47.4776 21.6326 48.1787 21.4015 48.8878 21.2331C49.0532 21.4407 49.2974 21.5817 49.6086 21.5738C50.6012 21.5503 51.6017 21.5621 52.5903 21.5033C53.5081 21.4485 55.194 21.472 55.2846 20.4341C55.3712 19.4667 53.9138 18.4405 53.0788 18.1585Z" fill="#D9B87C"/>
<path d="M54.4653 18.6365C53.2206 17.3557 52.2359 15.8557 51.515 14.2263C51.3969 13.96 50.9242 13.8934 50.743 14.1284C50.1719 14.8608 49.6007 15.5932 49.0296 16.3256C48.8445 16.5646 48.8248 16.9249 49.1281 17.0933C49.7622 17.4419 50.3924 17.7944 51.0266 18.143C50.3767 18.092 49.7189 18.1351 49.0729 18.2448C47.5485 18.4994 46.0399 19.0085 44.6141 19.5882C43.0306 20.2305 41.5181 21.0138 40.0804 21.9382C39.5486 22.2789 40.0449 23.1288 40.5767 22.7842C41.9632 21.8912 43.4245 21.1157 44.9528 20.5008C46.5008 19.878 48.1867 19.2788 49.8568 19.1221C50.6524 19.0477 51.4638 19.0986 52.2122 19.3963C52.5549 19.5334 52.8897 19.7253 53.1694 19.9681C53.4215 20.1914 53.6105 20.4734 53.8863 20.677C54.3826 21.0452 55.1191 20.9825 55.3318 20.3245C55.5642 19.5999 54.9064 19.0986 54.4653 18.6404V18.6365Z" fill="#A37D41"/>
<path d="M41.7072 9.34596C39.7889 9.65929 37.8549 9.85512 35.9169 9.9452C34.3965 9.9452 32.8761 9.95304 31.3596 9.95695C31.2336 9.95695 31.1233 9.98045 31.0209 10.0157C29.8038 9.82379 28.5984 9.75721 27.3459 10.0079C24.2617 10.6267 21.6856 12.82 20.4882 15.6831C20.2834 16.1726 20.634 16.5408 21.1027 16.67C21.6699 16.8267 21.8786 16.58 22.0835 16.0904C22.1307 15.9729 22.4931 15.9768 22.5483 15.8632C22.6901 15.8201 22.8279 15.7496 22.9579 15.6282C23.273 15.3384 23.6039 15.0681 23.9466 14.8096C26.2705 13.29 29.4768 13.6425 32.1317 13.7913C34.0341 13.8971 35.9366 13.8853 37.7919 13.3997C39.4777 12.9571 41.0809 12.1855 42.4713 11.1398C43.3694 10.4661 42.8494 9.16188 41.7111 9.34988L41.7072 9.34596Z" fill="#724B1E"/>
<path d="M33.3174 18.6909C33.3174 18.6909 33.9279 21.832 34.8339 22.541C35.7398 23.2499 32.0058 22.306 30.1742 21.8516C28.3426 21.3973 33.3174 18.6909 33.3174 18.6909Z" fill="#A37D41"/>
<path d="M3.87402 18.5739C4.2364 17.818 4.54757 17.0347 4.73664 16.22C4.8942 15.5424 5.01237 14.8727 5.22901 14.2108C5.67017 12.8635 6.33978 11.5984 7.12363 10.4195C8.76615 7.95202 10.9759 5.78613 13.5086 4.2234C16.2619 2.52358 19.5115 1.77943 22.706 1.42693C26.2195 1.03918 29.7606 1.14102 33.2859 1.2781C35.1648 1.35251 37.0436 1.42693 38.9225 1.50135C40.6871 1.57184 42.4596 1.61101 44.2203 1.79509C45.981 1.97917 47.6551 2.316 49.2267 3.02491C50.7038 3.69074 52.0391 4.62681 53.2562 5.6843C57.8648 9.69492 61.4177 15.1077 63.198 20.9356C64.9666 26.7283 64.8288 32.9401 62.3512 38.5095C59.8775 44.0672 55.5723 48.6888 50.6014 52.1472C45.5162 55.6839 39.667 57.9281 33.4356 58.1749C27.7635 58.3981 21.9773 57.0038 17.3412 53.6668C14.7179 51.779 12.6066 49.2802 10.7829 46.6443C9.85329 45.3009 9.01431 43.9027 8.10442 42.5476C7.19453 41.1924 6.32403 39.9665 5.46928 38.6505C4.61454 37.3345 3.87402 36.089 3.25167 34.7143C2.58599 33.2495 2.18029 31.722 1.87699 30.1475C1.36493 27.4725 1.08527 24.8092 2.05424 22.2007C2.53085 20.9239 3.28318 19.792 3.87402 18.57C4.14974 18.006 3.29894 17.5086 3.02321 18.0765C2.40086 19.3533 1.63278 20.54 1.12859 21.8756C0.651986 23.1329 0.407773 24.4606 0.392017 25.8001C0.376262 27.2414 0.60078 28.6749 0.864687 30.0888C1.17192 31.7338 1.57369 33.3122 2.23937 34.8553C3.51558 37.8084 5.47322 40.3895 7.25361 43.0489C9.15217 45.8845 10.8932 48.7946 13.2289 51.313C17.3648 55.7662 22.9738 58.3394 29.0043 59.0052C35.0348 59.671 41.1756 58.449 46.5561 55.7231C52.3581 52.7817 57.5851 48.3167 61.1144 42.853C62.7726 40.2837 64.0488 37.4481 64.75 34.4715C65.4669 31.44 65.5693 28.3028 65.1478 25.2243C64.297 19.0008 61.3625 13.1494 57.2857 8.3946C55.1823 5.93888 52.7126 3.54191 49.723 2.19067C46.4655 0.71802 42.826 0.690604 39.3164 0.549606C35.5075 0.389024 31.6946 0.16186 27.8857 0.177527C24.0767 0.193193 20.5711 0.490856 17.0851 1.56009C14.1743 2.44917 11.6219 4.06673 9.43183 6.16213C7.24179 8.25752 5.40626 10.7759 4.39002 13.6194C4.1655 14.2421 4.00007 14.8766 3.87402 15.5268C3.70071 16.4158 3.41317 17.2618 3.01927 18.0804C2.74749 18.6483 3.5983 19.1457 3.87008 18.5739H3.87402Z" fill="#472C16"/>
<path d="M16.0294 41.9406C11.2909 38.0632 9.38049 31.7888 10.704 25.8786C11.1136 24.0495 11.8108 22.3066 12.7404 20.6812C13.0555 20.1329 12.2047 19.6394 11.8896 20.1877C8.65573 25.8394 8.31304 33.0147 11.8108 38.6389C12.7522 40.1547 13.9457 41.502 15.3282 42.6339C15.8127 43.0295 16.5139 42.3441 16.0254 41.9406H16.0294Z" fill="#472C16"/>
<path d="M21.8786 37.3032C19.535 38.1139 17.0298 38.4037 14.6783 37.4716C12.9058 36.7705 11.2829 35.4976 10.7551 33.6098C10.5858 33.0027 9.63648 33.2612 9.80585 33.8683C10.4085 36.0185 12.185 37.4872 14.1938 38.3215C16.7659 39.3907 19.5547 39.1401 22.1425 38.2432C22.7373 38.0356 22.4813 37.0917 21.8826 37.2992L21.8786 37.3032Z" fill="#472C16"/>
<path d="M16.1713 15.9221C16.1792 14.3046 16.5967 12.6988 17.2151 11.2065C17.8335 9.71429 18.6883 8.2808 19.8384 7.13323C20.2875 6.68674 19.5903 5.9935 19.1413 6.43999C17.9005 7.67373 16.9945 9.20904 16.321 10.8109C15.6474 12.4128 15.1984 14.1636 15.1866 15.9182C15.1866 16.5488 16.1674 16.5488 16.1713 15.9182V15.9221Z" fill="#472C16"/>
<path d="M31.6668 6.57355C35.7987 5.82939 39.9582 6.61663 43.905 7.87778C47.3201 8.97052 50.6288 10.3883 53.3821 12.7266C54.6583 13.8115 55.7966 15.057 56.7026 16.463C57.7385 18.0767 58.6878 19.8352 59.3692 21.6251C60.4248 24.3981 60.5588 27.5627 58.6602 30.0106C57.1122 32.0042 54.737 32.9794 52.9882 34.7341C52.5431 35.1806 53.2363 35.8738 53.6854 35.4273C54.4416 34.6714 55.3555 34.0957 56.226 33.4807C57.2383 32.7601 58.2387 32.0003 59.058 31.0642C61.1338 28.6946 61.5592 25.5613 60.7242 22.5808C60.2003 20.7126 59.2786 18.9657 58.3293 17.2816C57.3801 15.5974 56.3362 14.1522 54.9813 12.8441C52.3422 10.2983 49.065 8.61019 45.6185 7.4117C41.0493 5.82547 36.2438 4.75232 31.4068 5.62181C30.7845 5.73539 31.0484 6.67929 31.6668 6.56571V6.57355Z" fill="#472C16"/>
<path d="M53.7209 41.102C52.8307 42.2261 51.4324 42.8958 50.1562 43.4912C48.8091 44.1178 47.4068 44.627 46.0676 45.2693C45.4964 45.5435 45.9967 46.3855 46.5639 46.1153C47.9386 45.4573 49.3723 44.9364 50.751 44.2901C52.1296 43.6439 53.4964 42.9507 54.4141 41.7953C54.8041 41.3057 54.1109 40.6085 53.717 41.102H53.7209Z" fill="#472C16"/>
<path d="M22.6601 47.3291C27.1781 50.6386 33.4015 51.2222 38.4946 48.9114C39.0696 48.649 38.5694 47.8069 37.9983 48.0654C33.2125 50.2352 27.3789 49.5733 23.1564 46.4831C22.6444 46.1071 22.1559 46.957 22.6601 47.3291Z" fill="#472C16"/>
<path d="M33.5773 19.2711C33.5773 21.1197 32.7541 22.0754 30.4301 22.0754C29.3351 22.0754 27.8541 21.5114 27.1057 20.963C26.2667 20.3521 25.1677 20.2463 25.1677 19.2711C25.1677 17.4224 27.0505 15.9263 29.3705 15.9263C31.6906 15.9263 33.5734 17.4224 33.5734 19.2711H33.5773Z" fill="#472C16"/>
<path d="M31.4081 17.7095C31.4599 17.3433 30.9501 16.9691 30.2694 16.8739C29.5887 16.7786 28.9948 16.9983 28.943 17.3646C28.8911 17.7309 29.401 18.105 30.0817 18.2003C30.7624 18.2955 31.3563 18.0758 31.4081 17.7095Z" fill="white"/>
<path d="M44.756 21.1393C43.8894 19.8585 44.0824 19.647 45.7368 18.5426C46.5167 18.0216 47.8559 17.2109 48.5728 16.8858C49.6166 16.4158 50.2902 16.4589 50.7471 17.1365C51.6136 18.4172 50.9716 20.352 49.3172 21.4565C47.6629 22.561 45.6186 22.42 44.752 21.1393H44.756Z" fill="#472C16"/>
<path d="M49.3902 18.4914C49.4315 18.1848 48.9913 17.8732 48.407 17.7953C47.8227 17.7175 47.3156 17.9029 47.2743 18.2095C47.2329 18.5161 47.6731 18.8277 48.2575 18.9056C48.8418 18.9834 49.3489 18.798 49.3902 18.4914Z" fill="white"/>
<path d="M20.6183 16.7565C20.6183 17.3518 26.1092 13.0984 29.7842 13.5566C33.4592 14.0149 36.0904 14.4378 38.4222 13.5057C40.2814 12.7655 43.1095 10.6309 43.1253 10.3841C43.2316 8.63733 39.1352 9.65174 34.8693 9.9494C31.8088 10.1648 28.2598 9.8084 26.5149 10.1805C24.3051 10.6505 20.6932 13.0827 20.6144 16.7565H20.6183Z" stroke="#472C16" stroke-width="0.977444" stroke-miterlimit="10"/>
<path d="M38.9383 22.7763C38.9383 22.4982 50.9992 16.5019 50.4793 13.6193C49.9594 10.7366 54.0676 19.1221 55.5369 20.2383C57.0061 21.3546 48.0569 21.2253 46.0677 22.3886C44.0786 23.5518 38.9343 23.0544 38.9343 22.7763H38.9383Z" stroke="#472C16" stroke-width="0.977444" stroke-miterlimit="10"/>
<path d="M15.9703 25.9879C28.1455 32.7519 42.2941 31.4751 53.5161 24.8443C53.8942 24.621 54.1739 24.2764 54.359 23.8769C55.4579 21.5073 57.8449 22.5844 56.0606 24.8247C51.0739 31.0795 43.6727 34.7377 50.7391 37.2208C51.3536 37.4362 51.1133 38.4389 50.5185 38.6974C47.7219 39.9233 40.5216 41.8346 37.2089 39.1987C24.1711 28.8197 18.5109 36.5315 15.8246 34.9296C15.2731 34.6006 13.0082 30.3981 13.0398 28.3653C13.0752 26.2973 14.1387 24.9422 15.9703 25.9879Z" stroke="#472C16" stroke-width="0.977444" stroke-miterlimit="10"/>
<path d="M13.5203 17.1833C17.1166 16.49 20.2677 18.9614 22.8674 21.0725C25.4671 23.1835 28.2952 25.3847 31.8048 25.3847C32.4389 25.3847 32.4389 24.4055 31.8048 24.4055C28.1298 24.4055 25.2937 21.7383 22.5995 19.5998C19.9053 17.4613 16.7936 15.5579 13.2604 16.2354C12.638 16.3569 12.9019 17.3008 13.5203 17.1794V17.1833Z" fill="#472C16"/>
<path d="M44.8466 34.0014C44.5748 33.5393 43.9643 33.3865 43.4995 33.649C41.6758 34.679 39.3557 34.8004 37.4808 33.9388C37.0003 33.7155 36.4212 33.8017 36.1337 34.2913C35.8856 34.7143 36.0037 35.4075 36.4882 35.6308C39.0446 36.8057 42.0342 36.7313 44.4921 35.3409C44.9529 35.0785 45.1105 34.4519 44.8466 34.0014Z" fill="#D9B87C"/>
</svg>
