<svg width="1440" height="552" viewBox="0 0 1440 552" fill="none" xmlns="http://www.w3.org/2000/svg">
<g clip-path="url(#clip0_2012_3798)">
<path d="M0 85.4473C0 85.4473 89 46.4744 428 24.4896C767 2.50487 976 7.00169 1144 24.4896C1312 41.9776 1440 59.4654 1440 59.4654V495.663C1440 495.663 1003.5 529.64 687.5 529.64C371.5 529.64 0 495.663 0 495.663V85.4473Z" fill="#39A2DD"/>
<path d="M1478.7 62.8977C1327.83 35.9754 973.44 -14.0198 762.824 1.37772C499.555 20.6246 196.5 11 -56.4935 94.5336C-77.8878 101.598 -79.8915 74.5608 -67.9996 71" stroke="white" stroke-width="7" stroke-linecap="round"/>
<path d="M-118 457C31.4586 490.893 383.152 557.276 594.255 551.666C858.134 544.653 1420.5 506.5 1471.1 494.458C1493.02 489.242 1493.54 515.495 1481.5 518.5" stroke="white" stroke-width="7" stroke-linecap="round"/>
</g>
<defs>
<clipPath id="clip0_2012_3798">
<rect width="1440" height="552" fill="white"/>
</clipPath>
</defs>
</svg>
