<svg width="23" height="19" viewBox="0 0 23 19" fill="none" xmlns="http://www.w3.org/2000/svg">
<path d="M21.1884 0.0736553L0.480961 8.05565C-0.189758 8.31422 -0.149124 9.26627 0.5413 9.46791L5.80329 11.0049L7.76707 17.1686C7.97221 17.8124 8.79703 18.0076 9.27451 17.5254L11.9951 14.7776L17.3331 18.6534C17.9864 19.1277 18.9167 18.7753 19.0826 17.9908L22.618 1.27117C22.7911 0.452192 21.9766 -0.230142 21.1884 0.0736553ZM18.5923 3.78415L8.97377 12.1976C8.87789 12.2815 8.81688 12.3975 8.80261 12.5234L8.43229 15.7796C8.42019 15.8858 8.26996 15.8999 8.23789 15.7978L6.71428 10.9416C6.6445 10.7193 6.73548 10.4784 6.93545 10.3557L18.2939 3.38746C18.5551 3.2271 18.8226 3.58278 18.5923 3.78415Z" fill="#F2F2F2"/>
</svg>
