<svg width="24" height="19" viewBox="0 0 24 19" fill="none" xmlns="http://www.w3.org/2000/svg">
<path d="M23.2852 2.19492C22.7612 2.4184 22.2172 2.59471 21.6591 2.72235C22.2741 2.16025 22.7366 1.45718 22.9974 0.67243C23.0719 0.448398 22.8189 0.254671 22.6086 0.374623C21.832 0.817601 20.9956 1.14992 20.1224 1.36245C20.0718 1.37478 20.0195 1.38103 19.9671 1.38103C19.808 1.38103 19.6534 1.32423 19.5318 1.22115C18.6028 0.433687 17.4079 0 16.1674 0C15.6306 0 15.0887 0.0804661 14.5565 0.239186C12.9078 0.730996 11.6357 2.03897 11.2366 3.65271C11.0868 4.25801 11.0463 4.86385 11.116 5.45338C11.124 5.52113 11.0907 5.56841 11.0702 5.59059C11.0341 5.62947 10.983 5.65176 10.9299 5.65176C10.924 5.65176 10.9179 5.65148 10.9119 5.65093C7.3029 5.32845 4.04849 3.65625 1.74811 0.94242C1.6308 0.803996 1.40585 0.820974 1.31235 0.975215C0.86188 1.71849 0.62382 2.56861 0.62382 3.43366C0.62382 4.75938 1.17763 6.00874 2.13958 6.91952C1.73505 6.82728 1.34352 6.682 0.979818 6.48772C0.80386 6.3937 0.587363 6.51454 0.584891 6.7081C0.559705 8.67755 1.75863 10.43 3.55466 11.2191C3.51849 11.2199 3.48232 11.2203 3.4461 11.2203C3.1614 11.2203 2.87314 11.1939 2.58943 11.1417C2.39127 11.1054 2.2248 11.2861 2.28633 11.4709C2.86929 13.2213 4.43635 14.5115 6.31162 14.8045C4.75525 15.8093 2.94284 16.3393 1.05647 16.3393L0.468391 16.339C0.287201 16.339 0.133957 16.4526 0.0877823 16.6213C0.0422979 16.7876 0.126079 16.963 0.280588 17.0494C2.40622 18.2391 4.83081 18.8679 7.2933 18.8679C9.44878 18.8679 11.465 18.4565 13.2861 17.6452C14.9556 16.9015 16.4309 15.8383 17.671 14.4852C18.8262 13.2247 19.7296 11.7696 20.3559 10.1604C20.9529 8.62645 21.2685 6.9897 21.2685 5.42706V5.35262C21.2685 5.10171 21.3865 4.86562 21.5923 4.70491C22.3735 4.09492 23.0537 3.37686 23.6141 2.57071C23.7621 2.35785 23.5287 2.09107 23.2852 2.19492Z" fill="#F2F2F2"/>
</svg>
