<svg width="60" height="60" viewBox="0 0 60 60" fill="none" xmlns="http://www.w3.org/2000/svg">
<circle cx="30" cy="30" r="28.5" fill="#C7A08F" stroke="#F9F9F9" stroke-width="3"/>
<path d="M25.6934 34.5815C25.7812 35.355 26.1943 35.9834 26.9326 36.4668C27.6621 36.9414 28.5586 37.1787 29.6221 37.1787C30.6768 37.1787 31.5381 36.9502 32.2061 36.4932C32.8652 36.0449 33.1948 35.4692 33.1948 34.7661C33.1948 34.1509 32.9487 33.6543 32.4565 33.2764C31.9644 32.8984 31.1426 32.582 29.9912 32.3271L27.5127 31.7866C24.0234 31.0396 22.2788 29.2686 22.2788 26.4736C22.2788 24.7334 22.96 23.3228 24.3223 22.2417C25.6758 21.1782 27.4204 20.6465 29.5562 20.6465C31.7534 20.6465 33.5112 21.1694 34.8296 22.2153C36.1304 23.2524 36.7983 24.6367 36.8335 26.3682H33.1025C33.041 25.5684 32.6851 24.9355 32.0347 24.4697C31.3931 24.0127 30.5713 23.7842 29.5693 23.7842C28.585 23.7842 27.7939 23.9995 27.1963 24.4302C26.5898 24.8608 26.2866 25.4277 26.2866 26.1309C26.2866 26.7109 26.5327 27.1855 27.0249 27.5547C27.5083 27.9062 28.2993 28.2095 29.3979 28.4644L31.7051 28.9521C33.6123 29.3564 35.001 29.9893 35.8711 30.8506C36.7412 31.7031 37.1763 32.8545 37.1763 34.3047C37.1763 36.1504 36.4819 37.6138 35.0933 38.6948C33.7046 39.7847 31.8281 40.3296 29.4639 40.3296C27.1699 40.3296 25.3462 39.8198 23.9927 38.8003C22.6304 37.772 21.9185 36.3657 21.8569 34.5815H25.6934Z" fill="white"/>
</svg>
