<svg width="60" height="60" viewBox="0 0 60 60" fill="none" xmlns="http://www.w3.org/2000/svg">
<circle cx="30" cy="30" r="28.5" fill="#8FC7A5" stroke="#F9F9F9" stroke-width="3"/>
<path d="M29.8989 20.9761C32.7642 20.9761 34.9878 21.7935 36.5698 23.4282C38.1694 25.0806 38.9692 27.4097 38.9692 30.4155C38.9692 33.4302 38.1694 35.7812 36.5698 37.4688C34.979 39.1562 32.7554 40 29.8989 40H22.5688V20.9761H29.8989ZM26.5503 36.7041H29.4243C31.2085 36.7041 32.5664 36.1724 33.498 35.1089C34.4385 34.0366 34.9087 32.4766 34.9087 30.4287C34.9087 28.4424 34.4341 26.9175 33.4849 25.854C32.5356 24.7905 31.1821 24.2588 29.4243 24.2588H26.5503V36.7041Z" fill="white"/>
</svg>
