<svg width="14" height="14" viewBox="0 0 14 14" fill="none" xmlns="http://www.w3.org/2000/svg">
<path d="M13.7742 1.12903H12.4194V0.225806C12.4194 0.101106 12.3182 0 12.1935 0H11.0645C10.9398 0 10.8387 0.101106 10.8387 0.225806V1.12903H3.16129V0.225806C3.16129 0.101106 3.06018 0 2.93548 0H1.80645C1.68175 0 1.58065 0.101106 1.58065 0.225806V1.12903H0.225806C0.101106 1.12903 0 1.23014 0 1.35484V13.7742C0 13.8989 0.101106 14 0.225806 14H13.7742C13.8989 14 14 13.8989 14 13.7742V1.35484C14 1.23014 13.8989 1.12903 13.7742 1.12903ZM6.77419 4.51613V7.22581H3.83871V4.51613H6.77419ZM10.1613 4.51613V7.22581H7.22581V4.51613H10.1613ZM13.5484 4.51613V7.22581H10.6129V4.51613H13.5484ZM6.77419 7.67742V10.3871H3.83871V7.67742H6.77419ZM6.77419 10.8387V13.5484H3.83871V10.8387H6.77419ZM7.22581 10.8387H10.1613V13.5484H7.22581V10.8387ZM7.22581 10.3871V7.67742H10.1613V10.3871H7.22581ZM10.6129 7.67742H13.5484V10.3871H10.6129V7.67742ZM11.2903 0.451613H11.9677V2.25806H11.2903V0.451613ZM2.03226 0.451613H2.70968V2.25806H2.03226V0.451613ZM0.451613 1.58065H1.58065V2.48387C1.58065 2.60857 1.68175 2.70968 1.80645 2.70968H2.93548C3.06018 2.70968 3.16129 2.60857 3.16129 2.48387V1.58065H10.8387V2.48387C10.8387 2.60857 10.9398 2.70968 11.0645 2.70968H12.1935C12.3182 2.70968 12.4194 2.60857 12.4194 2.48387V1.58065H13.5484V4.06452H0.451613V1.58065ZM0.451613 4.51613H3.3871V7.22581H0.451613V4.51613ZM3.3871 7.67742V10.3871H0.451613V7.67742H3.3871ZM0.451613 10.8387H3.3871V13.5484H0.451613V10.8387ZM10.6129 13.5484V10.8387H13.5484V13.5484H10.6129Z" fill="white"/>
</svg>
