<svg width="11" height="11" viewBox="0 0 11 11" fill="none" xmlns="http://www.w3.org/2000/svg">
<path d="M10.8226 0.887097H9.75806V0.177419C9.75806 0.0794402 9.67862 0 9.58064 0H8.69355C8.59557 0 8.51613 0.0794402 8.51613 0.177419V0.887097H2.48387V0.177419C2.48387 0.0794402 2.40443 0 2.30645 0H1.41935C1.32138 0 1.24194 0.0794402 1.24194 0.177419V0.887097H0.177419C0.0794402 0.887097 0 0.966537 0 1.06452V10.8226C0 10.9206 0.0794402 11 0.177419 11H10.8226C10.9206 11 11 10.9206 11 10.8226V1.06452C11 0.966537 10.9206 0.887097 10.8226 0.887097ZM5.32258 3.54839V5.67742H3.01613V3.54839H5.32258ZM7.98387 3.54839V5.67742H5.67742V3.54839H7.98387ZM10.6452 3.54839V5.67742H8.33871V3.54839H10.6452ZM5.32258 6.03226V8.16129H3.01613V6.03226H5.32258ZM5.32258 8.51613V10.6452H3.01613V8.51613H5.32258ZM5.67742 8.51613H7.98387V10.6452H5.67742V8.51613ZM5.67742 8.16129V6.03226H7.98387V8.16129H5.67742ZM8.33871 6.03226H10.6452V8.16129H8.33871V6.03226ZM8.87097 0.354839H9.40323V1.77419H8.87097V0.354839ZM1.59677 0.354839H2.12903V1.77419H1.59677V0.354839ZM0.354839 1.24194H1.24194V1.95161C1.24194 2.04959 1.32138 2.12903 1.41935 2.12903H2.30645C2.40443 2.12903 2.48387 2.04959 2.48387 1.95161V1.24194H8.51613V1.95161C8.51613 2.04959 8.59557 2.12903 8.69355 2.12903H9.58064C9.67862 2.12903 9.75806 2.04959 9.75806 1.95161V1.24194H10.6452V3.19355H0.354839V1.24194ZM0.354839 3.54839H2.66129V5.67742H0.354839V3.54839ZM2.66129 6.03226V8.16129H0.354839V6.03226H2.66129ZM0.354839 8.51613H2.66129V10.6452H0.354839V8.51613ZM8.33871 10.6452V8.51613H10.6452V10.6452H8.33871Z" fill="#4F4F4F"/>
</svg>
