<svg width="10" height="10" viewBox="0 0 10 10" fill="none" xmlns="http://www.w3.org/2000/svg">
<path d="M8.86323 6.41483C8.27629 6.4067 7.70125 6.30691 7.15762 6.11887C6.89128 6.02389 6.56115 6.10307 6.3955 6.26855L5.30628 7.06735C4.06542 6.38272 3.30604 5.60226 2.66503 4.35242L3.46936 3.3135C3.6774 3.11142 3.75514 2.8131 3.67085 2.53101C3.49721 1.97951 3.41312 1.40219 3.42125 0.814999C3.42715 0.390806 3.08683 0.0409227 2.66266 0.0350466L0.902081 0.0106569C0.477914 0.00478077 0.128032 0.345102 0.122156 0.769271C0.0547999 5.63136 3.95552 9.64166 8.81759 9.70901C9.24176 9.71489 9.59165 9.37457 9.59752 8.9504L9.62184 7.19473C9.62769 6.77059 9.28737 6.4207 8.86323 6.41483Z" fill="white"/>
</svg>
