<svg width="16" height="16" viewBox="0 0 16 16" fill="none" xmlns="http://www.w3.org/2000/svg">
<path d="M13.278 8.57169C12.496 8.71431 11.7058 8.73203 10.9342 8.62425C10.5555 8.56766 10.1375 8.75917 9.96061 9.02237L8.72203 10.3686C6.89418 9.78316 5.68109 8.94456 4.50259 7.45129L5.29984 5.86049C5.52346 5.53759 5.54879 5.12085 5.36305 4.76804C4.98814 4.08057 4.72549 3.3354 4.58281 2.55299C4.47977 1.98777 3.93608 1.6118 3.3709 1.71487L1.02501 2.14267C0.45983 2.24573 0.0838558 2.78942 0.186924 3.3546C1.36836 9.83309 7.60002 14.1424 14.0785 12.961C14.6437 12.858 15.0196 12.3143 14.9166 11.7491L14.49 9.40974C14.3869 8.8446 13.8432 8.46862 13.278 8.57169Z" fill="url(#paint0_linear)"/>
<defs>
<linearGradient id="paint0_linear" x1="6.387" y1="1.16484" x2="8.7165" y2="13.9388" gradientUnits="userSpaceOnUse">
<stop stop-color="#40FF53"/>
<stop offset="1" stop-color="#00D916"/>
</linearGradient>
</defs>
</svg>
