<svg width="14" height="12" viewBox="0 0 14 12" fill="none" xmlns="http://www.w3.org/2000/svg">
<path d="M7.02343 0.800781C3.62558 0.800781 1.54064 2.77339 0.981622 4.72838C0.453368 6.57585 1.23208 8.32153 3.0647 9.39811L3.26946 9.51841L3.26316 9.75113C3.25067 10.2118 3.13787 10.6554 2.93595 11.0565C3.42763 10.8946 3.87379 10.601 4.22316 10.1992L4.39689 9.99934L4.65453 10.0744C5.37752 10.2849 6.2188 10.4008 7.02343 10.4008C11.2522 10.4008 13.1782 7.90817 13.1782 5.59219C13.1782 4.34483 12.6434 3.18195 11.6722 2.31779C10.557 1.32537 8.94943 0.800781 7.02343 0.800781Z" stroke="black" stroke-width="0.3"/>
</svg>
