<svg width="10" height="13" viewBox="0 0 10 13" fill="none" xmlns="http://www.w3.org/2000/svg">
<path d="M0.625 13H9.375C9.71958 13 10 12.7266 10 12.3906V3.85938C10 3.85247 9.99667 3.84678 9.99625 3.84028C9.99542 3.83094 9.99292 3.82281 9.99083 3.81387C9.98429 3.78565 9.97149 3.75917 9.95333 3.73628C9.95042 3.73262 9.95083 3.72816 9.94792 3.7245L6.61458 0.06825C6.61333 0.0670312 6.61167 0.0670312 6.61042 0.0658125C6.58499 0.039898 6.5529 0.0211002 6.5175 0.011375C6.50958 0.0089375 6.5025 0.008125 6.49417 0.00690625C6.48208 0.004875 6.47083 0 6.45833 0H0.625C0.280417 0 0 0.273406 0 0.609375V12.3906C0 12.7266 0.280417 13 0.625 13ZM6.66667 0.737344L9.32792 3.65625H6.875C6.78333 3.65625 6.66667 3.48563 6.66667 3.35156V0.737344ZM0.416667 0.609375C0.416667 0.555503 0.438616 0.503837 0.477686 0.465744C0.516756 0.427651 0.569747 0.40625 0.625 0.40625H6.25V3.35156C6.25 3.68022 6.52292 4.0625 6.875 4.0625H9.58333V12.3906C9.58333 12.4445 9.56138 12.4962 9.52231 12.5343C9.48324 12.5723 9.43025 12.5938 9.375 12.5938H0.625C0.508333 12.5938 0.416667 12.5044 0.416667 12.3906V0.609375Z" fill="#4F4F4F"/>
<path d="M2.29167 5.6875H7.70833C7.76359 5.6875 7.81658 5.6661 7.85565 5.62801C7.89472 5.58991 7.91667 5.53825 7.91667 5.48438C7.91667 5.4305 7.89472 5.37884 7.85565 5.34074C7.81658 5.30265 7.76359 5.28125 7.70833 5.28125H2.29167C2.23641 5.28125 2.18342 5.30265 2.14435 5.34074C2.10528 5.37884 2.08333 5.4305 2.08333 5.48438C2.08333 5.53825 2.10528 5.58991 2.14435 5.62801C2.18342 5.6661 2.23641 5.6875 2.29167 5.6875Z" fill="#4F4F4F"/>
<path d="M2.29167 7.3125H7.70833C7.76359 7.3125 7.81658 7.2911 7.85565 7.25301C7.89472 7.21491 7.91667 7.16325 7.91667 7.10938C7.91667 7.0555 7.89472 7.00384 7.85565 6.96574C7.81658 6.92765 7.76359 6.90625 7.70833 6.90625H2.29167C2.23641 6.90625 2.18342 6.92765 2.14435 6.96574C2.10528 7.00384 2.08333 7.0555 2.08333 7.10938C2.08333 7.16325 2.10528 7.21491 2.14435 7.25301C2.18342 7.2911 2.23641 7.3125 2.29167 7.3125Z" fill="#4F4F4F"/>
<path d="M2.29167 4.0625H4.79167C4.84692 4.0625 4.89991 4.0411 4.93898 4.00301C4.97805 3.96491 5 3.91325 5 3.85938C5 3.8055 4.97805 3.75384 4.93898 3.71574C4.89991 3.67765 4.84692 3.65625 4.79167 3.65625H2.29167C2.23641 3.65625 2.18342 3.67765 2.14435 3.71574C2.10528 3.75384 2.08333 3.8055 2.08333 3.85938C2.08333 3.91325 2.10528 3.96491 2.14435 4.00301C2.18342 4.0411 2.23641 4.0625 2.29167 4.0625Z" fill="#4F4F4F"/>
<path d="M2.29167 8.9375H7.70833C7.76359 8.9375 7.81658 8.9161 7.85565 8.87801C7.89472 8.83991 7.91667 8.78825 7.91667 8.73438C7.91667 8.6805 7.89472 8.62884 7.85565 8.59074C7.81658 8.55265 7.76359 8.53125 7.70833 8.53125H2.29167C2.23641 8.53125 2.18342 8.55265 2.14435 8.59074C2.10528 8.62884 2.08333 8.6805 2.08333 8.73438C2.08333 8.78825 2.10528 8.83991 2.14435 8.87801C2.18342 8.9161 2.23641 8.9375 2.29167 8.9375Z" fill="#4F4F4F"/>
<path d="M2.29167 10.5625H7.70833C7.76359 10.5625 7.81658 10.5411 7.85565 10.503C7.89472 10.4649 7.91667 10.4132 7.91667 10.3594C7.91667 10.3055 7.89472 10.2538 7.85565 10.2157C7.81658 10.1777 7.76359 10.1562 7.70833 10.1562H2.29167C2.23641 10.1562 2.18342 10.1777 2.14435 10.2157C2.10528 10.2538 2.08333 10.3055 2.08333 10.3594C2.08333 10.4132 2.10528 10.4649 2.14435 10.503C2.18342 10.5411 2.23641 10.5625 2.29167 10.5625Z" fill="#4F4F4F"/>
</svg>
