<svg width="13" height="10" viewBox="0 0 13 10" fill="none" xmlns="http://www.w3.org/2000/svg">
<ellipse cx="6.04172" cy="4.79171" rx="6.04172" ry="4.79171" fill="#FDFDFD"/>
<path d="M3.47692 5.56132C3.38118 5.44928 3.33331 5.31177 3.33331 5.1488C3.33331 4.98583 3.38118 4.85342 3.47692 4.75156C3.58224 4.63952 3.71149 4.5835 3.86467 4.5835C4.01786 4.5835 4.14232 4.63952 4.23806 4.75156C4.34338 4.85342 4.39603 4.98583 4.39603 5.1488C4.39603 5.31177 4.34338 5.44928 4.23806 5.56132C4.14232 5.66318 4.01786 5.71411 3.86467 5.71411C3.71149 5.71411 3.58224 5.66318 3.47692 5.56132Z" fill="#0676DC"/>
<path d="M5.69311 5.56132C5.59737 5.44928 5.5495 5.31177 5.5495 5.1488C5.5495 4.98583 5.59737 4.85342 5.69311 4.75156C5.79843 4.63952 5.92768 4.5835 6.08086 4.5835C6.23405 4.5835 6.35851 4.63952 6.45425 4.75156C6.55956 4.85342 6.61222 4.98583 6.61222 5.1488C6.61222 5.31177 6.55956 5.44928 6.45425 5.56132C6.35851 5.66318 6.23405 5.71411 6.08086 5.71411C5.92768 5.71411 5.79843 5.66318 5.69311 5.56132Z" fill="#0676DC"/>
<path d="M8.06727 5.56132C7.97153 5.44928 7.92366 5.31177 7.92366 5.1488C7.92366 4.98583 7.97153 4.85342 8.06727 4.75156C8.17258 4.63952 8.30183 4.5835 8.45502 4.5835C8.6082 4.5835 8.73267 4.63952 8.82841 4.75156C8.93372 4.85342 8.98638 4.98583 8.98638 5.1488C8.98638 5.31177 8.93372 5.44928 8.82841 5.56132C8.73267 5.66318 8.6082 5.71411 8.45502 5.71411C8.30183 5.71411 8.17258 5.66318 8.06727 5.56132Z" fill="#0676DC"/>
<path d="M1.45342 9.70159C2.42712 9.26372 3.15739 8.60692 3.40081 8.33325H3.64418C4.37447 8.5157 5.73768 8.99005 5.3482 9.42792C4.86135 9.97526 0.236306 10.2489 1.45342 9.70159Z" fill="#FDFDFD"/>
</svg>
