<svg width="17" height="15" viewBox="0 0 17 15" fill="none" xmlns="http://www.w3.org/2000/svg">
<ellipse cx="8.5" cy="6.74138" rx="8.5" ry="6.74138" fill="url(#paint0_linear)"/>
<path d="M4.89167 7.82418C4.75698 7.66655 4.68963 7.47309 4.68963 7.24381C4.68963 7.01453 4.75698 6.82823 4.89167 6.68493C5.03984 6.5273 5.22168 6.44849 5.43719 6.44849C5.65271 6.44849 5.82781 6.5273 5.96251 6.68493C6.11067 6.82823 6.18476 7.01453 6.18476 7.24381C6.18476 7.47309 6.11067 7.66655 5.96251 7.82418C5.82781 7.96748 5.65271 8.03913 5.43719 8.03913C5.22168 8.03913 5.03984 7.96748 4.89167 7.82418Z" fill="#FDFDFD"/>
<path d="M8.00959 7.82418C7.8749 7.66655 7.80755 7.47309 7.80755 7.24381C7.80755 7.01453 7.8749 6.82823 8.00959 6.68493C8.15776 6.5273 8.3396 6.44849 8.55511 6.44849C8.77063 6.44849 8.94573 6.5273 9.08043 6.68493C9.22859 6.82823 9.30268 7.01453 9.30268 7.24381C9.30268 7.47309 9.22859 7.66655 9.08043 7.82418C8.94573 7.96748 8.77063 8.03913 8.55511 8.03913C8.3396 8.03913 8.15776 7.96748 8.00959 7.82418Z" fill="#FDFDFD"/>
<path d="M11.3498 7.82418C11.2151 7.66655 11.1477 7.47309 11.1477 7.24381C11.1477 7.01453 11.2151 6.82823 11.3498 6.68493C11.4979 6.5273 11.6798 6.44849 11.8953 6.44849C12.1108 6.44849 12.2859 6.5273 12.4206 6.68493C12.5688 6.82823 12.6428 7.01453 12.6428 7.24381C12.6428 7.47309 12.5688 7.66655 12.4206 7.82418C12.2859 7.96748 12.1108 8.03913 11.8953 8.03913C11.6798 8.03913 11.4979 7.96748 11.3498 7.82418Z" fill="#FDFDFD"/>
<path d="M2.04485 13.6492C3.41473 13.0332 4.44213 12.1091 4.7846 11.7241H5.127C6.15443 11.9808 8.0723 12.6482 7.52435 13.2642C6.83942 14.0342 0.332508 14.4193 2.04485 13.6492Z" fill="#0170D7"/>
<defs>
<linearGradient id="paint0_linear" x1="8.5" y1="0" x2="8.5" y2="13.4828" gradientUnits="userSpaceOnUse">
<stop stop-color="#2797FF"/>
<stop offset="1" stop-color="#006FD6"/>
</linearGradient>
</defs>
</svg>
