<svg width="12" height="12" viewBox="0 0 12 12" fill="none" xmlns="http://www.w3.org/2000/svg">
<path d="M2.4243 11.9995C2.37984 11.9995 2.33538 11.985 2.298 11.9564C2.23184 11.9059 2.19877 11.8205 2.21273 11.7359L2.87666 7.67428L0.0647846 4.79811C0.00636052 4.73815 -0.0146893 4.64866 0.0104416 4.56728C0.0357874 4.48568 0.103018 4.42617 0.183995 4.41377L4.06963 3.82113L5.80753 0.125786C5.84361 0.0486912 5.91836 0 5.99998 0C6.08182 0 6.15657 0.0486912 6.19244 0.125786L7.93012 3.82113L11.816 4.41377C11.8969 4.42617 11.964 4.48545 11.9895 4.56728C12.0147 4.64866 11.9938 4.73838 11.9352 4.79811L9.12331 7.67473L9.78702 11.7362C9.80077 11.8207 9.76769 11.9061 9.70175 11.9566C9.63559 12.0076 9.54774 12.0141 9.47535 11.9738L5.99998 10.0563L2.52418 11.9738C2.49282 11.9909 2.45845 11.9995 2.4243 11.9995ZM0.676304 4.79406L3.25727 7.43443C3.30775 7.48605 3.33095 7.56089 3.31892 7.63393L2.70955 11.362L5.9001 9.60186C5.96261 9.56715 6.03714 9.56715 6.10008 9.60186L9.2902 11.362L8.68104 7.63393C8.66902 7.56089 8.69221 7.48627 8.74269 7.43443L11.3237 4.79406L7.757 4.25011C7.68698 4.23952 7.62662 4.19331 7.59526 4.12681L5.99998 0.735102L4.4047 4.12703C4.37334 4.19353 4.31299 4.23974 4.24296 4.25034L0.676304 4.79406Z" fill="#4F4F4F"/>
</svg>
