<svg width="13" height="13" viewBox="0 0 13 13" fill="none" xmlns="http://www.w3.org/2000/svg">
<path d="M12.6865 4.60477C12.6597 4.5225 12.5885 4.46249 12.5028 4.44999L8.39128 3.85246L6.55255 0.126825C6.51436 0.0490934 6.43527 0 6.3489 0C6.26253 0 6.18321 0.0490934 6.14526 0.126825L4.3063 3.85269L0.194733 4.45022C0.109047 4.46272 0.038134 4.5225 0.0110872 4.605C-0.015505 4.68705 0.00654156 4.77751 0.0685901 4.83774L3.04396 7.73788L2.34143 11.8331C2.32688 11.9183 2.36189 12.0045 2.43166 12.0554C2.50189 12.1067 2.59485 12.1133 2.67099 12.0726L6.3489 10.1394L10.0264 12.0726C10.0595 12.0901 10.0961 12.0988 10.1323 12.0988C10.1793 12.0988 10.2261 12.0842 10.2659 12.0554C10.3359 12.0045 10.3709 11.9183 10.3561 11.8331L9.65384 7.73811L12.6292 4.83774C12.691 4.77706 12.7133 4.68682 12.6865 4.60477Z" fill="#FED130"/>
</svg>
