<svg width="14" height="14" viewBox="0 0 14 14" fill="none" xmlns="http://www.w3.org/2000/svg">
<path d="M2.48828 9.87109V12.332H11.5117V9.87109H2.48828Z" fill="#FF9F00"/>
<path d="M7 9.87109H11.5117V12.332H7V9.87109Z" fill="#FF7816"/>
<path d="M11.5527 6.29451L10.8883 7.59056H3.11174L2.44727 6.29451C3.42342 4.94099 5.12151 4.12891 7 4.12891C8.87849 4.12891 10.5766 4.94099 11.5527 6.29451Z" fill="#FF4B00"/>
<path d="M11.5527 6.29451L10.8883 7.59056H7V4.12891C8.87849 4.12891 10.5766 4.94099 11.5527 6.29451Z" fill="#CC1E0D"/>
<path d="M13.0458 5.47429L11.5118 10.6915H2.48833L0.9543 5.47429L1.98792 5.08058C2.45554 5.9747 3.34966 6.49968 4.07971 6.58993H4.50632C5.44968 6.44232 6.15506 4.99855 6.44228 3.62036H7.55792C7.84503 4.99855 8.55052 6.44232 9.49378 6.58993H9.92038C10.6504 6.49968 11.5446 5.9747 12.0122 5.08058L13.0458 5.47429Z" fill="#FDBF00"/>
<path d="M13.0457 5.47429L11.5117 10.6915H7V3.62036H7.55777C7.84499 4.99855 8.55037 6.44232 9.49373 6.58993H9.92033C10.6504 6.49968 11.5445 5.9747 12.0121 5.08058L13.0457 5.47429Z" fill="#FF9F00"/>
<path d="M1.25781 5.76953C0.579346 5.76953 0 5.21753 0 4.53906C0 3.8606 0.579346 3.30859 1.25781 3.30859C1.93628 3.30859 2.48828 3.8606 2.48828 4.53906C2.48828 5.21753 1.93628 5.76953 1.25781 5.76953Z" fill="#FF9F00"/>
<path d="M12.7422 5.76953C12.0637 5.76953 11.5117 5.21753 11.5117 4.53906C11.5117 3.8606 12.0637 3.30859 12.7422 3.30859C13.4207 3.30859 14 3.8606 14 4.53906C14 5.21753 13.4207 5.76953 12.7422 5.76953Z" fill="#FF7816"/>
<path d="M7 1.66797C6.31908 1.66797 5.76953 2.21751 5.76953 2.89844C5.76953 3.57925 6.31908 4.12891 7 4.12891C7.68092 4.12891 8.23047 3.57925 8.23047 2.89844C8.23047 2.21751 7.68092 1.66797 7 1.66797Z" fill="#FF9F00"/>
<path d="M7.00003 6.41748L5.59727 7.82024L7.00003 9.22299L8.40279 7.82024L7.00003 6.41748Z" fill="#FF4B00"/>
<path d="M9.46089 8.06055L10.0409 8.64053L9.46089 9.22052L8.88091 8.64053L9.46089 8.06055Z" fill="#CC1E0D"/>
<path d="M4.53902 8.06055L5.119 8.64053L4.53902 9.22052L3.95903 8.64053L4.53902 8.06055Z" fill="#FF4B00"/>
<path d="M7 4.12891V1.66797C7.68092 1.66797 8.23047 2.21751 8.23047 2.89844C8.23047 3.57925 7.68092 4.12891 7 4.12891Z" fill="#FF7816"/>
<path d="M8.40276 7.82024L7 9.22299V6.41748L8.40276 7.82024Z" fill="#CC1E0D"/>
</svg>
