<?xml version="1.0" standalone="no"?>
<!DOCTYPE svg PUBLIC "-//W3C//DTD SVG 20010904//EN"
 "http://www.w3.org/TR/2001/REC-SVG-20010904/DTD/svg10.dtd">
<svg version="1.0" xmlns="http://www.w3.org/2000/svg"
 width="200.000000pt" height="101.000000pt" viewBox="0 0 200.000000 101.000000"
 preserveAspectRatio="xMidYMid meet">

<g transform="translate(0.000000,101.000000) scale(0.100000,-0.100000)"
fill="#000000" stroke="none">
<path d="M735 986 c-22 -7 -51 -19 -65 -26 -14 -8 -62 -17 -107 -20 -70 -5
-89 -11 -125 -36 -24 -16 -56 -51 -73 -76 l-30 -47 -71 0 c-81 -1 -127 -17
-179 -63 -69 -60 -96 -145 -70 -217 36 -104 122 -164 240 -168 l69 -2 32 -44
c22 -30 51 -54 89 -72 49 -25 64 -27 119 -22 l64 6 38 -51 c38 -50 138 -118
174 -118 13 0 13 1 0 10 -10 6 -11 10 -2 10 9 0 12 30 12 114 0 82 -4 116 -12
119 -7 3 16 3 52 1 l65 -3 -57 9 c-90 14 -190 72 -173 100 4 6 -16 10 -57 10
-98 1 -179 49 -207 123 -16 40 -14 123 3 156 37 70 139 120 215 105 26 -5 32
-3 40 17 14 37 57 78 103 99 29 13 36 20 23 21 -11 0 -14 3 -7 6 6 2 12 16 12
29 0 13 -6 25 -12 25 -7 1 1 5 17 9 25 6 20 8 -25 8 -30 0 -73 -5 -95 -12z
m-599 -391 c17 -52 24 -65 29 -50 39 120 39 120 70 120 l30 0 3 -97 c3 -92 2
-98 -17 -98 -18 0 -20 8 -23 73 l-3 72 -23 -73 c-20 -64 -26 -73 -45 -70 -17
2 -26 17 -44 73 l-22 70 0 -72 c-1 -66 -3 -73 -21 -73 -19 0 -20 7 -20 101 l0
100 32 -3 c31 -3 34 -7 54 -73z m214 -38 l16 -49 13 51 c11 43 16 51 36 51
l24 0 -35 -87 c-19 -49 -42 -94 -51 -100 -26 -20 -53 -16 -53 7 0 11 7 20 15
20 26 0 26 23 0 90 -14 35 -25 66 -25 68 0 2 10 2 22 0 16 -2 26 -16 38 -51z"/>
<path d="M1108 923 c6 -2 18 -2 25 0 6 3 1 5 -13 5 -14 0 -19 -2 -12 -5z"/>
<path d="M1178 923 c6 -2 18 -2 25 0 6 3 1 5 -13 5 -14 0 -19 -2 -12 -5z"/>
<path d="M1328 903 c-36 -6 -35 -12 7 -46 l35 -28 55 26 c30 14 55 29 55 34 0
17 -81 25 -152 14z"/>
<path d="M1588 853 c7 -3 16 -2 19 1 4 3 -2 6 -13 5 -11 0 -14 -3 -6 -6z"/>
<path d="M648 753 c12 -2 30 -2 40 0 9 3 -1 5 -23 4 -22 0 -30 -2 -17 -4z"/>
<path d="M489 683 c-13 -16 -12 -17 4 -4 9 7 17 15 17 17 0 8 -8 3 -21 -13z"/>
<path d="M708 683 c-16 -4 -18 -18 -18 -109 0 -97 1 -104 20 -104 19 0 20 7
20 110 0 61 -1 109 -2 109 -2 -1 -11 -3 -20 -6z"/>
<path d="M1188 683 c-13 -3 -18 -14 -18 -37 0 -30 -2 -33 -25 -28 -39 7 -65
-22 -65 -74 0 -61 44 -96 78 -62 9 9 12 9 12 0 0 -7 9 -12 20 -12 19 0 20 7
20 110 0 61 -1 109 -2 109 -2 -1 -11 -3 -20 -6z m-20 -131 c4 -28 -14 -53 -34
-45 -14 5 -20 54 -7 67 14 13 38 0 41 -22z"/>
<path d="M594 673 c-36 -7 -66 -48 -71 -97 -5 -40 -2 -48 26 -76 25 -26 37
-31 67 -28 27 2 39 9 45 25 7 20 5 21 -27 16 -45 -7 -64 10 -64 58 0 46 32 74
73 64 22 -6 25 -4 20 14 -3 12 -9 21 -13 21 -5 0 -14 2 -22 4 -7 2 -23 1 -34
-1z"/>
<path d="M1324 645 c-22 -33 -10 -61 37 -91 22 -13 37 -29 34 -34 -9 -14 -59
-12 -73 2 -9 9 -12 6 -12 -14 0 -40 64 -53 108 -22 41 28 29 64 -37 113 -31
23 -19 45 20 37 24 -5 29 -2 29 14 0 17 -7 20 -45 20 -36 0 -48 -5 -61 -25z"/>
<path d="M1483 653 c-7 -2 -13 -11 -13 -19 0 -8 -4 -14 -10 -14 -5 0 -10 -9
-10 -20 0 -11 5 -20 10 -20 6 0 10 -19 10 -43 0 -48 13 -67 47 -67 16 0 23 6
23 20 0 11 -6 19 -12 18 -8 -2 -14 11 -16 35 -2 28 0 37 12 37 9 0 16 9 16 20
0 11 -7 20 -15 20 -8 0 -15 9 -15 20 0 20 -5 23 -27 13z"/>
<path d="M780 600 c-45 -45 -13 -130 50 -130 41 0 70 31 70 75 0 44 -29 75
-70 75 -17 0 -39 -9 -50 -20z m78 -51 c4 -34 -22 -57 -43 -39 -16 13 -20 51
-8 64 16 16 48 1 51 -25z"/>
<path d="M920 561 c0 -41 5 -65 16 -75 18 -19 45 -21 62 -4 9 9 12 9 12 0 0
-7 9 -12 20 -12 18 0 20 7 20 75 0 68 -2 75 -20 75 -17 0 -20 -7 -20 -49 0
-28 -6 -53 -13 -60 -22 -17 -37 8 -37 61 0 41 -3 48 -20 48 -18 0 -20 -7 -20
-59z"/>
<path d="M1572 597 c-45 -48 -16 -127 48 -127 41 0 70 31 70 75 0 68 -73 100
-118 52z m76 -48 c2 -15 -4 -31 -13 -39 -24 -20 -50 9 -41 45 9 36 50 32 54
-6z"/>
<path d="M1720 545 c0 -68 2 -75 20 -75 17 0 20 7 20 39 0 52 8 71 31 71 12 0
19 7 19 20 0 22 -20 26 -38 8 -9 -9 -12 -9 -12 0 0 7 -9 12 -20 12 -18 0 -20
-7 -20 -75z"/>
<path d="M1841 603 c-32 -27 -37 -73 -11 -106 18 -23 29 -28 59 -25 25 2 37 8
39 20 3 15 -2 17 -25 12 -20 -4 -33 -1 -42 10 -12 14 -8 16 33 16 42 0 46 2
46 25 0 30 -32 65 -59 65 -10 0 -28 -8 -40 -17z m57 -31 c2 -7 -7 -12 -23 -12
-24 0 -26 2 -15 15 14 17 31 16 38 -3z"/>
<path d="M1503 247 c-30 -30 -117 -77 -144 -77 -10 0 -21 -5 -25 -12 -10 -15
148 -4 200 14 36 13 40 18 40 49 -1 30 3 35 30 40 26 4 22 6 -22 10 -48 4 -56
1 -79 -24z"/>
<path d="M1015 250 c10 -11 20 -20 23 -20 3 0 -3 9 -13 20 -10 11 -20 20 -23
20 -3 0 3 -9 13 -20z"/>
<path d="M1115 181 c6 -5 24 -13 40 -17 39 -9 30 0 -15 15 -19 6 -30 7 -25 2z"/>
</g>
</svg>
